<?xml version="1.0" encoding="UTF-8" standalone="no"?>
<!DOCTYPE svg PUBLIC "-//W3C//DTD SVG 1.1//EN" "http://www.w3.org/Graphics/SVG/1.1/DTD/svg11.dtd">
<!-- Generated by graphviz version 2.40.1 (20161225.0304)
 -->
<!-- Title: %0 Pages: 1 -->
<svg width="552pt" height="516pt" viewBox="0.00 0.00 551.74 516.34" xmlns="http://www.w3.org/2000/svg" xmlns:xlink="http://www.w3.org/1999/xlink">
<g id="graph0" class="graph" transform="scale(1 1) rotate(0) translate(4 512.3423)">
<title>%0</title>
<polygon fill="#ffffff" stroke="transparent" points="-4,4 -4,-512.3423 547.7436,-512.3423 547.7436,4 -4,4"/>
<!-- 0 -->
<g id="node1" class="node">
<title>0</title>
<ellipse fill="none" stroke="#000000" cx="27.6609" cy="-18" rx="27.8228" ry="18"/>
<text text-anchor="middle" x="27.6609" y="-13.8" font-family="Times,serif" font-size="14.00" fill="#000000">start</text>
</g>
<!-- 34 -->
<g id="node2" class="node">
<title>34</title>
<ellipse fill="none" stroke="#000000" cx="510.723" cy="-481.0248" rx="33.0411" ry="18"/>
<text text-anchor="middle" x="510.723" y="-476.8248" font-family="Times,serif" font-size="14.00" fill="#000000">target</text>
</g>
<!-- 31 -->
<g id="node33" class="node">
<title>31</title>
<ellipse fill="none" stroke="#000000" cx="426.6132" cy="-488.8733" rx="27" ry="18"/>
<text text-anchor="middle" x="426.6132" y="-484.6733" font-family="Times,serif" font-size="14.00" fill="#000000">31</text>
</g>
<!-- 34&#45;&#45;31 -->
<g id="edge59" class="edge">
<title>34--31</title>
<path fill="none" stroke="#000000" d="M477.9631,-484.0817C469.8449,-484.8393 461.2402,-485.6422 453.4428,-486.3698"/>
<text text-anchor="middle" x="465.703" y="-472.6258" font-family="Times,serif" font-size="14.00" fill="#000000">182</text>
</g>
<!-- 33 -->
<g id="node35" class="node">
<title>33</title>
<ellipse fill="none" stroke="#000000" cx="514.2969" cy="-397.1424" rx="27" ry="18"/>
<text text-anchor="middle" x="514.2969" y="-392.9424" font-family="Times,serif" font-size="14.00" fill="#000000">33</text>
</g>
<!-- 34&#45;&#45;33 -->
<g id="edge58" class="edge">
<title>34--33</title>
<path fill="none" stroke="#000000" d="M511.4985,-462.8236C512.098,-448.7537 512.9239,-429.3691 513.5229,-415.3082"/>
<text text-anchor="middle" x="502.0107" y="-443.2659" font-family="Times,serif" font-size="14.00" fill="#000000">208</text>
</g>
<!-- 1 -->
<g id="node3" class="node">
<title>1</title>
<ellipse fill="none" stroke="#000000" cx="85.8651" cy="-70.5755" rx="27" ry="18"/>
<text text-anchor="middle" x="85.8651" y="-66.3755" font-family="Times,serif" font-size="14.00" fill="#000000">1</text>
</g>
<!-- 1&#45;&#45;0 -->
<g id="edge1" class="edge">
<title>1--0</title>
<path fill="none" stroke="#000000" d="M69.652,-55.9303C61.7137,-48.7597 52.1719,-40.1407 44.1915,-32.932"/>
<text text-anchor="middle" x="46.4218" y="-48.6312" font-family="Times,serif" font-size="14.00" fill="#000000">105</text>
</g>
<!-- 2 -->
<g id="node4" class="node">
<title>2</title>
<ellipse fill="none" stroke="#000000" cx="83.9562" cy="-155.4792" rx="27" ry="18"/>
<text text-anchor="middle" x="83.9562" y="-151.2792" font-family="Times,serif" font-size="14.00" fill="#000000">2</text>
</g>
<!-- 2&#45;&#45;1 -->
<g id="edge2" class="edge">
<title>2--1</title>
<path fill="none" stroke="#000000" d="M84.3611,-137.4733C84.6828,-123.1622 85.131,-103.2285 85.4543,-88.8482"/>
<text text-anchor="middle" x="74.4077" y="-117.3607" font-family="Times,serif" font-size="14.00" fill="#000000">370</text>
</g>
<!-- 3 -->
<g id="node5" class="node">
<title>3</title>
<ellipse fill="none" stroke="#000000" cx="170.379" cy="-66.1972" rx="27" ry="18"/>
<text text-anchor="middle" x="170.379" y="-61.9972" font-family="Times,serif" font-size="14.00" fill="#000000">3</text>
</g>
<!-- 3&#45;&#45;1 -->
<g id="edge3" class="edge">
<title>3--1</title>
<path fill="none" stroke="#000000" d="M143.1731,-67.6066C133.5223,-68.1066 122.6666,-68.669 113.0201,-69.1687"/>
<text text-anchor="middle" x="121.0966" y="-72.5877" font-family="Times,serif" font-size="14.00" fill="#000000">58</text>
</g>
<!-- 4 -->
<g id="node6" class="node">
<title>4</title>
<ellipse fill="none" stroke="#000000" cx="85.3889" cy="-242.3316" rx="27" ry="18"/>
<text text-anchor="middle" x="85.3889" y="-238.1316" font-family="Times,serif" font-size="14.00" fill="#000000">4</text>
</g>
<!-- 4&#45;&#45;2 -->
<g id="edge4" class="edge">
<title>4--2</title>
<path fill="none" stroke="#000000" d="M85.085,-223.9124C84.8403,-209.0737 84.498,-188.3257 84.2547,-173.574"/>
<text text-anchor="middle" x="74.1699" y="-202.9432" font-family="Times,serif" font-size="14.00" fill="#000000">180</text>
</g>
<!-- 5 -->
<g id="node7" class="node">
<title>5</title>
<ellipse fill="none" stroke="#000000" cx="167.8546" cy="-150.3461" rx="27" ry="18"/>
<text text-anchor="middle" x="167.8546" y="-146.1461" font-family="Times,serif" font-size="14.00" fill="#000000">5</text>
</g>
<!-- 5&#45;&#45;2 -->
<g id="edge6" class="edge">
<title>5--2</title>
<path fill="none" stroke="#000000" d="M140.8468,-151.9985C131.2663,-152.5847 120.4897,-153.244 110.9134,-153.8299"/>
<text text-anchor="middle" x="125.8801" y="-140.3142" font-family="Times,serif" font-size="14.00" fill="#000000">104</text>
</g>
<!-- 5&#45;&#45;3 -->
<g id="edge5" class="edge">
<title>5--3</title>
<path fill="none" stroke="#000000" d="M168.4024,-132.0871C168.8258,-117.9725 169.4092,-98.5262 169.8323,-84.4206"/>
<text text-anchor="middle" x="158.6174" y="-112.4538" font-family="Times,serif" font-size="14.00" fill="#000000">244</text>
</g>
<!-- 6 -->
<g id="node8" class="node">
<title>6</title>
<ellipse fill="none" stroke="#000000" cx="257.1616" cy="-65.1674" rx="27" ry="18"/>
<text text-anchor="middle" x="257.1616" y="-60.9674" font-family="Times,serif" font-size="14.00" fill="#000000">6</text>
</g>
<!-- 6&#45;&#45;3 -->
<g id="edge7" class="edge">
<title>6--3</title>
<path fill="none" stroke="#000000" d="M229.7031,-65.4933C219.4736,-65.6146 207.8723,-65.7523 197.659,-65.8735"/>
<text text-anchor="middle" x="218.931" y="-53.0834" font-family="Times,serif" font-size="14.00" fill="#000000">204</text>
</g>
<!-- 7 -->
<g id="node9" class="node">
<title>7</title>
<ellipse fill="none" stroke="#000000" cx="90.7235" cy="-330.2595" rx="27" ry="18"/>
<text text-anchor="middle" x="90.7235" y="-326.0595" font-family="Times,serif" font-size="14.00" fill="#000000">7</text>
</g>
<!-- 7&#45;&#45;4 -->
<g id="edge8" class="edge">
<title>7--4</title>
<path fill="none" stroke="#000000" d="M89.6181,-312.0408C88.7026,-296.9502 87.4079,-275.6111 86.4928,-260.527"/>
<text text-anchor="middle" x="77.5555" y="-290.4839" font-family="Times,serif" font-size="14.00" fill="#000000">148</text>
</g>
<!-- 8 -->
<g id="node10" class="node">
<title>8</title>
<ellipse fill="none" stroke="#000000" cx="168.5146" cy="-236.0379" rx="27" ry="18"/>
<text text-anchor="middle" x="168.5146" y="-231.8379" font-family="Times,serif" font-size="14.00" fill="#000000">8</text>
</g>
<!-- 8&#45;&#45;4 -->
<g id="edge10" class="edge">
<title>8--4</title>
<path fill="none" stroke="#000000" d="M141.2962,-238.0987C132.0156,-238.8013 121.6476,-239.5863 112.3846,-240.2877"/>
<text text-anchor="middle" x="126.8404" y="-226.5932" font-family="Times,serif" font-size="14.00" fill="#000000">118</text>
</g>
<!-- 8&#45;&#45;5 -->
<g id="edge9" class="edge">
<title>8--5</title>
<path fill="none" stroke="#000000" d="M168.3747,-217.8649C168.2627,-203.3227 168.1064,-183.0282 167.9944,-168.493"/>
<text text-anchor="middle" x="161.1845" y="-197.3789" font-family="Times,serif" font-size="14.00" fill="#000000">90</text>
</g>
<!-- 9 -->
<g id="node11" class="node">
<title>9</title>
<ellipse fill="none" stroke="#000000" cx="253.3946" cy="-148.5394" rx="27" ry="18"/>
<text text-anchor="middle" x="253.3946" y="-144.3394" font-family="Times,serif" font-size="14.00" fill="#000000">9</text>
</g>
<!-- 9&#45;&#45;5 -->
<g id="edge12" class="edge">
<title>9--5</title>
<path fill="none" stroke="#000000" d="M226.3292,-149.1111C216.3442,-149.322 205.033,-149.5609 195.0375,-149.772"/>
<text text-anchor="middle" x="203.6834" y="-153.6415" font-family="Times,serif" font-size="14.00" fill="#000000">56</text>
</g>
<!-- 9&#45;&#45;6 -->
<g id="edge11" class="edge">
<title>9--6</title>
<path fill="none" stroke="#000000" d="M254.212,-130.4489C254.8438,-116.4647 255.7144,-97.198 256.3458,-83.2226"/>
<text text-anchor="middle" x="244.7789" y="-111.0358" font-family="Times,serif" font-size="14.00" fill="#000000">236</text>
</g>
<!-- 10 -->
<g id="node12" class="node">
<title>10</title>
<ellipse fill="none" stroke="#000000" cx="345.1278" cy="-67.788" rx="27" ry="18"/>
<text text-anchor="middle" x="345.1278" y="-63.588" font-family="Times,serif" font-size="14.00" fill="#000000">10</text>
</g>
<!-- 10&#45;&#45;6 -->
<g id="edge13" class="edge">
<title>10--6</title>
<path fill="none" stroke="#000000" d="M317.777,-66.9732C307.0848,-66.6547 294.8547,-66.2903 284.1934,-65.9727"/>
<text text-anchor="middle" x="306.2352" y="-53.873" font-family="Times,serif" font-size="14.00" fill="#000000">148</text>
</g>
<!-- 11 -->
<g id="node13" class="node">
<title>11</title>
<ellipse fill="none" stroke="#000000" cx="104.2082" cy="-418.1222" rx="27" ry="18"/>
<text text-anchor="middle" x="104.2082" y="-413.9222" font-family="Times,serif" font-size="14.00" fill="#000000">11</text>
</g>
<!-- 11&#45;&#45;7 -->
<g id="edge14" class="edge">
<title>11--7</title>
<path fill="none" stroke="#000000" d="M101.4142,-399.917C99.0999,-384.8376 95.8273,-363.5143 93.5139,-348.4414"/>
<text text-anchor="middle" x="86.9641" y="-378.3792" font-family="Times,serif" font-size="14.00" fill="#000000">112</text>
</g>
<!-- 12 -->
<g id="node14" class="node">
<title>12</title>
<ellipse fill="none" stroke="#000000" cx="171.155" cy="-321.1662" rx="27" ry="18"/>
<text text-anchor="middle" x="171.155" y="-316.9662" font-family="Times,serif" font-size="14.00" fill="#000000">12</text>
</g>
<!-- 12&#45;&#45;7 -->
<g id="edge16" class="edge">
<title>12--7</title>
<path fill="none" stroke="#000000" d="M144.3725,-324.1942C135.6898,-325.1758 126.0632,-326.2641 117.3891,-327.2448"/>
<text text-anchor="middle" x="130.8808" y="-313.1195" font-family="Times,serif" font-size="14.00" fill="#000000">238</text>
</g>
<!-- 12&#45;&#45;8 -->
<g id="edge15" class="edge">
<title>12--8</title>
<path fill="none" stroke="#000000" d="M170.5951,-303.1127C170.147,-288.6662 169.5217,-268.5051 169.0738,-254.0654"/>
<text text-anchor="middle" x="159.3344" y="-282.7891" font-family="Times,serif" font-size="14.00" fill="#000000">104</text>
</g>
<!-- 13 -->
<g id="node15" class="node">
<title>13</title>
<ellipse fill="none" stroke="#000000" cx="254.9833" cy="-235.0943" rx="27" ry="18"/>
<text text-anchor="middle" x="254.9833" y="-230.8943" font-family="Times,serif" font-size="14.00" fill="#000000">13</text>
</g>
<!-- 13&#45;&#45;8 -->
<g id="edge18" class="edge">
<title>13--8</title>
<path fill="none" stroke="#000000" d="M227.6241,-235.3929C217.4317,-235.5041 205.8723,-235.6303 195.6959,-235.7413"/>
<text text-anchor="middle" x="216.91" y="-222.9671" font-family="Times,serif" font-size="14.00" fill="#000000">124</text>
</g>
<!-- 13&#45;&#45;9 -->
<g id="edge17" class="edge">
<title>13--9</title>
<path fill="none" stroke="#000000" d="M254.6464,-216.7383C254.375,-201.9504 253.9954,-181.2734 253.7256,-166.5722"/>
<text text-anchor="middle" x="243.686" y="-195.8552" font-family="Times,serif" font-size="14.00" fill="#000000">158</text>
</g>
<!-- 14 -->
<g id="node16" class="node">
<title>14</title>
<ellipse fill="none" stroke="#000000" cx="338.4735" cy="-148.5459" rx="27" ry="18"/>
<text text-anchor="middle" x="338.4735" y="-144.3459" font-family="Times,serif" font-size="14.00" fill="#000000">14</text>
</g>
<!-- 14&#45;&#45;9 -->
<g id="edge20" class="edge">
<title>14--9</title>
<path fill="none" stroke="#000000" d="M311.0857,-148.5438C301.2732,-148.5431 290.2235,-148.5422 280.4401,-148.5415"/>
<text text-anchor="middle" x="301.0129" y="-135.9426" font-family="Times,serif" font-size="14.00" fill="#000000">124</text>
</g>
<!-- 14&#45;&#45;10 -->
<g id="edge19" class="edge">
<title>14--10</title>
<path fill="none" stroke="#000000" d="M339.9835,-130.2207C341.0802,-116.9111 342.5568,-98.9901 343.6467,-85.7625"/>
<text text-anchor="middle" x="331.3151" y="-112.1916" font-family="Times,serif" font-size="14.00" fill="#000000">144</text>
</g>
<!-- 15 -->
<g id="node17" class="node">
<title>15</title>
<ellipse fill="none" stroke="#000000" cx="433.2767" cy="-78.3385" rx="27" ry="18"/>
<text text-anchor="middle" x="433.2767" y="-74.1385" font-family="Times,serif" font-size="14.00" fill="#000000">15</text>
</g>
<!-- 15&#45;&#45;10 -->
<g id="edge21" class="edge">
<title>15--10</title>
<path fill="none" stroke="#000000" d="M406.3502,-75.1157C395.4139,-73.8067 382.8089,-72.298 371.8895,-70.9911"/>
<text text-anchor="middle" x="394.3698" y="-60.4534" font-family="Times,serif" font-size="14.00" fill="#000000">122</text>
</g>
<!-- 16 -->
<g id="node18" class="node">
<title>16</title>
<ellipse fill="none" stroke="#000000" cx="161.9423" cy="-475.1589" rx="27" ry="18"/>
<text text-anchor="middle" x="161.9423" y="-470.9589" font-family="Times,serif" font-size="14.00" fill="#000000">16</text>
</g>
<!-- 16&#45;&#45;11 -->
<g id="edge22" class="edge">
<title>16--11</title>
<path fill="none" stroke="#000000" d="M146.7734,-460.1732C138.3542,-451.8557 127.9113,-441.5389 119.4763,-433.2058"/>
<text text-anchor="middle" x="122.6249" y="-450.8895" font-family="Times,serif" font-size="14.00" fill="#000000">422</text>
</g>
<!-- 17 -->
<g id="node19" class="node">
<title>17</title>
<ellipse fill="none" stroke="#000000" cx="175.5147" cy="-404.7317" rx="27" ry="18"/>
<text text-anchor="middle" x="175.5147" y="-400.5317" font-family="Times,serif" font-size="14.00" fill="#000000">17</text>
</g>
<!-- 17&#45;&#45;11 -->
<g id="edge25" class="edge">
<title>17--11</title>
<path fill="none" stroke="#000000" d="M149.3677,-409.6417C143.1671,-410.8062 136.5526,-412.0483 130.3521,-413.2127"/>
<text text-anchor="middle" x="139.8599" y="-398.8272" font-family="Times,serif" font-size="14.00" fill="#000000">246</text>
</g>
<!-- 17&#45;&#45;12 -->
<g id="edge23" class="edge">
<title>17--12</title>
<path fill="none" stroke="#000000" d="M174.5688,-386.5992C173.8375,-372.5825 172.83,-353.2711 172.0992,-339.2633"/>
<text text-anchor="middle" x="166.334" y="-367.1313" font-family="Times,serif" font-size="14.00" fill="#000000">88</text>
</g>
<!-- 17&#45;&#45;16 -->
<g id="edge24" class="edge">
<title>17--16</title>
<path fill="none" stroke="#000000" d="M172.0195,-422.8684C170.0088,-433.302 167.4895,-446.3746 165.4729,-456.8388"/>
<text text-anchor="middle" x="158.2462" y="-444.0536" font-family="Times,serif" font-size="14.00" fill="#000000">168</text>
</g>
<!-- 18 -->
<g id="node20" class="node">
<title>18</title>
<ellipse fill="none" stroke="#000000" cx="257.4934" cy="-321.5263" rx="27" ry="18"/>
<text text-anchor="middle" x="257.4934" y="-317.3263" font-family="Times,serif" font-size="14.00" fill="#000000">18</text>
</g>
<!-- 18&#45;&#45;12 -->
<g id="edge27" class="edge">
<title>18--12</title>
<path fill="none" stroke="#000000" d="M230.1754,-321.4124C219.9983,-321.37 208.4564,-321.3218 198.2953,-321.2794"/>
<text text-anchor="middle" x="219.4853" y="-308.7459" font-family="Times,serif" font-size="14.00" fill="#000000">104</text>
</g>
<!-- 18&#45;&#45;13 -->
<g id="edge26" class="edge">
<title>18--13</title>
<path fill="none" stroke="#000000" d="M256.961,-303.1963C256.5322,-288.4294 255.9326,-267.7819 255.5063,-253.1015"/>
<text text-anchor="middle" x="249.2337" y="-282.3489" font-family="Times,serif" font-size="14.00" fill="#000000">76</text>
</g>
<!-- 19 -->
<g id="node21" class="node">
<title>19</title>
<ellipse fill="none" stroke="#000000" cx="341.3734" cy="-234.8909" rx="27" ry="18"/>
<text text-anchor="middle" x="341.3734" y="-230.6909" font-family="Times,serif" font-size="14.00" fill="#000000">19</text>
</g>
<!-- 19&#45;&#45;13 -->
<g id="edge29" class="edge">
<title>19--13</title>
<path fill="none" stroke="#000000" d="M314.0391,-234.9553C303.8559,-234.9792 292.307,-235.0064 282.1399,-235.0304"/>
<text text-anchor="middle" x="291.0895" y="-239.1928" font-family="Times,serif" font-size="14.00" fill="#000000">48</text>
</g>
<!-- 19&#45;&#45;14 -->
<g id="edge28" class="edge">
<title>19--14</title>
<path fill="none" stroke="#000000" d="M340.7584,-216.5793C340.2663,-201.9263 339.5795,-181.4771 339.0876,-166.831"/>
<text text-anchor="middle" x="329.423" y="-195.9052" font-family="Times,serif" font-size="14.00" fill="#000000">158</text>
</g>
<!-- 20 -->
<g id="node22" class="node">
<title>20</title>
<ellipse fill="none" stroke="#000000" cx="422.0813" cy="-150.1519" rx="27" ry="18"/>
<text text-anchor="middle" x="422.0813" y="-145.9519" font-family="Times,serif" font-size="14.00" fill="#000000">20</text>
</g>
<!-- 20&#45;&#45;14 -->
<g id="edge31" class="edge">
<title>20--14</title>
<path fill="none" stroke="#000000" d="M394.705,-149.626C385.3706,-149.4467 374.9424,-149.2464 365.6258,-149.0674"/>
<text text-anchor="middle" x="385.4154" y="-136.7467" font-family="Times,serif" font-size="14.00" fill="#000000">242</text>
</g>
<!-- 20&#45;&#45;15 -->
<g id="edge30" class="edge">
<title>20--15</title>
<path fill="none" stroke="#000000" d="M424.9064,-132.0304C426.5906,-121.2271 428.7227,-107.5502 430.4136,-96.7041"/>
<text text-anchor="middle" x="417.16" y="-118.5672" font-family="Times,serif" font-size="14.00" fill="#000000">272</text>
</g>
<!-- 21 -->
<g id="node23" class="node">
<title>21</title>
<ellipse fill="none" stroke="#000000" cx="492.0378" cy="-133.9802" rx="27" ry="18"/>
<text text-anchor="middle" x="492.0378" y="-129.7802" font-family="Times,serif" font-size="14.00" fill="#000000">21</text>
</g>
<!-- 21&#45;&#45;15 -->
<g id="edge33" class="edge">
<title>21--15</title>
<path fill="none" stroke="#000000" d="M476.2909,-119.0693C467.86,-111.0859 457.5046,-101.2802 449.0671,-93.2906"/>
<text text-anchor="middle" x="452.179" y="-110.3799" font-family="Times,serif" font-size="14.00" fill="#000000">458</text>
</g>
<!-- 21&#45;&#45;20 -->
<g id="edge32" class="edge">
<title>21--20</title>
<path fill="none" stroke="#000000" d="M466.3858,-139.9101C460.3026,-141.3164 453.8133,-142.8165 447.7302,-144.2227"/>
<text text-anchor="middle" x="457.058" y="-129.4664" font-family="Times,serif" font-size="14.00" fill="#000000">154</text>
</g>
<!-- 22 -->
<g id="node24" class="node">
<title>22</title>
<ellipse fill="none" stroke="#000000" cx="250.6014" cy="-487.2108" rx="27" ry="18"/>
<text text-anchor="middle" x="250.6014" y="-483.0108" font-family="Times,serif" font-size="14.00" fill="#000000">22</text>
</g>
<!-- 22&#45;&#45;16 -->
<g id="edge34" class="edge">
<title>22--16</title>
<path fill="none" stroke="#000000" d="M224.0007,-483.5949C212.7794,-482.0695 199.7435,-480.2974 188.5242,-478.7723"/>
<text text-anchor="middle" x="211.5125" y="-468.5836" font-family="Times,serif" font-size="14.00" fill="#000000">208</text>
</g>
<!-- 23 -->
<g id="node25" class="node">
<title>23</title>
<ellipse fill="none" stroke="#000000" cx="259.6384" cy="-407.4941" rx="27" ry="18"/>
<text text-anchor="middle" x="259.6384" y="-403.2941" font-family="Times,serif" font-size="14.00" fill="#000000">23</text>
</g>
<!-- 23&#45;&#45;17 -->
<g id="edge37" class="edge">
<title>23--17</title>
<path fill="none" stroke="#000000" d="M232.5581,-406.6049C222.9518,-406.2894 212.1463,-405.9346 202.5443,-405.6193"/>
<text text-anchor="middle" x="210.5512" y="-410.3121" font-family="Times,serif" font-size="14.00" fill="#000000">36</text>
</g>
<!-- 23&#45;&#45;18 -->
<g id="edge35" class="edge">
<title>23--18</title>
<path fill="none" stroke="#000000" d="M259.1835,-389.2626C258.8195,-374.6736 258.3114,-354.3137 257.9476,-339.7316"/>
<text text-anchor="middle" x="248.0655" y="-368.6971" font-family="Times,serif" font-size="14.00" fill="#000000">112</text>
</g>
<!-- 23&#45;&#45;22 -->
<g id="edge36" class="edge">
<title>23--22</title>
<path fill="none" stroke="#000000" d="M257.5877,-425.5831C256.1088,-438.6292 254.121,-456.1638 252.6439,-469.1935"/>
<text text-anchor="middle" x="244.6158" y="-451.5883" font-family="Times,serif" font-size="14.00" fill="#000000">104</text>
</g>
<!-- 24 -->
<g id="node26" class="node">
<title>24</title>
<ellipse fill="none" stroke="#000000" cx="344.0355" cy="-321.4411" rx="27" ry="18"/>
<text text-anchor="middle" x="344.0355" y="-317.2411" font-family="Times,serif" font-size="14.00" fill="#000000">24</text>
</g>
<!-- 24&#45;&#45;18 -->
<g id="edge39" class="edge">
<title>24--18</title>
<path fill="none" stroke="#000000" d="M316.653,-321.4681C306.452,-321.4781 294.8828,-321.4895 284.6977,-321.4995"/>
<text text-anchor="middle" x="305.9254" y="-308.8838" font-family="Times,serif" font-size="14.00" fill="#000000">144</text>
</g>
<!-- 24&#45;&#45;19 -->
<g id="edge38" class="edge">
<title>24--19</title>
<path fill="none" stroke="#000000" d="M343.471,-303.086C343.0161,-288.2989 342.3802,-267.6231 341.928,-252.9227"/>
<text text-anchor="middle" x="332.1995" y="-282.2044" font-family="Times,serif" font-size="14.00" fill="#000000">108</text>
</g>
<!-- 25 -->
<g id="node27" class="node">
<title>25</title>
<ellipse fill="none" stroke="#000000" cx="427.3109" cy="-234.1843" rx="27" ry="18"/>
<text text-anchor="middle" x="427.3109" y="-229.9843" font-family="Times,serif" font-size="14.00" fill="#000000">25</text>
</g>
<!-- 25&#45;&#45;19 -->
<g id="edge41" class="edge">
<title>25--19</title>
<path fill="none" stroke="#000000" d="M400.1197,-234.4079C389.9899,-234.4912 378.5016,-234.5856 368.3877,-234.6688"/>
<text text-anchor="middle" x="389.5037" y="-221.9383" font-family="Times,serif" font-size="14.00" fill="#000000">248</text>
</g>
<!-- 25&#45;&#45;20 -->
<g id="edge40" class="edge">
<title>25--20</title>
<path fill="none" stroke="#000000" d="M426.1761,-215.9505C425.299,-201.8555 424.0904,-182.4362 423.2138,-168.3501"/>
<text text-anchor="middle" x="414.195" y="-196.3503" font-family="Times,serif" font-size="14.00" fill="#000000">104</text>
</g>
<!-- 26 -->
<g id="node28" class="node">
<title>26</title>
<ellipse fill="none" stroke="#000000" cx="506.7244" cy="-222.0112" rx="27" ry="18"/>
<text text-anchor="middle" x="506.7244" y="-217.8112" font-family="Times,serif" font-size="14.00" fill="#000000">26</text>
</g>
<!-- 26&#45;&#45;21 -->
<g id="edge43" class="edge">
<title>26--21</title>
<path fill="none" stroke="#000000" d="M503.6813,-203.7711C501.1439,-188.5621 497.5489,-167.0136 495.0267,-151.8957"/>
<text text-anchor="middle" x="488.854" y="-182.0334" font-family="Times,serif" font-size="14.00" fill="#000000">200</text>
</g>
<!-- 26&#45;&#45;25 -->
<g id="edge42" class="edge">
<title>26--25</title>
<path fill="none" stroke="#000000" d="M480.2808,-226.0647C471.708,-227.3788 462.2033,-228.8357 453.6389,-230.1485"/>
<text text-anchor="middle" x="470.4599" y="-215.5066" font-family="Times,serif" font-size="14.00" fill="#000000">82</text>
</g>
<!-- 27 -->
<g id="node29" class="node">
<title>27</title>
<ellipse fill="none" stroke="#000000" cx="339.2339" cy="-490.3423" rx="27" ry="18"/>
<text text-anchor="middle" x="339.2339" y="-486.1423" font-family="Times,serif" font-size="14.00" fill="#000000">27</text>
</g>
<!-- 27&#45;&#45;22 -->
<g id="edge44" class="edge">
<title>27--22</title>
<path fill="none" stroke="#000000" d="M312.1596,-489.3857C301.2652,-489.0008 288.7237,-488.5577 277.8153,-488.1723"/>
<text text-anchor="middle" x="300.2375" y="-476.179" font-family="Times,serif" font-size="14.00" fill="#000000">214</text>
</g>
<!-- 28 -->
<g id="node30" class="node">
<title>28</title>
<ellipse fill="none" stroke="#000000" cx="345.1653" cy="-407.7995" rx="27" ry="18"/>
<text text-anchor="middle" x="345.1653" y="-403.5995" font-family="Times,serif" font-size="14.00" fill="#000000">28</text>
</g>
<!-- 28&#45;&#45;23 -->
<g id="edge47" class="edge">
<title>28--23</title>
<path fill="none" stroke="#000000" d="M318.1041,-407.7029C308.1205,-407.6673 296.811,-407.6269 286.8172,-407.5912"/>
<text text-anchor="middle" x="307.7106" y="-395.047" font-family="Times,serif" font-size="14.00" fill="#000000">214</text>
</g>
<!-- 28&#45;&#45;24 -->
<g id="edge45" class="edge">
<title>28--24</title>
<path fill="none" stroke="#000000" d="M344.9257,-389.4851C344.734,-374.8298 344.4664,-354.3774 344.2748,-339.7291"/>
<text text-anchor="middle" x="337.6002" y="-368.8071" font-family="Times,serif" font-size="14.00" fill="#000000">74</text>
</g>
<!-- 28&#45;&#45;27 -->
<g id="edge46" class="edge">
<title>28--27</title>
<path fill="none" stroke="#000000" d="M343.8489,-426.1184C342.8592,-439.8922 341.5101,-458.6669 340.5262,-472.3586"/>
<text text-anchor="middle" x="331.6876" y="-453.4385" font-family="Times,serif" font-size="14.00" fill="#000000">100</text>
</g>
<!-- 29 -->
<g id="node31" class="node">
<title>29</title>
<ellipse fill="none" stroke="#000000" cx="430.3521" cy="-319.6758" rx="27" ry="18"/>
<text text-anchor="middle" x="430.3521" y="-315.4758" font-family="Times,serif" font-size="14.00" fill="#000000">29</text>
</g>
<!-- 29&#45;&#45;24 -->
<g id="edge49" class="edge">
<title>29--24</title>
<path fill="none" stroke="#000000" d="M403.041,-320.2344C392.8665,-320.4424 381.3275,-320.6784 371.169,-320.8862"/>
<text text-anchor="middle" x="392.355" y="-307.9603" font-family="Times,serif" font-size="14.00" fill="#000000">150</text>
</g>
<!-- 29&#45;&#45;25 -->
<g id="edge48" class="edge">
<title>29--25</title>
<path fill="none" stroke="#000000" d="M429.7072,-301.5453C429.1911,-287.0371 428.4708,-266.79 427.9549,-252.2887"/>
<text text-anchor="middle" x="421.831" y="-281.117" font-family="Times,serif" font-size="14.00" fill="#000000">82</text>
</g>
<!-- 30 -->
<g id="node32" class="node">
<title>30</title>
<ellipse fill="none" stroke="#000000" cx="512.7341" cy="-310.1823" rx="27" ry="18"/>
<text text-anchor="middle" x="512.7341" y="-305.9823" font-family="Times,serif" font-size="14.00" fill="#000000">30</text>
</g>
<!-- 30&#45;&#45;26 -->
<g id="edge51" class="edge">
<title>30--26</title>
<path fill="none" stroke="#000000" d="M511.4889,-291.9132C510.4575,-276.7809 508.999,-255.3828 507.968,-240.2569"/>
<text text-anchor="middle" x="499.2284" y="-270.2851" font-family="Times,serif" font-size="14.00" fill="#000000">118</text>
</g>
<!-- 30&#45;&#45;29 -->
<g id="edge50" class="edge">
<title>30--29</title>
<path fill="none" stroke="#000000" d="M485.7592,-313.2909C476.5617,-314.3507 466.2864,-315.5348 457.1063,-316.5927"/>
<text text-anchor="middle" x="464.4327" y="-319.1418" font-family="Times,serif" font-size="14.00" fill="#000000">86</text>
</g>
<!-- 31&#45;&#45;27 -->
<g id="edge52" class="edge">
<title>31--27</title>
<path fill="none" stroke="#000000" d="M399.4448,-489.3301C388.9242,-489.5069 376.9046,-489.709 366.3855,-489.8858"/>
<text text-anchor="middle" x="388.1652" y="-477.0079" font-family="Times,serif" font-size="14.00" fill="#000000">120</text>
</g>
<!-- 32 -->
<g id="node34" class="node">
<title>32</title>
<ellipse fill="none" stroke="#000000" cx="430.9284" cy="-405.4906" rx="27" ry="18"/>
<text text-anchor="middle" x="430.9284" y="-401.2906" font-family="Times,serif" font-size="14.00" fill="#000000">32</text>
</g>
<!-- 32&#45;&#45;28 -->
<g id="edge55" class="edge">
<title>32--28</title>
<path fill="none" stroke="#000000" d="M403.7924,-406.2212C393.7813,-406.4907 382.4406,-406.796 372.4191,-407.0658"/>
<text text-anchor="middle" x="393.3558" y="-394.0435" font-family="Times,serif" font-size="14.00" fill="#000000">108</text>
</g>
<!-- 32&#45;&#45;29 -->
<g id="edge53" class="edge">
<title>32--29</title>
<path fill="none" stroke="#000000" d="M430.8062,-387.2915C430.7084,-372.7284 430.5719,-352.4048 430.4742,-337.8487"/>
<text text-anchor="middle" x="420.1402" y="-366.7701" font-family="Times,serif" font-size="14.00" fill="#000000">104</text>
</g>
<!-- 32&#45;&#45;31 -->
<g id="edge54" class="edge">
<title>32--31</title>
<path fill="none" stroke="#000000" d="M429.9921,-423.5834C429.2683,-437.5695 428.271,-456.8387 427.5477,-470.8158"/>
<text text-anchor="middle" x="418.2699" y="-451.3996" font-family="Times,serif" font-size="14.00" fill="#000000">292</text>
</g>
<!-- 33&#45;&#45;30 -->
<g id="edge57" class="edge">
<title>33--30</title>
<path fill="none" stroke="#000000" d="M513.9731,-379.1243C513.7067,-364.2992 513.3307,-343.3767 513.0629,-328.4766"/>
<text text-anchor="middle" x="503.018" y="-358.0004" font-family="Times,serif" font-size="14.00" fill="#000000">196</text>
</g>
<!-- 33&#45;&#45;32 -->
<g id="edge56" class="edge">
<title>33--32</title>
<path fill="none" stroke="#000000" d="M487.4597,-399.8298C477.9397,-400.7831 467.2312,-401.8554 457.7154,-402.8083"/>
<text text-anchor="middle" x="465.5875" y="-405.519" font-family="Times,serif" font-size="14.00" fill="#000000">86</text>
</g>
</g>
</svg>