<?xml version="1.0" encoding="UTF-8" standalone="no"?>
<!DOCTYPE svg PUBLIC "-//W3C//DTD SVG 1.1//EN" "http://www.w3.org/Graphics/SVG/1.1/DTD/svg11.dtd">
<!-- Generated by graphviz version 2.40.1 (20161225.0304)
 -->
<!-- Title: %0 Pages: 1 -->
<svg width="431pt" height="932pt" viewBox="0.00 0.00 431.00 932.00" xmlns="http://www.w3.org/2000/svg" xmlns:xlink="http://www.w3.org/1999/xlink">
<g id="graph0" class="graph" transform="scale(1 1) rotate(0) translate(4 928)">
<title>%0</title>
<polygon fill="#ffffff" stroke="transparent" points="-4,4 -4,-928 427,-928 427,4 -4,4"/>
<!-- 0 -->
<g id="node1" class="node">
<title>0</title>
<ellipse fill="none" stroke="#00ff00" cx="196" cy="-906" rx="41.1672" ry="18"/>
<text text-anchor="middle" x="196" y="-901.8" font-family="Times,serif" font-size="14.00" fill="#000000">0 (start)</text>
</g>
<!-- 1 -->
<g id="node2" class="node">
<title>1</title>
<ellipse fill="none" stroke="#000000" cx="196" cy="-817.2" rx="27" ry="18"/>
<text text-anchor="middle" x="196" y="-813" font-family="Times,serif" font-size="14.00" fill="#000000">1</text>
</g>
<!-- 0&#45;&gt;1 -->
<g id="edge1" class="edge">
<title>0-&gt;1</title>
<path fill="none" stroke="#000000" d="M196,-887.6006C196,-875.4949 196,-859.4076 196,-845.6674"/>
<polygon fill="#000000" stroke="#000000" points="199.5001,-845.272 196,-835.272 192.5001,-845.2721 199.5001,-845.272"/>
<text text-anchor="middle" x="206.5" y="-857.4" font-family="Times,serif" font-size="14.00" fill="#000000">105</text>
</g>
<!-- 2 -->
<g id="node3" class="node">
<title>2</title>
<ellipse fill="none" stroke="#000000" cx="160" cy="-728.4" rx="27" ry="18"/>
<text text-anchor="middle" x="160" y="-724.2" font-family="Times,serif" font-size="14.00" fill="#000000">2</text>
</g>
<!-- 1&#45;&gt;2 -->
<g id="edge2" class="edge">
<title>1-&gt;2</title>
<path fill="none" stroke="#000000" d="M188.8876,-799.656C183.7596,-787.0071 176.7433,-769.7002 170.9097,-755.3105"/>
<polygon fill="#000000" stroke="#000000" points="174.0984,-753.86 167.0977,-745.9076 167.6112,-756.49 174.0984,-753.86"/>
<text text-anchor="middle" x="191.5" y="-768.6" font-family="Times,serif" font-size="14.00" fill="#000000">370</text>
</g>
<!-- 3 -->
<g id="node4" class="node">
<title>3</title>
<ellipse fill="none" stroke="#000000" cx="232" cy="-728.4" rx="27" ry="18"/>
<text text-anchor="middle" x="232" y="-724.2" font-family="Times,serif" font-size="14.00" fill="#000000">3</text>
</g>
<!-- 1&#45;&gt;3 -->
<g id="edge3" class="edge">
<title>1-&gt;3</title>
<path fill="none" stroke="#000000" d="M203.1124,-799.656C208.2404,-787.0071 215.2567,-769.7002 221.0903,-755.3105"/>
<polygon fill="#000000" stroke="#000000" points="224.3888,-756.49 224.9023,-745.9076 217.9016,-753.86 224.3888,-756.49"/>
<text text-anchor="middle" x="224" y="-768.6" font-family="Times,serif" font-size="14.00" fill="#000000">58</text>
</g>
<!-- 4 -->
<g id="node5" class="node">
<title>4</title>
<ellipse fill="none" stroke="#000000" cx="120" cy="-639.6" rx="27" ry="18"/>
<text text-anchor="middle" x="120" y="-635.4" font-family="Times,serif" font-size="14.00" fill="#000000">4</text>
</g>
<!-- 2&#45;&gt;4 -->
<g id="edge4" class="edge">
<title>2-&gt;4</title>
<path fill="none" stroke="#000000" d="M152.0973,-710.856C146.3996,-698.2071 138.6037,-680.9002 132.1219,-666.5105"/>
<polygon fill="#000000" stroke="#000000" points="135.1846,-664.7878 127.8863,-657.1076 128.8022,-667.6628 135.1846,-664.7878"/>
<text text-anchor="middle" x="153.5" y="-679.8" font-family="Times,serif" font-size="14.00" fill="#000000">180</text>
</g>
<!-- 5 -->
<g id="node6" class="node">
<title>5</title>
<ellipse fill="none" stroke="#000000" cx="192" cy="-639.6" rx="27" ry="18"/>
<text text-anchor="middle" x="192" y="-635.4" font-family="Times,serif" font-size="14.00" fill="#000000">5</text>
</g>
<!-- 2&#45;&gt;5 -->
<g id="edge5" class="edge">
<title>2-&gt;5</title>
<path fill="none" stroke="#000000" d="M164.286,-710.565C166.9646,-700.2201 170.7146,-687.0201 175,-675.6 176.1656,-672.4938 177.4917,-669.2868 178.8773,-666.126"/>
<polygon fill="#000000" stroke="#000000" points="182.1085,-667.4766 183.1108,-656.9293 175.7499,-664.5495 182.1085,-667.4766"/>
<text text-anchor="middle" x="185.5" y="-679.8" font-family="Times,serif" font-size="14.00" fill="#000000">104</text>
</g>
<!-- 3&#45;&gt;5 -->
<g id="edge6" class="edge">
<title>3-&gt;5</title>
<path fill="none" stroke="#000000" d="M224.0973,-710.856C218.3996,-698.2071 210.6037,-680.9002 204.1219,-666.5105"/>
<polygon fill="#000000" stroke="#000000" points="207.1846,-664.7878 199.8863,-657.1076 200.8022,-667.6628 207.1846,-664.7878"/>
<text text-anchor="middle" x="225.5" y="-679.8" font-family="Times,serif" font-size="14.00" fill="#000000">244</text>
</g>
<!-- 6 -->
<g id="node7" class="node">
<title>6</title>
<ellipse fill="none" stroke="#000000" cx="264" cy="-639.6" rx="27" ry="18"/>
<text text-anchor="middle" x="264" y="-635.4" font-family="Times,serif" font-size="14.00" fill="#000000">6</text>
</g>
<!-- 3&#45;&gt;6 -->
<g id="edge7" class="edge">
<title>3-&gt;6</title>
<path fill="none" stroke="#000000" d="M238.3222,-710.856C242.8365,-698.3287 248.9972,-681.2326 254.1526,-666.9264"/>
<polygon fill="#000000" stroke="#000000" points="257.5934,-667.702 257.691,-657.1076 251.008,-665.3288 257.5934,-667.702"/>
<text text-anchor="middle" x="260.5" y="-679.8" font-family="Times,serif" font-size="14.00" fill="#000000">204</text>
</g>
<!-- 7 -->
<g id="node8" class="node">
<title>7</title>
<ellipse fill="none" stroke="#000000" cx="76" cy="-550.8" rx="27" ry="18"/>
<text text-anchor="middle" x="76" y="-546.6" font-family="Times,serif" font-size="14.00" fill="#000000">7</text>
</g>
<!-- 4&#45;&gt;7 -->
<g id="edge8" class="edge">
<title>4-&gt;7</title>
<path fill="none" stroke="#000000" d="M111.5164,-622.4785C105.1659,-609.6622 96.3624,-591.8949 89.109,-577.2563"/>
<polygon fill="#000000" stroke="#000000" points="92.1837,-575.5784 84.6077,-568.172 85.9115,-578.6863 92.1837,-575.5784"/>
<text text-anchor="middle" x="111.5" y="-591" font-family="Times,serif" font-size="14.00" fill="#000000">148</text>
</g>
<!-- 8 -->
<g id="node9" class="node">
<title>8</title>
<ellipse fill="none" stroke="#000000" cx="149" cy="-550.8" rx="27" ry="18"/>
<text text-anchor="middle" x="149" y="-546.6" font-family="Times,serif" font-size="14.00" fill="#000000">8</text>
</g>
<!-- 4&#45;&gt;8 -->
<g id="edge9" class="edge">
<title>4-&gt;8</title>
<path fill="none" stroke="#000000" d="M123.672,-621.2875C125.9382,-611.0204 129.1476,-598.0538 133,-586.8 134.0633,-583.694 135.2903,-580.4871 136.5823,-577.3264"/>
<polygon fill="#000000" stroke="#000000" points="139.8024,-578.6978 140.5545,-568.1297 133.3762,-575.9222 139.8024,-578.6978"/>
<text text-anchor="middle" x="143.5" y="-591" font-family="Times,serif" font-size="14.00" fill="#000000">118</text>
</g>
<!-- 5&#45;&gt;8 -->
<g id="edge10" class="edge">
<title>5-&gt;8</title>
<path fill="none" stroke="#000000" d="M183.5046,-622.056C177.2805,-609.2025 168.7274,-591.5393 161.6941,-577.0148"/>
<polygon fill="#000000" stroke="#000000" points="164.8399,-575.4803 157.3315,-568.0054 158.5397,-578.5311 164.8399,-575.4803"/>
<text text-anchor="middle" x="181" y="-591" font-family="Times,serif" font-size="14.00" fill="#000000">90</text>
</g>
<!-- 9 -->
<g id="node10" class="node">
<title>9</title>
<ellipse fill="none" stroke="#000000" cx="223" cy="-550.8" rx="27" ry="18"/>
<text text-anchor="middle" x="223" y="-546.6" font-family="Times,serif" font-size="14.00" fill="#000000">9</text>
</g>
<!-- 5&#45;&gt;9 -->
<g id="edge11" class="edge">
<title>5-&gt;9</title>
<path fill="none" stroke="#000000" d="M198.1246,-622.056C202.4695,-609.6101 208.3886,-592.6545 213.363,-578.4055"/>
<polygon fill="#000000" stroke="#000000" points="216.7905,-579.2064 216.782,-568.6115 210.1816,-576.8992 216.7905,-579.2064"/>
<text text-anchor="middle" x="217" y="-591" font-family="Times,serif" font-size="14.00" fill="#000000">56</text>
</g>
<!-- 6&#45;&gt;9 -->
<g id="edge12" class="edge">
<title>6-&gt;9</title>
<path fill="none" stroke="#000000" d="M255.8997,-622.056C250.0217,-609.325 241.9649,-591.8753 235.2957,-577.4306"/>
<polygon fill="#000000" stroke="#000000" points="238.3135,-575.6172 230.9439,-568.0054 231.9582,-578.5516 238.3135,-575.6172"/>
<text text-anchor="middle" x="257.5" y="-591" font-family="Times,serif" font-size="14.00" fill="#000000">236</text>
</g>
<!-- 10 -->
<g id="node11" class="node">
<title>10</title>
<ellipse fill="none" stroke="#000000" cx="296" cy="-550.8" rx="27" ry="18"/>
<text text-anchor="middle" x="296" y="-546.6" font-family="Times,serif" font-size="14.00" fill="#000000">10</text>
</g>
<!-- 6&#45;&gt;10 -->
<g id="edge13" class="edge">
<title>6-&gt;10</title>
<path fill="none" stroke="#000000" d="M270.3222,-622.056C274.8365,-609.5287 280.9972,-592.4326 286.1526,-578.1264"/>
<polygon fill="#000000" stroke="#000000" points="289.5934,-578.902 289.691,-568.3076 283.008,-576.5288 289.5934,-578.902"/>
<text text-anchor="middle" x="292.5" y="-591" font-family="Times,serif" font-size="14.00" fill="#000000">148</text>
</g>
<!-- 11 -->
<g id="node12" class="node">
<title>11</title>
<ellipse fill="none" stroke="#000000" cx="32" cy="-462" rx="27" ry="18"/>
<text text-anchor="middle" x="32" y="-457.8" font-family="Times,serif" font-size="14.00" fill="#000000">11</text>
</g>
<!-- 7&#45;&gt;11 -->
<g id="edge14" class="edge">
<title>7-&gt;11</title>
<path fill="none" stroke="#000000" d="M61.8235,-535.1776C56.9117,-529.1443 51.7125,-521.9724 48,-514.8 44.0373,-507.1443 40.8833,-498.3456 38.4593,-490.1539"/>
<polygon fill="#000000" stroke="#000000" points="41.7652,-488.9715 35.7731,-480.2339 35.0085,-490.8011 41.7652,-488.9715"/>
<text text-anchor="middle" x="58.5" y="-502.2" font-family="Times,serif" font-size="14.00" fill="#000000">112</text>
</g>
<!-- 12 -->
<g id="node13" class="node">
<title>12</title>
<ellipse fill="none" stroke="#000000" cx="112" cy="-462" rx="27" ry="18"/>
<text text-anchor="middle" x="112" y="-457.8" font-family="Times,serif" font-size="14.00" fill="#000000">12</text>
</g>
<!-- 7&#45;&gt;12 -->
<g id="edge15" class="edge">
<title>7-&gt;12</title>
<path fill="none" stroke="#000000" d="M73.1121,-532.5234C72.2327,-522.0312 72.4827,-508.8312 77,-498 79.3215,-492.4337 82.9446,-487.2466 86.9963,-482.6403"/>
<polygon fill="#000000" stroke="#000000" points="89.5357,-485.0499 94.0653,-475.4722 84.5516,-480.1347 89.5357,-485.0499"/>
<text text-anchor="middle" x="87.5" y="-502.2" font-family="Times,serif" font-size="14.00" fill="#000000">238</text>
</g>
<!-- 8&#45;&gt;12 -->
<g id="edge16" class="edge">
<title>8-&gt;12</title>
<path fill="none" stroke="#000000" d="M134.3276,-535.4149C129.3622,-529.4073 124.2558,-522.1909 121,-514.8 117.6262,-507.1412 115.5122,-498.3416 114.1893,-490.1499"/>
<polygon fill="#000000" stroke="#000000" points="117.6599,-489.6966 112.9013,-480.2306 110.7181,-490.5981 117.6599,-489.6966"/>
<text text-anchor="middle" x="131.5" y="-502.2" font-family="Times,serif" font-size="14.00" fill="#000000">104</text>
</g>
<!-- 13 -->
<g id="node14" class="node">
<title>13</title>
<ellipse fill="none" stroke="#000000" cx="187" cy="-462" rx="27" ry="18"/>
<text text-anchor="middle" x="187" y="-457.8" font-family="Times,serif" font-size="14.00" fill="#000000">13</text>
</g>
<!-- 8&#45;&gt;13 -->
<g id="edge17" class="edge">
<title>8-&gt;13</title>
<path fill="none" stroke="#000000" d="M156.5076,-533.256C161.9204,-520.6071 169.3265,-503.3002 175.4842,-488.9105"/>
<polygon fill="#000000" stroke="#000000" points="178.7915,-490.0782 179.508,-479.5076 172.356,-487.3242 178.7915,-490.0782"/>
<text text-anchor="middle" x="181.5" y="-502.2" font-family="Times,serif" font-size="14.00" fill="#000000">124</text>
</g>
<!-- 9&#45;&gt;13 -->
<g id="edge18" class="edge">
<title>9-&gt;13</title>
<path fill="none" stroke="#000000" d="M215.8876,-533.256C210.7596,-520.6071 203.7433,-503.3002 197.9097,-488.9105"/>
<polygon fill="#000000" stroke="#000000" points="201.0984,-487.46 194.0977,-479.5076 194.6112,-490.09 201.0984,-487.46"/>
<text text-anchor="middle" x="218.5" y="-502.2" font-family="Times,serif" font-size="14.00" fill="#000000">158</text>
</g>
<!-- 14 -->
<g id="node15" class="node">
<title>14</title>
<ellipse fill="none" stroke="#000000" cx="265" cy="-462" rx="27" ry="18"/>
<text text-anchor="middle" x="265" y="-457.8" font-family="Times,serif" font-size="14.00" fill="#000000">14</text>
</g>
<!-- 9&#45;&gt;14 -->
<g id="edge19" class="edge">
<title>9-&gt;14</title>
<path fill="none" stroke="#000000" d="M231.2978,-533.256C237.3193,-520.525 245.5725,-503.0753 252.4045,-488.6306"/>
<polygon fill="#000000" stroke="#000000" points="255.7506,-489.7418 256.8623,-479.2054 249.4227,-486.7488 255.7506,-489.7418"/>
<text text-anchor="middle" x="257.5" y="-502.2" font-family="Times,serif" font-size="14.00" fill="#000000">124</text>
</g>
<!-- 10&#45;&gt;14 -->
<g id="edge20" class="edge">
<title>10-&gt;14</title>
<path fill="none" stroke="#000000" d="M289.8754,-533.256C285.5305,-520.8101 279.6114,-503.8545 274.637,-489.6055"/>
<polygon fill="#000000" stroke="#000000" points="277.8184,-488.0992 271.218,-479.8115 271.2095,-490.4064 277.8184,-488.0992"/>
<text text-anchor="middle" x="293.5" y="-502.2" font-family="Times,serif" font-size="14.00" fill="#000000">144</text>
</g>
<!-- 15 -->
<g id="node16" class="node">
<title>15</title>
<ellipse fill="none" stroke="#000000" cx="340" cy="-462" rx="27" ry="18"/>
<text text-anchor="middle" x="340" y="-457.8" font-family="Times,serif" font-size="14.00" fill="#000000">15</text>
</g>
<!-- 10&#45;&gt;15 -->
<g id="edge21" class="edge">
<title>10-&gt;15</title>
<path fill="none" stroke="#000000" d="M304.4836,-533.6785C310.8341,-520.8622 319.6376,-503.0949 326.891,-488.4563"/>
<polygon fill="#000000" stroke="#000000" points="330.0885,-489.8863 331.3923,-479.372 323.8163,-486.7784 330.0885,-489.8863"/>
<text text-anchor="middle" x="331.5" y="-502.2" font-family="Times,serif" font-size="14.00" fill="#000000">122</text>
</g>
<!-- 16 -->
<g id="node17" class="node">
<title>16</title>
<ellipse fill="none" stroke="#ff0000" cx="193" cy="-18" rx="51.5426" ry="18"/>
<text text-anchor="middle" x="193" y="-13.8" font-family="Times,serif" font-size="14.00" fill="#000000">16 (target)</text>
</g>
<!-- 11&#45;&gt;16 -->
<g id="edge22" class="edge">
<title>11-&gt;16</title>
<path fill="none" stroke="#000000" d="M21.875,-444.9644C12.5,-427.552 0,-399.4194 0,-373.2 0,-373.2 0,-373.2 0,-106.8 0,-72.268 26.7446,-70.6454 57,-54 80.9804,-40.8069 110.026,-32.2659 135.1074,-26.8322"/>
<polygon fill="#000000" stroke="#000000" points="136.1311,-30.1953 145.225,-24.7592 134.726,-23.3377 136.1311,-30.1953"/>
<text text-anchor="middle" x="14" y="-235.8" font-family="Times,serif" font-size="14.00" fill="#000000">1267</text>
</g>
<!-- 17 -->
<g id="node18" class="node">
<title>17</title>
<ellipse fill="none" stroke="#000000" cx="76" cy="-373.2" rx="27" ry="18"/>
<text text-anchor="middle" x="76" y="-369" font-family="Times,serif" font-size="14.00" fill="#000000">17</text>
</g>
<!-- 11&#45;&gt;17 -->
<g id="edge23" class="edge">
<title>11-&gt;17</title>
<path fill="none" stroke="#000000" d="M39.9195,-444.788C44.7457,-434.4229 51.1003,-420.9914 57,-409.2 58.5979,-406.0064 60.3053,-402.6709 62.0166,-399.3739"/>
<polygon fill="#000000" stroke="#000000" points="65.2129,-400.8152 66.7627,-390.3343 59.0152,-397.5612 65.2129,-400.8152"/>
<text text-anchor="middle" x="67.5" y="-413.4" font-family="Times,serif" font-size="14.00" fill="#000000">246</text>
</g>
<!-- 12&#45;&gt;17 -->
<g id="edge24" class="edge">
<title>12-&gt;17</title>
<path fill="none" stroke="#000000" d="M99.4281,-445.8766C95.2755,-439.9046 90.9648,-432.9017 88,-426 84.6607,-418.2265 82.1862,-409.3929 80.3811,-401.2053"/>
<polygon fill="#000000" stroke="#000000" points="83.7991,-400.4466 78.4381,-391.3083 76.9302,-401.7953 83.7991,-400.4466"/>
<text text-anchor="middle" x="95" y="-413.4" font-family="Times,serif" font-size="14.00" fill="#000000">88</text>
</g>
<!-- 18 -->
<g id="node19" class="node">
<title>18</title>
<ellipse fill="none" stroke="#000000" cx="148" cy="-373.2" rx="27" ry="18"/>
<text text-anchor="middle" x="148" y="-369" font-family="Times,serif" font-size="14.00" fill="#000000">18</text>
</g>
<!-- 12&#45;&gt;18 -->
<g id="edge25" class="edge">
<title>12-&gt;18</title>
<path fill="none" stroke="#000000" d="M117.4129,-444.1774C120.7172,-433.8366 125.2172,-420.6366 130,-409.2 131.3623,-405.9424 132.8882,-402.5682 134.4599,-399.2504"/>
<polygon fill="#000000" stroke="#000000" points="137.6419,-400.7109 138.9132,-390.1926 131.3601,-397.6224 137.6419,-400.7109"/>
<text text-anchor="middle" x="140.5" y="-413.4" font-family="Times,serif" font-size="14.00" fill="#000000">104</text>
</g>
<!-- 13&#45;&gt;18 -->
<g id="edge26" class="edge">
<title>13-&gt;18</title>
<path fill="none" stroke="#000000" d="M179.2949,-444.456C173.7396,-431.8071 166.1386,-414.5002 159.8188,-400.1105"/>
<polygon fill="#000000" stroke="#000000" points="162.9149,-398.456 155.6891,-390.7076 156.5058,-401.2709 162.9149,-398.456"/>
<text text-anchor="middle" x="177" y="-413.4" font-family="Times,serif" font-size="14.00" fill="#000000">76</text>
</g>
<!-- 19 -->
<g id="node20" class="node">
<title>19</title>
<ellipse fill="none" stroke="#000000" cx="220" cy="-373.2" rx="27" ry="18"/>
<text text-anchor="middle" x="220" y="-369" font-family="Times,serif" font-size="14.00" fill="#000000">19</text>
</g>
<!-- 13&#45;&gt;19 -->
<g id="edge27" class="edge">
<title>13-&gt;19</title>
<path fill="none" stroke="#000000" d="M193.5197,-444.456C198.2203,-431.8071 204.6519,-414.5002 209.9995,-400.1105"/>
<polygon fill="#000000" stroke="#000000" points="213.2911,-401.3005 213.4938,-390.7076 206.7295,-398.862 213.2911,-401.3005"/>
<text text-anchor="middle" x="213" y="-413.4" font-family="Times,serif" font-size="14.00" fill="#000000">48</text>
</g>
<!-- 14&#45;&gt;19 -->
<g id="edge28" class="edge">
<title>14-&gt;19</title>
<path fill="none" stroke="#000000" d="M256.3235,-444.8785C249.7869,-431.9795 240.7089,-414.0655 233.2635,-399.3734"/>
<polygon fill="#000000" stroke="#000000" points="236.2922,-397.6069 228.6498,-390.269 230.0481,-400.7711 236.2922,-397.6069"/>
<text text-anchor="middle" x="256.5" y="-413.4" font-family="Times,serif" font-size="14.00" fill="#000000">158</text>
</g>
<!-- 20 -->
<g id="node21" class="node">
<title>20</title>
<ellipse fill="none" stroke="#000000" cx="335" cy="-373.2" rx="27" ry="18"/>
<text text-anchor="middle" x="335" y="-369" font-family="Times,serif" font-size="14.00" fill="#000000">20</text>
</g>
<!-- 14&#45;&gt;20 -->
<g id="edge29" class="edge">
<title>14-&gt;20</title>
<path fill="none" stroke="#000000" d="M277.8391,-445.7127C288.4959,-432.1938 303.809,-412.768 315.904,-397.4247"/>
<polygon fill="#000000" stroke="#000000" points="318.8003,-399.4042 322.2423,-389.384 313.3029,-395.0706 318.8003,-399.4042"/>
<text text-anchor="middle" x="316.5" y="-413.4" font-family="Times,serif" font-size="14.00" fill="#000000">242</text>
</g>
<!-- 15&#45;&gt;16 -->
<g id="edge31" class="edge">
<title>15-&gt;16</title>
<path fill="none" stroke="#000000" d="M356.2043,-447.3602C372.428,-431.0193 395,-402.9401 395,-373.2 395,-373.2 395,-373.2 395,-106.8 395,-72.268 368.3828,-70.4117 338,-54 311.4756,-39.6725 279.1477,-30.9341 251.7534,-25.6631"/>
<polygon fill="#000000" stroke="#000000" points="252.3684,-22.2176 241.9039,-23.8741 251.1174,-29.1049 252.3684,-22.2176"/>
<text text-anchor="middle" x="409" y="-235.8" font-family="Times,serif" font-size="14.00" fill="#000000">1301</text>
</g>
<!-- 15&#45;&gt;20 -->
<g id="edge30" class="edge">
<title>15-&gt;20</title>
<path fill="none" stroke="#000000" d="M338.964,-443.6006C338.2756,-431.375 337.3586,-415.0887 336.58,-401.2599"/>
<polygon fill="#000000" stroke="#000000" points="340.0743,-401.0594 336.0176,-391.272 333.0854,-401.453 340.0743,-401.0594"/>
<text text-anchor="middle" x="347.5" y="-413.4" font-family="Times,serif" font-size="14.00" fill="#000000">272</text>
</g>
<!-- 17&#45;&gt;16 -->
<g id="edge32" class="edge">
<title>17-&gt;16</title>
<path fill="none" stroke="#000000" d="M66.5078,-356.0872C57.7188,-338.6147 46,-310.4363 46,-284.4 46,-284.4 46,-284.4 46,-106.8 46,-62.6352 95.2146,-39.8495 136.6914,-28.4884"/>
<polygon fill="#000000" stroke="#000000" points="137.6739,-31.8497 146.4883,-25.9712 135.9318,-25.0699 137.6739,-31.8497"/>
<text text-anchor="middle" x="60" y="-191.4" font-family="Times,serif" font-size="14.00" fill="#000000">1013</text>
</g>
<!-- 21 -->
<g id="node22" class="node">
<title>21</title>
<ellipse fill="none" stroke="#000000" cx="117" cy="-284.4" rx="27" ry="18"/>
<text text-anchor="middle" x="117" y="-280.2" font-family="Times,serif" font-size="14.00" fill="#000000">21</text>
</g>
<!-- 17&#45;&gt;21 -->
<g id="edge33" class="edge">
<title>17-&gt;21</title>
<path fill="none" stroke="#000000" d="M84.1003,-355.656C89.9783,-342.925 98.0351,-325.4753 104.7043,-311.0306"/>
<polygon fill="#000000" stroke="#000000" points="108.0418,-312.1516 109.0561,-301.6054 101.6865,-309.2172 108.0418,-312.1516"/>
<text text-anchor="middle" x="107" y="-324.6" font-family="Times,serif" font-size="14.00" fill="#000000">36</text>
</g>
<!-- 18&#45;&gt;21 -->
<g id="edge34" class="edge">
<title>18-&gt;21</title>
<path fill="none" stroke="#000000" d="M138.4096,-355.9684C135.4264,-350.1321 132.3162,-343.4957 130,-337.2 127.0664,-329.2261 124.5888,-320.333 122.6091,-312.1525"/>
<polygon fill="#000000" stroke="#000000" points="125.9982,-311.2714 120.3709,-302.2945 119.1719,-312.8213 125.9982,-311.2714"/>
<text text-anchor="middle" x="140.5" y="-324.6" font-family="Times,serif" font-size="14.00" fill="#000000">112</text>
</g>
<!-- 22 -->
<g id="node23" class="node">
<title>22</title>
<ellipse fill="none" stroke="#000000" cx="218" cy="-284.4" rx="27" ry="18"/>
<text text-anchor="middle" x="218" y="-280.2" font-family="Times,serif" font-size="14.00" fill="#000000">22</text>
</g>
<!-- 18&#45;&gt;22 -->
<g id="edge35" class="edge">
<title>18-&gt;22</title>
<path fill="none" stroke="#000000" d="M160.8391,-356.9127C171.4959,-343.3938 186.809,-323.968 198.904,-308.6247"/>
<polygon fill="#000000" stroke="#000000" points="201.8003,-310.6042 205.2423,-300.584 196.3029,-306.2706 201.8003,-310.6042"/>
<text text-anchor="middle" x="199.5" y="-324.6" font-family="Times,serif" font-size="14.00" fill="#000000">144</text>
</g>
<!-- 19&#45;&gt;22 -->
<g id="edge36" class="edge">
<title>19-&gt;22</title>
<path fill="none" stroke="#000000" d="M219.5856,-354.8006C219.3129,-342.6949 218.9506,-326.6076 218.6412,-312.8674"/>
<polygon fill="#000000" stroke="#000000" points="222.1314,-312.3906 218.407,-302.472 215.1332,-312.5483 222.1314,-312.3906"/>
<text text-anchor="middle" x="229.5" y="-324.6" font-family="Times,serif" font-size="14.00" fill="#000000">108</text>
</g>
<!-- 23 -->
<g id="node24" class="node">
<title>23</title>
<ellipse fill="none" stroke="#000000" cx="291" cy="-284.4" rx="27" ry="18"/>
<text text-anchor="middle" x="291" y="-280.2" font-family="Times,serif" font-size="14.00" fill="#000000">23</text>
</g>
<!-- 19&#45;&gt;23 -->
<g id="edge37" class="edge">
<title>19-&gt;23</title>
<path fill="none" stroke="#000000" d="M233.0225,-356.9127C243.8991,-343.3093 259.5578,-323.7249 271.8608,-308.3374"/>
<polygon fill="#000000" stroke="#000000" points="274.7878,-310.2814 278.2989,-300.2853 269.3205,-305.91 274.7878,-310.2814"/>
<text text-anchor="middle" x="271.5" y="-324.6" font-family="Times,serif" font-size="14.00" fill="#000000">248</text>
</g>
<!-- 20&#45;&gt;16 -->
<g id="edge39" class="edge">
<title>20-&gt;16</title>
<path fill="none" stroke="#000000" d="M338.541,-355.2528C341.7567,-337.3731 346,-309.0999 346,-284.4 346,-284.4 346,-284.4 346,-106.8 346,-60.9266 293.9153,-38.354 250.5243,-27.5086"/>
<polygon fill="#000000" stroke="#000000" points="251.1057,-24.0502 240.5715,-25.1821 249.5123,-30.8664 251.1057,-24.0502"/>
<text text-anchor="middle" x="356.5" y="-191.4" font-family="Times,serif" font-size="14.00" fill="#000000">997</text>
</g>
<!-- 20&#45;&gt;23 -->
<g id="edge38" class="edge">
<title>20-&gt;23</title>
<path fill="none" stroke="#000000" d="M322.9526,-356.8294C318.8493,-350.8342 314.4356,-343.8798 311,-337.2 306.9202,-329.2677 303.2137,-320.303 300.1306,-312.0423"/>
<polygon fill="#000000" stroke="#000000" points="303.3573,-310.6706 296.696,-302.4318 296.7656,-313.0264 303.3573,-310.6706"/>
<text text-anchor="middle" x="321.5" y="-324.6" font-family="Times,serif" font-size="14.00" fill="#000000">104</text>
</g>
<!-- 21&#45;&gt;16 -->
<g id="edge40" class="edge">
<title>21-&gt;16</title>
<path fill="none" stroke="#000000" d="M114.6376,-266.3873C111.5383,-239.3599 107.2393,-186.7893 114,-142.8 117.8221,-117.9308 123.1203,-112.6956 131,-88.8 136.1235,-73.2626 133.2373,-67.1283 143,-54 146.9374,-48.7052 151.8805,-43.8717 157.116,-39.5848"/>
<polygon fill="#000000" stroke="#000000" points="159.5817,-42.1106 165.4813,-33.3103 155.3814,-36.5107 159.5817,-42.1106"/>
<text text-anchor="middle" x="124.5" y="-147" font-family="Times,serif" font-size="14.00" fill="#000000">741</text>
</g>
<!-- 24 -->
<g id="node25" class="node">
<title>24</title>
<ellipse fill="none" stroke="#000000" cx="161" cy="-195.6" rx="27" ry="18"/>
<text text-anchor="middle" x="161" y="-191.4" font-family="Times,serif" font-size="14.00" fill="#000000">24</text>
</g>
<!-- 21&#45;&gt;24 -->
<g id="edge41" class="edge">
<title>21-&gt;24</title>
<path fill="none" stroke="#000000" d="M124.1576,-266.5603C128.4602,-256.2137 134.2102,-243.0137 140,-231.6 141.7042,-228.2405 143.5838,-224.7585 145.4969,-221.3427"/>
<polygon fill="#000000" stroke="#000000" points="148.5827,-222.9977 150.542,-212.5856 142.5173,-219.5033 148.5827,-222.9977"/>
<text text-anchor="middle" x="150.5" y="-235.8" font-family="Times,serif" font-size="14.00" fill="#000000">214</text>
</g>
<!-- 22&#45;&gt;24 -->
<g id="edge42" class="edge">
<title>22-&gt;24</title>
<path fill="none" stroke="#000000" d="M207.2787,-267.6974C198.8396,-254.5501 186.9376,-236.008 177.3171,-221.0203"/>
<polygon fill="#000000" stroke="#000000" points="180.0205,-218.7525 171.6732,-212.2277 174.1296,-222.5339 180.0205,-218.7525"/>
<text text-anchor="middle" x="201" y="-235.8" font-family="Times,serif" font-size="14.00" fill="#000000">74</text>
</g>
<!-- 25 -->
<g id="node26" class="node">
<title>25</title>
<ellipse fill="none" stroke="#000000" cx="237" cy="-195.6" rx="27" ry="18"/>
<text text-anchor="middle" x="237" y="-191.4" font-family="Times,serif" font-size="14.00" fill="#000000">25</text>
</g>
<!-- 22&#45;&gt;25 -->
<g id="edge43" class="edge">
<title>22-&gt;25</title>
<path fill="none" stroke="#000000" d="M219.5554,-266.164C220.6437,-255.9209 222.3804,-242.9527 225,-231.6 225.6527,-228.7715 226.4362,-225.8501 227.2861,-222.9517"/>
<polygon fill="#000000" stroke="#000000" points="230.6431,-223.9444 230.3384,-213.3539 223.9723,-221.8229 230.6431,-223.9444"/>
<text text-anchor="middle" x="235.5" y="-235.8" font-family="Times,serif" font-size="14.00" fill="#000000">150</text>
</g>
<!-- 23&#45;&gt;16 -->
<g id="edge45" class="edge">
<title>23-&gt;16</title>
<path fill="none" stroke="#000000" d="M292.241,-266.1939C293.9468,-230.46 294.1775,-149.354 267,-88.8 258.2772,-69.3648 241.5102,-52.6136 226.1394,-40.2911"/>
<polygon fill="#000000" stroke="#000000" points="227.8722,-37.2099 217.8036,-33.912 223.618,-42.7689 227.8722,-37.2099"/>
<text text-anchor="middle" x="296.5" y="-147" font-family="Times,serif" font-size="14.00" fill="#000000">725</text>
</g>
<!-- 23&#45;&gt;25 -->
<g id="edge44" class="edge">
<title>23-&gt;25</title>
<path fill="none" stroke="#000000" d="M280.843,-267.6974C272.8986,-254.6333 261.715,-236.2425 252.6316,-221.3053"/>
<polygon fill="#000000" stroke="#000000" points="255.4814,-219.2553 247.295,-212.5296 249.5004,-222.8924 255.4814,-219.2553"/>
<text text-anchor="middle" x="275" y="-235.8" font-family="Times,serif" font-size="14.00" fill="#000000">82</text>
</g>
<!-- 24&#45;&gt;16 -->
<g id="edge46" class="edge">
<title>24-&gt;16</title>
<path fill="none" stroke="#000000" d="M151.9077,-178.2397C141.9357,-156.8185 128.639,-119.4691 139,-88.8 144.8592,-71.4563 156.8529,-55.0084 168.0518,-42.3387"/>
<polygon fill="#000000" stroke="#000000" points="170.6484,-44.6859 174.86,-34.9641 165.505,-39.9375 170.6484,-44.6859"/>
<text text-anchor="middle" x="149.5" y="-102.6" font-family="Times,serif" font-size="14.00" fill="#000000">523</text>
</g>
<!-- 26 -->
<g id="node27" class="node">
<title>26</title>
<ellipse fill="none" stroke="#000000" cx="196" cy="-106.8" rx="27" ry="18"/>
<text text-anchor="middle" x="196" y="-102.6" font-family="Times,serif" font-size="14.00" fill="#000000">26</text>
</g>
<!-- 24&#45;&gt;26 -->
<g id="edge47" class="edge">
<title>24-&gt;26</title>
<path fill="none" stroke="#000000" d="M166.5095,-177.8172C169.8459,-167.4896 174.3459,-154.2896 179,-142.8 180.2456,-139.725 181.6217,-136.5375 183.0357,-133.3878"/>
<polygon fill="#000000" stroke="#000000" points="186.2636,-134.7466 187.2982,-124.2024 179.9139,-131.8 186.2636,-134.7466"/>
<text text-anchor="middle" x="189.5" y="-147" font-family="Times,serif" font-size="14.00" fill="#000000">108</text>
</g>
<!-- 25&#45;&gt;16 -->
<g id="edge49" class="edge">
<title>25-&gt;16</title>
<path fill="none" stroke="#000000" d="M242.1588,-177.5556C244.4602,-167.3724 246.3767,-154.4004 245,-142.8 240.1537,-101.963 238.4081,-90.2557 219,-54 217.2217,-50.678 215.1747,-47.3122 213.0264,-44.0406"/>
<polygon fill="#000000" stroke="#000000" points="215.8033,-41.9034 207.2184,-35.6946 210.0577,-45.9019 215.8033,-41.9034"/>
<text text-anchor="middle" x="252.5" y="-102.6" font-family="Times,serif" font-size="14.00" fill="#000000">611</text>
</g>
<!-- 25&#45;&gt;26 -->
<g id="edge48" class="edge">
<title>25-&gt;26</title>
<path fill="none" stroke="#000000" d="M228.8997,-178.056C223.0217,-165.325 214.9649,-147.8753 208.2957,-133.4306"/>
<polygon fill="#000000" stroke="#000000" points="211.3135,-131.6172 203.9439,-124.0054 204.9582,-134.5516 211.3135,-131.6172"/>
<text text-anchor="middle" x="230.5" y="-147" font-family="Times,serif" font-size="14.00" fill="#000000">104</text>
</g>
<!-- 26&#45;&gt;16 -->
<g id="edge50" class="edge">
<title>26-&gt;16</title>
<path fill="none" stroke="#000000" d="M182.5502,-90.9969C178.315,-85.0551 174.1767,-77.9893 172,-70.8 169.411,-62.2493 171.2819,-53.1406 174.7811,-44.9389"/>
<polygon fill="#000000" stroke="#000000" points="178.0118,-46.3096 179.4673,-35.8152 171.7851,-43.1114 178.0118,-46.3096"/>
<text text-anchor="middle" x="182.5" y="-58.2" font-family="Times,serif" font-size="14.00" fill="#000000">595</text>
</g>
<!-- 26&#45;&gt;16 -->
<g id="edge51" class="edge">
<title>26-&gt;16</title>
<path fill="none" stroke="#000000" d="M195.3784,-88.4006C194.9694,-76.2949 194.4259,-60.2076 193.9617,-46.4674"/>
<polygon fill="#000000" stroke="#000000" points="197.4463,-45.9481 193.6105,-36.072 190.4503,-46.1845 197.4463,-45.9481"/>
<text text-anchor="middle" x="204.5" y="-58.2" font-family="Times,serif" font-size="14.00" fill="#000000">415</text>
</g>
</g>
</svg>