<?xml version="1.0" encoding="UTF-8" standalone="no"?>
<!DOCTYPE svg PUBLIC "-//W3C//DTD SVG 1.1//EN"
 "http://www.w3.org/Graphics/SVG/1.1/DTD/svg11.dtd">
<!-- Generated by graphviz version 9.0.0 (20230911.1827)
 -->
<!-- Pages: 1 -->
<svg width="427pt" height="922pt"
 viewBox="0.00 0.00 427.00 921.50" xmlns="http://www.w3.org/2000/svg" xmlns:xlink="http://www.w3.org/1999/xlink">
<g id="graph0" class="graph" transform="scale(1 1) rotate(0) translate(4 917.5)">
<polygon fill="white" stroke="none" points="-4,4 -4,-917.5 423,-917.5 423,4 -4,4"/>
<!-- 0 -->
<g id="node1" class="node">
<title>0</title>
<ellipse fill="none" stroke="black" cx="119" cy="-456.75" rx="27" ry="18"/>
<text text-anchor="middle" x="119" y="-451.32" font-family="Times New Roman,serif" font-size="14.00">0</text>
</g>
<!-- 17 -->
<g id="node18" class="node">
<title>17</title>
<ellipse fill="none" stroke="black" cx="91" cy="-369" rx="27" ry="18"/>
<text text-anchor="middle" x="91" y="-363.57" font-family="Times New Roman,serif" font-size="14.00">17</text>
</g>
<!-- 0&#45;&gt;17 -->
<g id="edge24" class="edge">
<title>0&#45;&gt;17</title>
<path fill="none" stroke="black" d="M109.72,-439.4C106.76,-433.64 103.68,-427.04 101.5,-420.75 99.02,-413.61 97.04,-405.69 95.5,-398.27"/>
<polygon fill="black" stroke="black" points="98.98,-397.88 93.7,-388.7 92.11,-399.18 98.98,-397.88"/>
<text text-anchor="middle" x="107.75" y="-407.45" font-family="Times New Roman,serif" font-size="14.00">88</text>
</g>
<!-- 18 -->
<g id="node19" class="node">
<title>18</title>
<ellipse fill="none" stroke="black" cx="164" cy="-369" rx="27" ry="18"/>
<text text-anchor="middle" x="164" y="-363.57" font-family="Times New Roman,serif" font-size="14.00">18</text>
</g>
<!-- 0&#45;&gt;18 -->
<g id="edge25" class="edge">
<title>0&#45;&gt;18</title>
<path fill="none" stroke="black" d="M127.68,-439.22C134.03,-427.12 142.77,-410.45 150.09,-396.5"/>
<polygon fill="black" stroke="black" points="153.1,-398.3 154.65,-387.82 146.9,-395.05 153.1,-398.3"/>
<text text-anchor="middle" x="155.12" y="-407.45" font-family="Times New Roman,serif" font-size="14.00">104</text>
</g>
<!-- 1 -->
<g id="node2" class="node">
<title>1</title>
<ellipse fill="none" stroke="black" cx="165" cy="-193.5" rx="27" ry="18"/>
<text text-anchor="middle" x="165" y="-188.07" font-family="Times New Roman,serif" font-size="14.00">1</text>
</g>
<!-- 13 -->
<g id="node14" class="node">
<title>13</title>
<ellipse fill="none" stroke="black" cx="195" cy="-105.75" rx="27" ry="18"/>
<text text-anchor="middle" x="195" y="-100.33" font-family="Times New Roman,serif" font-size="14.00">13</text>
</g>
<!-- 1&#45;&gt;13 -->
<g id="edge47" class="edge">
<title>1&#45;&gt;13</title>
<path fill="none" stroke="black" d="M166.37,-175.16C167.55,-165.16 169.74,-152.47 173.75,-141.75 174.92,-138.63 176.37,-135.48 177.97,-132.41"/>
<polygon fill="black" stroke="black" points="180.97,-134.2 182.96,-123.79 174.92,-130.69 180.97,-134.2"/>
<text text-anchor="middle" x="183.12" y="-144.2" font-family="Times New Roman,serif" font-size="14.00">108</text>
</g>
<!-- 26 -->
<g id="node27" class="node">
<title>26</title>
<ellipse fill="none" stroke="black" cx="195" cy="-18" rx="27" ry="18"/>
<text text-anchor="middle" x="195" y="-12.57" font-family="Times New Roman,serif" font-size="14.00">26</text>
</g>
<!-- 1&#45;&gt;26 -->
<g id="edge46" class="edge">
<title>1&#45;&gt;26</title>
<path fill="none" stroke="black" d="M155.27,-176.6C143.85,-155.82 127.78,-118.47 138.75,-87.75 145.2,-69.69 158.64,-52.96 170.78,-40.53"/>
<polygon fill="black" stroke="black" points="173.06,-43.19 177.78,-33.7 168.18,-38.17 173.06,-43.19"/>
<text text-anchor="middle" x="148.12" y="-100.33" font-family="Times New Roman,serif" font-size="14.00">523</text>
</g>
<!-- 2 -->
<g id="node3" class="node">
<title>2</title>
<ellipse fill="none" stroke="black" cx="167" cy="-720" rx="27" ry="18"/>
<text text-anchor="middle" x="167" y="-714.58" font-family="Times New Roman,serif" font-size="14.00">2</text>
</g>
<!-- 4 -->
<g id="node5" class="node">
<title>4</title>
<ellipse fill="none" stroke="black" cx="127" cy="-632.25" rx="27" ry="18"/>
<text text-anchor="middle" x="127" y="-626.83" font-family="Times New Roman,serif" font-size="14.00">4</text>
</g>
<!-- 2&#45;&gt;4 -->
<g id="edge4" class="edge">
<title>2&#45;&gt;4</title>
<path fill="none" stroke="black" d="M159.29,-702.47C153.7,-690.49 146.02,-674.02 139.55,-660.16"/>
<polygon fill="black" stroke="black" points="142.73,-658.69 135.33,-651.1 136.38,-661.65 142.73,-658.69"/>
<text text-anchor="middle" x="160.12" y="-670.7" font-family="Times New Roman,serif" font-size="14.00">180</text>
</g>
<!-- 5 -->
<g id="node6" class="node">
<title>5</title>
<ellipse fill="none" stroke="black" cx="199" cy="-632.25" rx="27" ry="18"/>
<text text-anchor="middle" x="199" y="-626.83" font-family="Times New Roman,serif" font-size="14.00">5</text>
</g>
<!-- 2&#45;&gt;5 -->
<g id="edge5" class="edge">
<title>2&#45;&gt;5</title>
<path fill="none" stroke="black" d="M172.2,-701.95C175.32,-692.03 179.51,-679.34 183.75,-668.25 184.73,-665.69 185.79,-663.04 186.88,-660.41"/>
<polygon fill="black" stroke="black" points="190.08,-661.82 190.8,-651.25 183.64,-659.06 190.08,-661.82"/>
<text text-anchor="middle" x="193.12" y="-670.7" font-family="Times New Roman,serif" font-size="14.00">104</text>
</g>
<!-- 3 -->
<g id="node4" class="node">
<title>3</title>
<ellipse fill="none" stroke="black" cx="239" cy="-720" rx="27" ry="18"/>
<text text-anchor="middle" x="239" y="-714.58" font-family="Times New Roman,serif" font-size="14.00">3</text>
</g>
<!-- 3&#45;&gt;5 -->
<g id="edge6" class="edge">
<title>3&#45;&gt;5</title>
<path fill="none" stroke="black" d="M231.29,-702.47C225.7,-690.49 218.02,-674.02 211.55,-660.16"/>
<polygon fill="black" stroke="black" points="214.73,-658.69 207.33,-651.1 208.38,-661.65 214.73,-658.69"/>
<text text-anchor="middle" x="232.12" y="-670.7" font-family="Times New Roman,serif" font-size="14.00">244</text>
</g>
<!-- 6 -->
<g id="node7" class="node">
<title>6</title>
<ellipse fill="none" stroke="black" cx="271" cy="-632.25" rx="27" ry="18"/>
<text text-anchor="middle" x="271" y="-626.83" font-family="Times New Roman,serif" font-size="14.00">6</text>
</g>
<!-- 3&#45;&gt;6 -->
<g id="edge7" class="edge">
<title>3&#45;&gt;6</title>
<path fill="none" stroke="black" d="M245.32,-702.06C249.71,-690.31 255.64,-674.41 260.7,-660.85"/>
<polygon fill="black" stroke="black" points="263.94,-662.17 264.16,-651.57 257.39,-659.72 263.94,-662.17"/>
<text text-anchor="middle" x="267.12" y="-670.7" font-family="Times New Roman,serif" font-size="14.00">204</text>
</g>
<!-- 7 -->
<g id="node8" class="node">
<title>7</title>
<ellipse fill="none" stroke="black" cx="87" cy="-544.5" rx="27" ry="18"/>
<text text-anchor="middle" x="87" y="-539.08" font-family="Times New Roman,serif" font-size="14.00">7</text>
</g>
<!-- 4&#45;&gt;7 -->
<g id="edge8" class="edge">
<title>4&#45;&gt;7</title>
<path fill="none" stroke="black" d="M119.29,-614.72C113.7,-602.74 106.02,-586.27 99.55,-572.41"/>
<polygon fill="black" stroke="black" points="102.73,-570.94 95.33,-563.35 96.38,-573.9 102.73,-570.94"/>
<text text-anchor="middle" x="120.12" y="-582.95" font-family="Times New Roman,serif" font-size="14.00">148</text>
</g>
<!-- 8 -->
<g id="node9" class="node">
<title>8</title>
<ellipse fill="none" stroke="black" cx="159" cy="-544.5" rx="27" ry="18"/>
<text text-anchor="middle" x="159" y="-539.08" font-family="Times New Roman,serif" font-size="14.00">8</text>
</g>
<!-- 4&#45;&gt;8 -->
<g id="edge9" class="edge">
<title>4&#45;&gt;8</title>
<path fill="none" stroke="black" d="M131.19,-614.09C133.81,-604.14 137.5,-591.45 141.75,-580.5 142.8,-577.79 143.98,-575.01 145.23,-572.25"/>
<polygon fill="black" stroke="black" points="148.33,-573.86 149.49,-563.33 142.02,-570.84 148.33,-573.86"/>
<text text-anchor="middle" x="151.12" y="-582.95" font-family="Times New Roman,serif" font-size="14.00">118</text>
</g>
<!-- 5&#45;&gt;8 -->
<g id="edge10" class="edge">
<title>5&#45;&gt;8</title>
<path fill="none" stroke="black" d="M191.29,-614.72C185.7,-602.74 178.02,-586.27 171.55,-572.41"/>
<polygon fill="black" stroke="black" points="174.73,-570.94 167.33,-563.35 168.38,-573.9 174.73,-570.94"/>
<text text-anchor="middle" x="188.75" y="-582.95" font-family="Times New Roman,serif" font-size="14.00">90</text>
</g>
<!-- 9 -->
<g id="node10" class="node">
<title>9</title>
<ellipse fill="none" stroke="black" cx="231" cy="-544.5" rx="27" ry="18"/>
<text text-anchor="middle" x="231" y="-539.08" font-family="Times New Roman,serif" font-size="14.00">9</text>
</g>
<!-- 5&#45;&gt;9 -->
<g id="edge11" class="edge">
<title>5&#45;&gt;9</title>
<path fill="none" stroke="black" d="M205.32,-614.31C209.71,-602.56 215.64,-586.66 220.7,-573.1"/>
<polygon fill="black" stroke="black" points="223.94,-574.42 224.16,-563.82 217.39,-571.97 223.94,-574.42"/>
<text text-anchor="middle" x="223.75" y="-582.95" font-family="Times New Roman,serif" font-size="14.00">56</text>
</g>
<!-- 6&#45;&gt;9 -->
<g id="edge12" class="edge">
<title>6&#45;&gt;9</title>
<path fill="none" stroke="black" d="M263.29,-614.72C257.7,-602.74 250.02,-586.27 243.55,-572.41"/>
<polygon fill="black" stroke="black" points="246.73,-570.94 239.33,-563.35 240.38,-573.9 246.73,-570.94"/>
<text text-anchor="middle" x="264.12" y="-582.95" font-family="Times New Roman,serif" font-size="14.00">236</text>
</g>
<!-- 10 -->
<g id="node11" class="node">
<title>10</title>
<ellipse fill="none" stroke="black" cx="303" cy="-544.5" rx="27" ry="18"/>
<text text-anchor="middle" x="303" y="-539.08" font-family="Times New Roman,serif" font-size="14.00">10</text>
</g>
<!-- 6&#45;&gt;10 -->
<g id="edge13" class="edge">
<title>6&#45;&gt;10</title>
<path fill="none" stroke="black" d="M277.32,-614.31C281.71,-602.56 287.64,-586.66 292.7,-573.1"/>
<polygon fill="black" stroke="black" points="295.94,-574.42 296.16,-563.82 289.39,-571.97 295.94,-574.42"/>
<text text-anchor="middle" x="299.12" y="-582.95" font-family="Times New Roman,serif" font-size="14.00">148</text>
</g>
<!-- 7&#45;&gt;0 -->
<g id="edge15" class="edge">
<title>7&#45;&gt;0</title>
<path fill="none" stroke="black" d="M84.81,-526.47C84.18,-516.34 84.57,-503.42 88.75,-492.75 90.5,-488.29 93.07,-484.01 95.99,-480.07"/>
<polygon fill="black" stroke="black" points="98.44,-482.6 102.24,-472.71 93.1,-478.07 98.44,-482.6"/>
<text text-anchor="middle" x="99.12" y="-495.2" font-family="Times New Roman,serif" font-size="14.00">238</text>
</g>
<!-- 14 -->
<g id="node15" class="node">
<title>14</title>
<ellipse fill="none" stroke="black" cx="45" cy="-456.75" rx="27" ry="18"/>
<text text-anchor="middle" x="45" y="-451.32" font-family="Times New Roman,serif" font-size="14.00">14</text>
</g>
<!-- 7&#45;&gt;14 -->
<g id="edge14" class="edge">
<title>7&#45;&gt;14</title>
<path fill="none" stroke="black" d="M74.35,-528.13C69.94,-522.25 65.22,-515.31 61.75,-508.5 58.11,-501.37 55.02,-493.27 52.52,-485.68"/>
<polygon fill="black" stroke="black" points="55.89,-484.72 49.63,-476.17 49.19,-486.76 55.89,-484.72"/>
<text text-anchor="middle" x="72.12" y="-495.2" font-family="Times New Roman,serif" font-size="14.00">112</text>
</g>
<!-- 8&#45;&gt;0 -->
<g id="edge16" class="edge">
<title>8&#45;&gt;0</title>
<path fill="none" stroke="black" d="M151.29,-526.97C145.7,-514.99 138.02,-498.52 131.55,-484.66"/>
<polygon fill="black" stroke="black" points="134.73,-483.19 127.33,-475.6 128.38,-486.15 134.73,-483.19"/>
<text text-anchor="middle" x="152.12" y="-495.2" font-family="Times New Roman,serif" font-size="14.00">104</text>
</g>
<!-- 24 -->
<g id="node25" class="node">
<title>24</title>
<ellipse fill="none" stroke="black" cx="197" cy="-456.75" rx="27" ry="18"/>
<text text-anchor="middle" x="197" y="-451.32" font-family="Times New Roman,serif" font-size="14.00">24</text>
</g>
<!-- 8&#45;&gt;24 -->
<g id="edge17" class="edge">
<title>8&#45;&gt;24</title>
<path fill="none" stroke="black" d="M166.33,-526.97C171.6,-515.06 178.84,-498.73 184.96,-484.93"/>
<polygon fill="black" stroke="black" points="188.1,-486.47 188.95,-475.91 181.7,-483.63 188.1,-486.47"/>
<text text-anchor="middle" x="191.12" y="-495.2" font-family="Times New Roman,serif" font-size="14.00">124</text>
</g>
<!-- 11 -->
<g id="node12" class="node">
<title>11</title>
<ellipse fill="none" stroke="black" cx="272" cy="-456.75" rx="27" ry="18"/>
<text text-anchor="middle" x="272" y="-451.32" font-family="Times New Roman,serif" font-size="14.00">11</text>
</g>
<!-- 9&#45;&gt;11 -->
<g id="edge19" class="edge">
<title>9&#45;&gt;11</title>
<path fill="none" stroke="black" d="M238.91,-526.97C244.69,-514.87 252.66,-498.2 259.33,-484.25"/>
<polygon fill="black" stroke="black" points="262.31,-486.13 263.47,-475.6 255.99,-483.11 262.31,-486.13"/>
<text text-anchor="middle" x="265.12" y="-495.2" font-family="Times New Roman,serif" font-size="14.00">124</text>
</g>
<!-- 9&#45;&gt;24 -->
<g id="edge18" class="edge">
<title>9&#45;&gt;24</title>
<path fill="none" stroke="black" d="M224.44,-526.97C219.72,-515.06 213.25,-498.73 207.78,-484.93"/>
<polygon fill="black" stroke="black" points="211.15,-483.94 204.21,-475.93 204.64,-486.52 211.15,-483.94"/>
<text text-anchor="middle" x="227.12" y="-495.2" font-family="Times New Roman,serif" font-size="14.00">158</text>
</g>
<!-- 10&#45;&gt;11 -->
<g id="edge20" class="edge">
<title>10&#45;&gt;11</title>
<path fill="none" stroke="black" d="M296.88,-526.56C292.63,-514.81 286.88,-498.91 281.98,-485.35"/>
<polygon fill="black" stroke="black" points="285.32,-484.29 278.63,-476.08 278.73,-486.67 285.32,-484.29"/>
<text text-anchor="middle" x="300.12" y="-495.2" font-family="Times New Roman,serif" font-size="14.00">144</text>
</g>
<!-- 15 -->
<g id="node16" class="node">
<title>15</title>
<ellipse fill="none" stroke="black" cx="346" cy="-456.75" rx="27" ry="18"/>
<text text-anchor="middle" x="346" y="-451.32" font-family="Times New Roman,serif" font-size="14.00">15</text>
</g>
<!-- 10&#45;&gt;15 -->
<g id="edge21" class="edge">
<title>10&#45;&gt;15</title>
<path fill="none" stroke="black" d="M311.29,-526.97C317.36,-514.87 325.72,-498.2 332.71,-484.25"/>
<polygon fill="black" stroke="black" points="335.7,-486.09 337.06,-475.59 329.44,-482.96 335.7,-486.09"/>
<text text-anchor="middle" x="338.12" y="-495.2" font-family="Times New Roman,serif" font-size="14.00">122</text>
</g>
<!-- 19 -->
<g id="node20" class="node">
<title>19</title>
<ellipse fill="none" stroke="black" cx="236" cy="-369" rx="27" ry="18"/>
<text text-anchor="middle" x="236" y="-363.57" font-family="Times New Roman,serif" font-size="14.00">19</text>
</g>
<!-- 11&#45;&gt;19 -->
<g id="edge28" class="edge">
<title>11&#45;&gt;19</title>
<path fill="none" stroke="black" d="M265.06,-439.22C260.06,-427.31 253.21,-410.98 247.41,-397.18"/>
<polygon fill="black" stroke="black" points="250.73,-396.04 243.63,-388.17 244.27,-398.75 250.73,-396.04"/>
<text text-anchor="middle" x="267.12" y="-407.45" font-family="Times New Roman,serif" font-size="14.00">158</text>
</g>
<!-- 20 -->
<g id="node21" class="node">
<title>20</title>
<ellipse fill="none" stroke="black" cx="308" cy="-369" rx="27" ry="18"/>
<text text-anchor="middle" x="308" y="-363.57" font-family="Times New Roman,serif" font-size="14.00">20</text>
</g>
<!-- 11&#45;&gt;20 -->
<g id="edge29" class="edge">
<title>11&#45;&gt;20</title>
<path fill="none" stroke="black" d="M278.94,-439.22C283.94,-427.31 290.79,-410.98 296.59,-397.18"/>
<polygon fill="black" stroke="black" points="299.73,-398.75 300.37,-388.17 293.27,-396.04 299.73,-398.75"/>
<text text-anchor="middle" x="303.12" y="-407.45" font-family="Times New Roman,serif" font-size="14.00">242</text>
</g>
<!-- 12 -->
<g id="node13" class="node">
<title>12</title>
<ellipse fill="none" stroke="black" cx="202" cy="-807.75" rx="27" ry="18"/>
<text text-anchor="middle" x="202" y="-802.33" font-family="Times New Roman,serif" font-size="14.00">12</text>
</g>
<!-- 12&#45;&gt;2 -->
<g id="edge2" class="edge">
<title>12&#45;&gt;2</title>
<path fill="none" stroke="black" d="M195.25,-790.22C190.39,-778.31 183.73,-761.98 178.09,-748.18"/>
<polygon fill="black" stroke="black" points="181.44,-747.11 174.42,-739.18 174.96,-749.76 181.44,-747.11"/>
<text text-anchor="middle" x="197.12" y="-758.45" font-family="Times New Roman,serif" font-size="14.00">370</text>
</g>
<!-- 12&#45;&gt;3 -->
<g id="edge3" class="edge">
<title>12&#45;&gt;3</title>
<path fill="none" stroke="black" d="M209.13,-790.22C214.27,-778.31 221.32,-761.98 227.27,-748.18"/>
<polygon fill="black" stroke="black" points="230.41,-749.73 231.16,-739.16 223.99,-746.96 230.41,-749.73"/>
<text text-anchor="middle" x="229.75" y="-758.45" font-family="Times New Roman,serif" font-size="14.00">58</text>
</g>
<!-- 13&#45;&gt;26 -->
<g id="edge50" class="edge">
<title>13&#45;&gt;26</title>
<path fill="none" stroke="black" d="M195,-87.4C195,-76.01 195,-60.84 195,-47.68"/>
<polygon fill="black" stroke="black" points="198.5,-47.84 195,-37.84 191.5,-47.84 198.5,-47.84"/>
<text text-anchor="middle" x="205.12" y="-56.45" font-family="Times New Roman,serif" font-size="14.00">415</text>
</g>
<!-- 14&#45;&gt;17 -->
<g id="edge23" class="edge">
<title>14&#45;&gt;17</title>
<path fill="none" stroke="black" d="M53.65,-439.62C60.16,-427.48 69.23,-410.58 76.8,-396.47"/>
<polygon fill="black" stroke="black" points="79.87,-398.15 81.51,-387.68 73.7,-394.84 79.87,-398.15"/>
<text text-anchor="middle" x="83.12" y="-407.45" font-family="Times New Roman,serif" font-size="14.00">246</text>
</g>
<!-- 14&#45;&gt;26 -->
<g id="edge22" class="edge">
<title>14&#45;&gt;26</title>
<path fill="none" stroke="black" d="M31.5,-440.87C18.24,-424.68 0,-397.4 0,-370 0,-370 0,-370 0,-104.75 0,-37.08 99.63,-22.34 156.46,-19.43"/>
<polygon fill="black" stroke="black" points="156.52,-22.93 166.37,-19.04 156.24,-15.94 156.52,-22.93"/>
<text text-anchor="middle" x="13.5" y="-231.95" font-family="Times New Roman,serif" font-size="14.00">1267</text>
</g>
<!-- 15&#45;&gt;20 -->
<g id="edge30" class="edge">
<title>15&#45;&gt;20</title>
<path fill="none" stroke="black" d="M338.67,-439.22C333.4,-427.31 326.16,-410.98 320.04,-397.18"/>
<polygon fill="black" stroke="black" points="323.3,-395.88 316.05,-388.16 316.9,-398.72 323.3,-395.88"/>
<text text-anchor="middle" x="340.12" y="-407.45" font-family="Times New Roman,serif" font-size="14.00">272</text>
</g>
<!-- 15&#45;&gt;26 -->
<g id="edge31" class="edge">
<title>15&#45;&gt;26</title>
<path fill="none" stroke="black" d="M359.8,-440.92C373.35,-424.77 392,-397.54 392,-370 392,-370 392,-370 392,-104.75 392,-36.35 290.93,-21.94 233.58,-19.27"/>
<polygon fill="black" stroke="black" points="234.02,-15.79 223.9,-18.93 233.77,-22.78 234.02,-15.79"/>
<text text-anchor="middle" x="405.5" y="-231.95" font-family="Times New Roman,serif" font-size="14.00">1301</text>
</g>
<!-- 16 -->
<g id="node17" class="node">
<title>16</title>
<ellipse fill="none" stroke="black" cx="241" cy="-193.5" rx="27" ry="18"/>
<text text-anchor="middle" x="241" y="-188.07" font-family="Times New Roman,serif" font-size="14.00">16</text>
</g>
<!-- 16&#45;&gt;13 -->
<g id="edge48" class="edge">
<title>16&#45;&gt;13</title>
<path fill="none" stroke="black" d="M232.35,-176.37C225.84,-164.23 216.77,-147.33 209.2,-133.22"/>
<polygon fill="black" stroke="black" points="212.3,-131.59 204.49,-124.43 206.13,-134.9 212.3,-131.59"/>
<text text-anchor="middle" x="232.12" y="-144.2" font-family="Times New Roman,serif" font-size="14.00">104</text>
</g>
<!-- 16&#45;&gt;26 -->
<g id="edge49" class="edge">
<title>16&#45;&gt;26</title>
<path fill="none" stroke="black" d="M243.5,-175.54C244.58,-165.66 245.33,-152.97 244,-141.75 239.22,-101.48 237.41,-90.13 219,-54 217.29,-50.65 215.31,-47.25 213.24,-43.95"/>
<polygon fill="black" stroke="black" points="216.22,-42.1 207.74,-35.75 210.4,-46 216.22,-42.1"/>
<text text-anchor="middle" x="251.12" y="-100.33" font-family="Times New Roman,serif" font-size="14.00">611</text>
</g>
<!-- 21 -->
<g id="node22" class="node">
<title>21</title>
<ellipse fill="none" stroke="black" cx="109" cy="-281.25" rx="27" ry="18"/>
<text text-anchor="middle" x="109" y="-275.82" font-family="Times New Roman,serif" font-size="14.00">21</text>
</g>
<!-- 17&#45;&gt;21 -->
<g id="edge33" class="edge">
<title>17&#45;&gt;21</title>
<path fill="none" stroke="black" d="M91.85,-350.92C92.59,-340.99 93.96,-328.31 96.5,-317.25 97.06,-314.8 97.74,-312.28 98.49,-309.77"/>
<polygon fill="black" stroke="black" points="101.73,-311.13 101.6,-300.54 95.1,-308.9 101.73,-311.13"/>
<text text-anchor="middle" x="102.75" y="-319.7" font-family="Times New Roman,serif" font-size="14.00">36</text>
</g>
<!-- 17&#45;&gt;26 -->
<g id="edge32" class="edge">
<title>17&#45;&gt;26</title>
<path fill="none" stroke="black" d="M77.5,-353.12C64.24,-336.93 46,-309.65 46,-282.25 46,-282.25 46,-282.25 46,-104.75 46,-53.52 113,-32.44 157.14,-24.11"/>
<polygon fill="black" stroke="black" points="157.61,-27.58 166.87,-22.42 156.42,-20.68 157.61,-27.58"/>
<text text-anchor="middle" x="59.5" y="-188.07" font-family="Times New Roman,serif" font-size="14.00">1013</text>
</g>
<!-- 18&#45;&gt;21 -->
<g id="edge34" class="edge">
<title>18&#45;&gt;21</title>
<path fill="none" stroke="black" d="M153.65,-351.87C145.67,-339.41 134.46,-321.94 125.27,-307.62"/>
<polygon fill="black" stroke="black" points="128.46,-306.11 120.12,-299.58 122.57,-309.89 128.46,-306.11"/>
<text text-anchor="middle" x="151.12" y="-319.7" font-family="Times New Roman,serif" font-size="14.00">112</text>
</g>
<!-- 22 -->
<g id="node23" class="node">
<title>22</title>
<ellipse fill="none" stroke="black" cx="188" cy="-281.25" rx="27" ry="18"/>
<text text-anchor="middle" x="188" y="-275.82" font-family="Times New Roman,serif" font-size="14.00">22</text>
</g>
<!-- 18&#45;&gt;22 -->
<g id="edge35" class="edge">
<title>18&#45;&gt;22</title>
<path fill="none" stroke="black" d="M168.74,-351.06C171.97,-339.51 176.33,-323.93 180.09,-310.52"/>
<polygon fill="black" stroke="black" points="183.45,-311.48 182.78,-300.91 176.71,-309.59 183.45,-311.48"/>
<text text-anchor="middle" x="188.12" y="-319.7" font-family="Times New Roman,serif" font-size="14.00">144</text>
</g>
<!-- 19&#45;&gt;22 -->
<g id="edge36" class="edge">
<title>19&#45;&gt;22</title>
<path fill="none" stroke="black" d="M226.97,-351.87C220.11,-339.61 210.53,-322.5 202.58,-308.3"/>
<polygon fill="black" stroke="black" points="205.83,-306.94 197.89,-299.92 199.72,-310.35 205.83,-306.94"/>
<text text-anchor="middle" x="226.12" y="-319.7" font-family="Times New Roman,serif" font-size="14.00">108</text>
</g>
<!-- 23 -->
<g id="node24" class="node">
<title>23</title>
<ellipse fill="none" stroke="black" cx="264" cy="-281.25" rx="27" ry="18"/>
<text text-anchor="middle" x="264" y="-275.82" font-family="Times New Roman,serif" font-size="14.00">23</text>
</g>
<!-- 19&#45;&gt;23 -->
<g id="edge37" class="edge">
<title>19&#45;&gt;23</title>
<path fill="none" stroke="black" d="M241.53,-351.06C245.37,-339.31 250.56,-323.41 254.99,-309.85"/>
<polygon fill="black" stroke="black" points="258.23,-311.19 258.01,-300.6 251.58,-309.01 258.23,-311.19"/>
<text text-anchor="middle" x="262.12" y="-319.7" font-family="Times New Roman,serif" font-size="14.00">248</text>
</g>
<!-- 20&#45;&gt;23 -->
<g id="edge38" class="edge">
<title>20&#45;&gt;23</title>
<path fill="none" stroke="black" d="M299.52,-351.47C293.31,-339.37 284.75,-322.7 277.6,-308.75"/>
<polygon fill="black" stroke="black" points="280.83,-307.38 273.15,-300.08 274.6,-310.57 280.83,-307.38"/>
<text text-anchor="middle" x="299.12" y="-319.7" font-family="Times New Roman,serif" font-size="14.00">104</text>
</g>
<!-- 20&#45;&gt;26 -->
<g id="edge39" class="edge">
<title>20&#45;&gt;26</title>
<path fill="none" stroke="black" d="M319,-352.39C329.58,-335.8 344,-308.41 344,-282.25 344,-282.25 344,-282.25 344,-104.75 344,-53.52 277,-32.44 232.86,-24.11"/>
<polygon fill="black" stroke="black" points="233.58,-20.68 223.13,-22.42 232.39,-27.58 233.58,-20.68"/>
<text text-anchor="middle" x="354.12" y="-188.07" font-family="Times New Roman,serif" font-size="14.00">997</text>
</g>
<!-- 21&#45;&gt;1 -->
<g id="edge41" class="edge">
<title>21&#45;&gt;1</title>
<path fill="none" stroke="black" d="M119.27,-264.52C127.43,-252.03 139,-234.31 148.46,-219.83"/>
<polygon fill="black" stroke="black" points="151.24,-221.97 153.78,-211.69 145.38,-218.14 151.24,-221.97"/>
<text text-anchor="middle" x="152.12" y="-231.95" font-family="Times New Roman,serif" font-size="14.00">214</text>
</g>
<!-- 21&#45;&gt;26 -->
<g id="edge40" class="edge">
<title>21&#45;&gt;26</title>
<path fill="none" stroke="black" d="M106.37,-263.06C101.11,-222.12 93.68,-117.54 143,-54 148.68,-46.69 156.32,-40.37 164,-35.19"/>
<polygon fill="black" stroke="black" points="165.65,-38.29 172.32,-30.05 161.97,-32.33 165.65,-38.29"/>
<text text-anchor="middle" x="117.12" y="-144.2" font-family="Times New Roman,serif" font-size="14.00">741</text>
</g>
<!-- 22&#45;&gt;1 -->
<g id="edge42" class="edge">
<title>22&#45;&gt;1</title>
<path fill="none" stroke="black" d="M183.46,-263.31C180.36,-251.76 176.18,-236.18 172.58,-222.77"/>
<polygon fill="black" stroke="black" points="175.98,-221.91 170.01,-213.16 169.22,-223.73 175.98,-221.91"/>
<text text-anchor="middle" x="184.75" y="-231.95" font-family="Times New Roman,serif" font-size="14.00">74</text>
</g>
<!-- 22&#45;&gt;16 -->
<g id="edge43" class="edge">
<title>22&#45;&gt;16</title>
<path fill="none" stroke="black" d="M197.97,-264.12C205.59,-251.78 216.26,-234.53 225.06,-220.28"/>
<polygon fill="black" stroke="black" points="228,-222.19 230.28,-211.84 222.05,-218.51 228,-222.19"/>
<text text-anchor="middle" x="229.12" y="-231.95" font-family="Times New Roman,serif" font-size="14.00">150</text>
</g>
<!-- 23&#45;&gt;16 -->
<g id="edge44" class="edge">
<title>23&#45;&gt;16</title>
<path fill="none" stroke="black" d="M259.46,-263.31C256.36,-251.76 252.18,-236.18 248.58,-222.77"/>
<polygon fill="black" stroke="black" points="251.98,-221.91 246.01,-213.16 245.22,-223.73 251.98,-221.91"/>
<text text-anchor="middle" x="260.75" y="-231.95" font-family="Times New Roman,serif" font-size="14.00">82</text>
</g>
<!-- 23&#45;&gt;26 -->
<g id="edge45" class="edge">
<title>23&#45;&gt;26</title>
<path fill="none" stroke="black" d="M268.63,-263.06C277.09,-228.18 291.81,-147.33 265,-87.75 255.97,-67.68 238.23,-50.36 222.86,-38.12"/>
<polygon fill="black" stroke="black" points="225,-35.35 214.91,-32.1 220.77,-40.93 225,-35.35"/>
<text text-anchor="middle" x="289.12" y="-144.2" font-family="Times New Roman,serif" font-size="14.00">725</text>
</g>
<!-- 24&#45;&gt;18 -->
<g id="edge26" class="edge">
<title>24&#45;&gt;18</title>
<path fill="none" stroke="black" d="M190.48,-438.81C185.96,-427.06 179.84,-411.16 174.62,-397.6"/>
<polygon fill="black" stroke="black" points="177.91,-396.39 171.05,-388.32 171.38,-398.91 177.91,-396.39"/>
<text text-anchor="middle" x="189.75" y="-407.45" font-family="Times New Roman,serif" font-size="14.00">76</text>
</g>
<!-- 24&#45;&gt;19 -->
<g id="edge27" class="edge">
<title>24&#45;&gt;19</title>
<path fill="none" stroke="black" d="M204.52,-439.22C209.97,-427.24 217.46,-410.77 223.76,-396.91"/>
<polygon fill="black" stroke="black" points="226.92,-398.41 227.88,-387.86 220.55,-395.51 226.92,-398.41"/>
<text text-anchor="middle" x="225.75" y="-407.45" font-family="Times New Roman,serif" font-size="14.00">48</text>
</g>
<!-- 25 -->
<g id="node26" class="node">
<title>25</title>
<ellipse fill="none" stroke="black" cx="202" cy="-895.5" rx="27" ry="18"/>
<text text-anchor="middle" x="202" y="-890.08" font-family="Times New Roman,serif" font-size="14.00">25</text>
</g>
<!-- 25&#45;&gt;12 -->
<g id="edge1" class="edge">
<title>25&#45;&gt;12</title>
<path fill="none" stroke="black" d="M202,-877.15C202,-865.76 202,-850.59 202,-837.43"/>
<polygon fill="black" stroke="black" points="205.5,-837.59 202,-827.59 198.5,-837.59 205.5,-837.59"/>
<text text-anchor="middle" x="212.12" y="-846.2" font-family="Times New Roman,serif" font-size="14.00">105</text>
</g>
</g>
</svg>
