<?xml version="1.0" encoding="UTF-8" standalone="no"?>
<!DOCTYPE svg PUBLIC "-//W3C//DTD SVG 1.1//EN"
 "http://www.w3.org/Graphics/SVG/1.1/DTD/svg11.dtd">
<!-- Generated by graphviz version 9.0.0 (20230911.1827)
 -->
<!-- Pages: 1 -->
<svg width="512pt" height="922pt"
 viewBox="0.00 0.00 512.10 921.50" xmlns="http://www.w3.org/2000/svg" xmlns:xlink="http://www.w3.org/1999/xlink">
<g id="graph0" class="graph" transform="scale(1 1) rotate(0) translate(4 917.5)">
<polygon fill="white" stroke="none" points="-4,4 -4,-917.5 508.1,-917.5 508.1,4 -4,4"/>
<!-- 0 -->
<g id="node1" class="node">
<title>0</title>
<ellipse fill="none" stroke="black" cx="143.1" cy="-895.5" rx="30.61" ry="18"/>
<text text-anchor="middle" x="143.1" y="-890.08" font-family="Times New Roman,serif" font-size="14.00">(1, 0)</text>
</g>
<!-- 1 -->
<g id="node2" class="node">
<title>1</title>
<ellipse fill="none" stroke="black" cx="143.1" cy="-807.75" rx="39.59" ry="18"/>
<text text-anchor="middle" x="143.1" y="-802.33" font-family="Times New Roman,serif" font-size="14.00">(19, 11)</text>
</g>
<!-- 0&#45;&gt;1 -->
<g id="edge1" class="edge">
<title>0&#45;&gt;1</title>
<path fill="none" stroke="black" d="M143.1,-877.15C143.1,-865.76 143.1,-850.59 143.1,-837.43"/>
<polygon fill="black" stroke="black" points="146.6,-837.59 143.1,-827.59 139.6,-837.59 146.6,-837.59"/>
<text text-anchor="middle" x="153.22" y="-846.2" font-family="Times New Roman,serif" font-size="14.00">105</text>
</g>
<!-- 2 -->
<g id="node3" class="node">
<title>2</title>
<ellipse fill="none" stroke="black" cx="97.1" cy="-720" rx="39.59" ry="18"/>
<text text-anchor="middle" x="97.1" y="-714.58" font-family="Times New Roman,serif" font-size="14.00">(13, 43)</text>
</g>
<!-- 1&#45;&gt;2 -->
<g id="edge2" class="edge">
<title>1&#45;&gt;2</title>
<path fill="none" stroke="black" d="M134.01,-789.81C127.58,-777.83 118.83,-761.52 111.47,-747.79"/>
<polygon fill="black" stroke="black" points="114.69,-746.4 106.88,-739.24 108.52,-749.71 114.69,-746.4"/>
<text text-anchor="middle" x="134.22" y="-758.45" font-family="Times New Roman,serif" font-size="14.00">370</text>
</g>
<!-- 3 -->
<g id="node4" class="node">
<title>3</title>
<ellipse fill="none" stroke="black" cx="190.1" cy="-720" rx="35.1" ry="18"/>
<text text-anchor="middle" x="190.1" y="-714.58" font-family="Times New Roman,serif" font-size="14.00">(31, 5)</text>
</g>
<!-- 1&#45;&gt;3 -->
<g id="edge3" class="edge">
<title>1&#45;&gt;3</title>
<path fill="none" stroke="black" d="M152.38,-789.81C158.99,-777.75 168,-761.31 175.56,-747.52"/>
<polygon fill="black" stroke="black" points="178.52,-749.39 180.26,-738.94 172.39,-746.03 178.52,-749.39"/>
<text text-anchor="middle" x="176.85" y="-758.45" font-family="Times New Roman,serif" font-size="14.00">58</text>
</g>
<!-- 4 -->
<g id="node5" class="node">
<title>4</title>
<ellipse fill="none" stroke="black" cx="63.1" cy="-632.25" rx="39.59" ry="18"/>
<text text-anchor="middle" x="63.1" y="-626.83" font-family="Times New Roman,serif" font-size="14.00">(17, 63)</text>
</g>
<!-- 2&#45;&gt;4 -->
<g id="edge4" class="edge">
<title>2&#45;&gt;4</title>
<path fill="none" stroke="black" d="M90.38,-702.06C85.75,-690.39 79.5,-674.62 74.14,-661.12"/>
<polygon fill="black" stroke="black" points="77.41,-659.86 70.47,-651.86 70.91,-662.44 77.41,-659.86"/>
<text text-anchor="middle" x="94.22" y="-670.7" font-family="Times New Roman,serif" font-size="14.00">180</text>
</g>
<!-- 5 -->
<g id="node6" class="node">
<title>5</title>
<ellipse fill="none" stroke="black" cx="160.1" cy="-632.25" rx="39.59" ry="18"/>
<text text-anchor="middle" x="160.1" y="-626.83" font-family="Times New Roman,serif" font-size="14.00">(37, 43)</text>
</g>
<!-- 2&#45;&gt;5 -->
<g id="edge5" class="edge">
<title>2&#45;&gt;5</title>
<path fill="none" stroke="black" d="M109.24,-702.47C118.31,-690.13 130.86,-673.04 141.23,-658.93"/>
<polygon fill="black" stroke="black" points="143.99,-661.08 147.09,-650.95 138.35,-656.94 143.99,-661.08"/>
<text text-anchor="middle" x="144.22" y="-670.7" font-family="Times New Roman,serif" font-size="14.00">104</text>
</g>
<!-- 3&#45;&gt;5 -->
<g id="edge6" class="edge">
<title>3&#45;&gt;5</title>
<path fill="none" stroke="black" d="M184.17,-702.06C180.09,-690.39 174.57,-674.62 169.85,-661.12"/>
<polygon fill="black" stroke="black" points="173.22,-660.16 166.61,-651.88 166.61,-662.47 173.22,-660.16"/>
<text text-anchor="middle" x="187.22" y="-670.7" font-family="Times New Roman,serif" font-size="14.00">244</text>
</g>
<!-- 6 -->
<g id="node7" class="node">
<title>6</title>
<ellipse fill="none" stroke="black" cx="257.1" cy="-632.25" rx="39.59" ry="18"/>
<text text-anchor="middle" x="257.1" y="-626.83" font-family="Times New Roman,serif" font-size="14.00">(61, 11)</text>
</g>
<!-- 3&#45;&gt;6 -->
<g id="edge7" class="edge">
<title>3&#45;&gt;6</title>
<path fill="none" stroke="black" d="M202.7,-702.87C212.46,-690.37 226.17,-672.83 237.38,-658.48"/>
<polygon fill="black" stroke="black" points="239.99,-660.83 243.39,-650.79 234.48,-656.52 239.99,-660.83"/>
<text text-anchor="middle" x="239.22" y="-670.7" font-family="Times New Roman,serif" font-size="14.00">204</text>
</g>
<!-- 7 -->
<g id="node8" class="node">
<title>7</title>
<ellipse fill="none" stroke="black" cx="42.1" cy="-544.5" rx="35.1" ry="18"/>
<text text-anchor="middle" x="42.1" y="-539.08" font-family="Times New Roman,serif" font-size="14.00">(7, 81)</text>
</g>
<!-- 4&#45;&gt;7 -->
<g id="edge8" class="edge">
<title>4&#45;&gt;7</title>
<path fill="none" stroke="black" d="M58.47,-614.19C56.96,-608.49 55.3,-602.11 53.85,-596.25 52.02,-588.88 50.13,-580.88 48.41,-573.46"/>
<polygon fill="black" stroke="black" points="51.87,-572.89 46.22,-563.92 45.04,-574.45 51.87,-572.89"/>
<text text-anchor="middle" x="64.22" y="-582.95" font-family="Times New Roman,serif" font-size="14.00">148</text>
</g>
<!-- 8 -->
<g id="node9" class="node">
<title>8</title>
<ellipse fill="none" stroke="black" cx="135.1" cy="-544.5" rx="39.59" ry="18"/>
<text text-anchor="middle" x="135.1" y="-539.08" font-family="Times New Roman,serif" font-size="14.00">(37, 61)</text>
</g>
<!-- 4&#45;&gt;8 -->
<g id="edge9" class="edge">
<title>4&#45;&gt;8</title>
<path fill="none" stroke="black" d="M76.64,-615.12C87.23,-602.51 102.14,-584.75 114.25,-570.32"/>
<polygon fill="black" stroke="black" points="116.65,-572.92 120.4,-563.01 111.29,-568.42 116.65,-572.92"/>
<text text-anchor="middle" x="115.22" y="-582.95" font-family="Times New Roman,serif" font-size="14.00">118</text>
</g>
<!-- 5&#45;&gt;8 -->
<g id="edge10" class="edge">
<title>5&#45;&gt;8</title>
<path fill="none" stroke="black" d="M155.16,-614.31C151.75,-602.64 147.16,-586.87 143.22,-573.37"/>
<polygon fill="black" stroke="black" points="146.69,-572.77 140.53,-564.15 139.97,-574.73 146.69,-572.77"/>
<text text-anchor="middle" x="155.85" y="-582.95" font-family="Times New Roman,serif" font-size="14.00">90</text>
</g>
<!-- 9 -->
<g id="node10" class="node">
<title>9</title>
<ellipse fill="none" stroke="black" cx="232.1" cy="-544.5" rx="39.59" ry="18"/>
<text text-anchor="middle" x="232.1" y="-539.08" font-family="Times New Roman,serif" font-size="14.00">(55, 41)</text>
</g>
<!-- 5&#45;&gt;9 -->
<g id="edge11" class="edge">
<title>5&#45;&gt;9</title>
<path fill="none" stroke="black" d="M173.64,-615.12C184.23,-602.51 199.14,-584.75 211.25,-570.32"/>
<polygon fill="black" stroke="black" points="213.65,-572.92 217.4,-563.01 208.29,-568.42 213.65,-572.92"/>
<text text-anchor="middle" x="208.85" y="-582.95" font-family="Times New Roman,serif" font-size="14.00">56</text>
</g>
<!-- 6&#45;&gt;9 -->
<g id="edge12" class="edge">
<title>6&#45;&gt;9</title>
<path fill="none" stroke="black" d="M252.16,-614.31C248.75,-602.64 244.16,-586.87 240.22,-573.37"/>
<polygon fill="black" stroke="black" points="243.69,-572.77 237.53,-564.15 236.97,-574.73 243.69,-572.77"/>
<text text-anchor="middle" x="256.22" y="-582.95" font-family="Times New Roman,serif" font-size="14.00">236</text>
</g>
<!-- 10 -->
<g id="node11" class="node">
<title>10</title>
<ellipse fill="none" stroke="black" cx="325.1" cy="-544.5" rx="35.1" ry="18"/>
<text text-anchor="middle" x="325.1" y="-539.08" font-family="Times New Roman,serif" font-size="14.00">(89, 7)</text>
</g>
<!-- 6&#45;&gt;10 -->
<g id="edge13" class="edge">
<title>6&#45;&gt;10</title>
<path fill="none" stroke="black" d="M269.89,-615.12C279.86,-602.55 293.89,-584.86 305.3,-570.46"/>
<polygon fill="black" stroke="black" points="307.95,-572.75 311.42,-562.74 302.47,-568.4 307.95,-572.75"/>
<text text-anchor="middle" x="307.22" y="-582.95" font-family="Times New Roman,serif" font-size="14.00">148</text>
</g>
<!-- 11 -->
<g id="node12" class="node">
<title>11</title>
<ellipse fill="none" stroke="black" cx="35.1" cy="-456.75" rx="35.1" ry="18"/>
<text text-anchor="middle" x="35.1" y="-451.32" font-family="Times New Roman,serif" font-size="14.00">(9, 99)</text>
</g>
<!-- 7&#45;&gt;11 -->
<g id="edge14" class="edge">
<title>7&#45;&gt;11</title>
<path fill="none" stroke="black" d="M40.68,-526.15C39.75,-514.76 38.51,-499.59 37.44,-486.43"/>
<polygon fill="black" stroke="black" points="40.94,-486.27 36.63,-476.59 33.96,-486.84 40.94,-486.27"/>
<text text-anchor="middle" x="50.22" y="-495.2" font-family="Times New Roman,serif" font-size="14.00">112</text>
</g>
<!-- 12 -->
<g id="node13" class="node">
<title>12</title>
<ellipse fill="none" stroke="black" cx="128.1" cy="-456.75" rx="39.59" ry="18"/>
<text text-anchor="middle" x="128.1" y="-451.32" font-family="Times New Roman,serif" font-size="14.00">(41, 85)</text>
</g>
<!-- 7&#45;&gt;12 -->
<g id="edge15" class="edge">
<title>7&#45;&gt;12</title>
<path fill="none" stroke="black" d="M57.47,-528.17C70.52,-515.16 89.44,-496.29 104.42,-481.36"/>
<polygon fill="black" stroke="black" points="106.59,-484.14 111.2,-474.6 101.65,-479.18 106.59,-484.14"/>
<text text-anchor="middle" x="102.22" y="-495.2" font-family="Times New Roman,serif" font-size="14.00">238</text>
</g>
<!-- 8&#45;&gt;12 -->
<g id="edge16" class="edge">
<title>8&#45;&gt;12</title>
<path fill="none" stroke="black" d="M133.68,-526.15C132.75,-514.76 131.51,-499.59 130.44,-486.43"/>
<polygon fill="black" stroke="black" points="133.94,-486.27 129.63,-476.59 126.96,-486.84 133.94,-486.27"/>
<text text-anchor="middle" x="142.22" y="-495.2" font-family="Times New Roman,serif" font-size="14.00">104</text>
</g>
<!-- 13 -->
<g id="node14" class="node">
<title>13</title>
<ellipse fill="none" stroke="black" cx="225.1" cy="-456.75" rx="39.59" ry="18"/>
<text text-anchor="middle" x="225.1" y="-451.32" font-family="Times New Roman,serif" font-size="14.00">(61, 61)</text>
</g>
<!-- 8&#45;&gt;13 -->
<g id="edge17" class="edge">
<title>8&#45;&gt;13</title>
<path fill="none" stroke="black" d="M151.6,-527.77C165.3,-514.72 184.99,-495.96 200.54,-481.14"/>
<polygon fill="black" stroke="black" points="202.77,-483.85 207.6,-474.42 197.94,-478.79 202.77,-483.85"/>
<text text-anchor="middle" x="198.22" y="-495.2" font-family="Times New Roman,serif" font-size="14.00">124</text>
</g>
<!-- 9&#45;&gt;13 -->
<g id="edge18" class="edge">
<title>9&#45;&gt;13</title>
<path fill="none" stroke="black" d="M230.68,-526.15C229.75,-514.76 228.51,-499.59 227.44,-486.43"/>
<polygon fill="black" stroke="black" points="230.94,-486.27 226.63,-476.59 223.96,-486.84 230.94,-486.27"/>
<text text-anchor="middle" x="239.22" y="-495.2" font-family="Times New Roman,serif" font-size="14.00">158</text>
</g>
<!-- 14 -->
<g id="node15" class="node">
<title>14</title>
<ellipse fill="none" stroke="black" cx="322.1" cy="-456.75" rx="39.59" ry="18"/>
<text text-anchor="middle" x="322.1" y="-451.32" font-family="Times New Roman,serif" font-size="14.00">(77, 31)</text>
</g>
<!-- 9&#45;&gt;14 -->
<g id="edge19" class="edge">
<title>9&#45;&gt;14</title>
<path fill="none" stroke="black" d="M248.6,-527.77C262.3,-514.72 281.99,-495.96 297.54,-481.14"/>
<polygon fill="black" stroke="black" points="299.77,-483.85 304.6,-474.42 294.94,-478.79 299.77,-483.85"/>
<text text-anchor="middle" x="295.22" y="-495.2" font-family="Times New Roman,serif" font-size="14.00">124</text>
</g>
<!-- 10&#45;&gt;14 -->
<g id="edge20" class="edge">
<title>10&#45;&gt;14</title>
<path fill="none" stroke="black" d="M324.49,-526.15C324.09,-514.76 323.56,-499.59 323.1,-486.43"/>
<polygon fill="black" stroke="black" points="326.6,-486.46 322.76,-476.59 319.61,-486.71 326.6,-486.46"/>
<text text-anchor="middle" x="333.22" y="-495.2" font-family="Times New Roman,serif" font-size="14.00">144</text>
</g>
<!-- 15 -->
<g id="node16" class="node">
<title>15</title>
<ellipse fill="none" stroke="black" cx="424.1" cy="-456.75" rx="44.08" ry="18"/>
<text text-anchor="middle" x="424.1" y="-451.32" font-family="Times New Roman,serif" font-size="14.00">(105, 13)</text>
</g>
<!-- 10&#45;&gt;15 -->
<g id="edge21" class="edge">
<title>10&#45;&gt;15</title>
<path fill="none" stroke="black" d="M342.34,-528.56C357.53,-515.41 379.9,-496.03 397.4,-480.87"/>
<polygon fill="black" stroke="black" points="399.63,-483.57 404.9,-474.38 395.05,-478.28 399.63,-483.57"/>
<text text-anchor="middle" x="393.22" y="-495.2" font-family="Times New Roman,serif" font-size="14.00">122</text>
</g>
<!-- 16 -->
<g id="node17" class="node">
<title>16</title>
<ellipse fill="none" stroke="black" cx="257.1" cy="-18" rx="48.57" ry="18"/>
<text text-anchor="middle" x="257.1" y="-12.57" font-family="Times New Roman,serif" font-size="14.00">(139, 140)</text>
</g>
<!-- 11&#45;&gt;16 -->
<g id="edge22" class="edge">
<title>11&#45;&gt;16</title>
<path fill="none" stroke="black" d="M34.13,-438.35C33.25,-421.03 32.1,-393.69 32.1,-370 32.1,-370 32.1,-370 32.1,-104.75 32.1,-71.81 56.85,-69.15 86.1,-54 120.78,-36.02 163.9,-27.28 198.16,-23.02"/>
<polygon fill="black" stroke="black" points="198.37,-26.52 207.91,-21.92 197.58,-19.57 198.37,-26.52"/>
<text text-anchor="middle" x="45.6" y="-231.95" font-family="Times New Roman,serif" font-size="14.00">1267</text>
</g>
<!-- 17 -->
<g id="node18" class="node">
<title>17</title>
<ellipse fill="none" stroke="black" cx="104.1" cy="-369" rx="44.08" ry="18"/>
<text text-anchor="middle" x="104.1" y="-363.57" font-family="Times New Roman,serif" font-size="14.00">(43, 107)</text>
</g>
<!-- 11&#45;&gt;17 -->
<g id="edge23" class="edge">
<title>11&#45;&gt;17</title>
<path fill="none" stroke="black" d="M48.07,-439.62C58.07,-427.2 72.07,-409.8 83.57,-395.51"/>
<polygon fill="black" stroke="black" points="86.21,-397.81 89.76,-387.82 80.76,-393.42 86.21,-397.81"/>
<text text-anchor="middle" x="86.22" y="-407.45" font-family="Times New Roman,serif" font-size="14.00">246</text>
</g>
<!-- 12&#45;&gt;17 -->
<g id="edge24" class="edge">
<title>12&#45;&gt;17</title>
<path fill="none" stroke="black" d="M123.24,-438.4C120.02,-426.89 115.72,-411.53 112.01,-398.28"/>
<polygon fill="black" stroke="black" points="115.42,-397.47 109.35,-388.78 108.68,-399.36 115.42,-397.47"/>
<text text-anchor="middle" x="124.85" y="-407.45" font-family="Times New Roman,serif" font-size="14.00">88</text>
</g>
<!-- 18 -->
<g id="node19" class="node">
<title>18</title>
<ellipse fill="none" stroke="black" cx="206.1" cy="-369" rx="39.59" ry="18"/>
<text text-anchor="middle" x="206.1" y="-363.57" font-family="Times New Roman,serif" font-size="14.00">(63, 79)</text>
</g>
<!-- 12&#45;&gt;18 -->
<g id="edge25" class="edge">
<title>12&#45;&gt;18</title>
<path fill="none" stroke="black" d="M142.77,-439.62C154.32,-426.93 170.6,-409.02 183.77,-394.55"/>
<polygon fill="black" stroke="black" points="186.33,-396.93 190.47,-387.18 181.15,-392.22 186.33,-396.93"/>
<text text-anchor="middle" x="183.22" y="-407.45" font-family="Times New Roman,serif" font-size="14.00">104</text>
</g>
<!-- 13&#45;&gt;18 -->
<g id="edge26" class="edge">
<title>13&#45;&gt;18</title>
<path fill="none" stroke="black" d="M221.25,-438.4C218.7,-426.89 215.3,-411.53 212.36,-398.28"/>
<polygon fill="black" stroke="black" points="215.84,-397.81 210.26,-388.8 209.01,-399.33 215.84,-397.81"/>
<text text-anchor="middle" x="223.85" y="-407.45" font-family="Times New Roman,serif" font-size="14.00">76</text>
</g>
<!-- 19 -->
<g id="node20" class="node">
<title>19</title>
<ellipse fill="none" stroke="black" cx="303.1" cy="-369" rx="39.59" ry="18"/>
<text text-anchor="middle" x="303.1" y="-363.57" font-family="Times New Roman,serif" font-size="14.00">(75, 63)</text>
</g>
<!-- 13&#45;&gt;19 -->
<g id="edge27" class="edge">
<title>13&#45;&gt;19</title>
<path fill="none" stroke="black" d="M239.77,-439.62C251.32,-426.93 267.6,-409.02 280.77,-394.55"/>
<polygon fill="black" stroke="black" points="283.33,-396.93 287.47,-387.18 278.15,-392.22 283.33,-396.93"/>
<text text-anchor="middle" x="276.85" y="-407.45" font-family="Times New Roman,serif" font-size="14.00">48</text>
</g>
<!-- 14&#45;&gt;19 -->
<g id="edge28" class="edge">
<title>14&#45;&gt;19</title>
<path fill="none" stroke="black" d="M318.25,-438.4C315.7,-426.89 312.3,-411.53 309.36,-398.28"/>
<polygon fill="black" stroke="black" points="312.84,-397.81 307.26,-388.8 306.01,-399.33 312.84,-397.81"/>
<text text-anchor="middle" x="324.22" y="-407.45" font-family="Times New Roman,serif" font-size="14.00">158</text>
</g>
<!-- 20 -->
<g id="node21" class="node">
<title>20</title>
<ellipse fill="none" stroke="black" cx="405.1" cy="-369" rx="44.08" ry="18"/>
<text text-anchor="middle" x="405.1" y="-363.57" font-family="Times New Roman,serif" font-size="14.00">(107, 39)</text>
</g>
<!-- 14&#45;&gt;20 -->
<g id="edge29" class="edge">
<title>14&#45;&gt;20</title>
<path fill="none" stroke="black" d="M337.32,-440.02C349.68,-427.25 367.33,-409.02 381.52,-394.36"/>
<polygon fill="black" stroke="black" points="383.91,-396.92 388.35,-387.3 378.88,-392.05 383.91,-396.92"/>
<text text-anchor="middle" x="380.22" y="-407.45" font-family="Times New Roman,serif" font-size="14.00">242</text>
</g>
<!-- 15&#45;&gt;16 -->
<g id="edge31" class="edge">
<title>15&#45;&gt;16</title>
<path fill="none" stroke="black" d="M441.45,-439.83C456.91,-423.83 477.1,-397.65 477.1,-370 477.1,-370 477.1,-370 477.1,-104.75 477.1,-71.81 452.29,-69.24 423.1,-54 390.05,-36.75 349.1,-28 316.14,-23.56"/>
<polygon fill="black" stroke="black" points="316.7,-20.11 306.34,-22.35 315.84,-27.05 316.7,-20.11"/>
<text text-anchor="middle" x="490.6" y="-231.95" font-family="Times New Roman,serif" font-size="14.00">1301</text>
</g>
<!-- 15&#45;&gt;20 -->
<g id="edge30" class="edge">
<title>15&#45;&gt;20</title>
<path fill="none" stroke="black" d="M420.25,-438.4C417.7,-426.89 414.3,-411.53 411.36,-398.28"/>
<polygon fill="black" stroke="black" points="414.84,-397.81 409.26,-388.8 408.01,-399.33 414.84,-397.81"/>
<text text-anchor="middle" x="426.22" y="-407.45" font-family="Times New Roman,serif" font-size="14.00">272</text>
</g>
<!-- 17&#45;&gt;16 -->
<g id="edge32" class="edge">
<title>17&#45;&gt;16</title>
<path fill="none" stroke="black" d="M95.73,-351.05C88.13,-334.07 78.1,-306.98 78.1,-282.25 78.1,-282.25 78.1,-282.25 78.1,-104.75 78.1,-50.5 145.8,-30.54 197.94,-23.22"/>
<polygon fill="black" stroke="black" points="198.14,-26.72 207.63,-21.99 197.27,-19.78 198.14,-26.72"/>
<text text-anchor="middle" x="91.6" y="-188.07" font-family="Times New Roman,serif" font-size="14.00">1013</text>
</g>
<!-- 21 -->
<g id="node22" class="node">
<title>21</title>
<ellipse fill="none" stroke="black" cx="151.1" cy="-281.25" rx="44.08" ry="18"/>
<text text-anchor="middle" x="151.1" y="-275.82" font-family="Times New Roman,serif" font-size="14.00">(53, 105)</text>
</g>
<!-- 17&#45;&gt;21 -->
<g id="edge33" class="edge">
<title>17&#45;&gt;21</title>
<path fill="none" stroke="black" d="M113.38,-351.06C119.95,-339.08 128.89,-322.77 136.41,-309.04"/>
<polygon fill="black" stroke="black" points="139.36,-310.93 141.1,-300.48 133.23,-307.57 139.36,-310.93"/>
<text text-anchor="middle" x="137.85" y="-319.7" font-family="Times New Roman,serif" font-size="14.00">36</text>
</g>
<!-- 18&#45;&gt;21 -->
<g id="edge34" class="edge">
<title>18&#45;&gt;21</title>
<path fill="none" stroke="black" d="M195.49,-351.47C187.7,-339.33 176.97,-322.59 168,-308.61"/>
<polygon fill="black" stroke="black" points="171.02,-306.83 162.67,-300.3 165.13,-310.61 171.02,-306.83"/>
<text text-anchor="middle" x="193.22" y="-319.7" font-family="Times New Roman,serif" font-size="14.00">112</text>
</g>
<!-- 22 -->
<g id="node23" class="node">
<title>22</title>
<ellipse fill="none" stroke="black" cx="254.1" cy="-281.25" rx="39.59" ry="18"/>
<text text-anchor="middle" x="254.1" y="-275.82" font-family="Times New Roman,serif" font-size="14.00">(81, 89)</text>
</g>
<!-- 18&#45;&gt;22 -->
<g id="edge35" class="edge">
<title>18&#45;&gt;22</title>
<path fill="none" stroke="black" d="M211.72,-351C215.39,-340.88 220.65,-327.96 226.85,-317.25 228.74,-313.98 230.9,-310.69 233.17,-307.49"/>
<polygon fill="black" stroke="black" points="235.94,-309.62 239.18,-299.53 230.36,-305.4 235.94,-309.62"/>
<text text-anchor="middle" x="236.22" y="-319.7" font-family="Times New Roman,serif" font-size="14.00">144</text>
</g>
<!-- 19&#45;&gt;22 -->
<g id="edge36" class="edge">
<title>19&#45;&gt;22</title>
<path fill="none" stroke="black" d="M293.42,-351.06C286.57,-339.08 277.25,-322.77 269.41,-309.04"/>
<polygon fill="black" stroke="black" points="272.51,-307.42 264.51,-300.47 266.43,-310.89 272.51,-307.42"/>
<text text-anchor="middle" x="292.22" y="-319.7" font-family="Times New Roman,serif" font-size="14.00">108</text>
</g>
<!-- 23 -->
<g id="node24" class="node">
<title>23</title>
<ellipse fill="none" stroke="black" cx="357.1" cy="-281.25" rx="44.08" ry="18"/>
<text text-anchor="middle" x="357.1" y="-275.82" font-family="Times New Roman,serif" font-size="14.00">(111, 63)</text>
</g>
<!-- 19&#45;&gt;23 -->
<g id="edge37" class="edge">
<title>19&#45;&gt;23</title>
<path fill="none" stroke="black" d="M313.51,-351.47C321.15,-339.33 331.7,-322.59 340.5,-308.61"/>
<polygon fill="black" stroke="black" points="343.36,-310.63 345.73,-300.31 337.43,-306.9 343.36,-310.63"/>
<text text-anchor="middle" x="344.22" y="-319.7" font-family="Times New Roman,serif" font-size="14.00">248</text>
</g>
<!-- 20&#45;&gt;16 -->
<g id="edge39" class="edge">
<title>20&#45;&gt;16</title>
<path fill="none" stroke="black" d="M412.82,-350.98C419.84,-333.96 429.1,-306.83 429.1,-282.25 429.1,-282.25 429.1,-282.25 429.1,-104.75 429.1,-52.9 365.72,-32.4 315.91,-24.3"/>
<polygon fill="black" stroke="black" points="316.45,-20.84 306.05,-22.84 315.43,-27.77 316.45,-20.84"/>
<text text-anchor="middle" x="439.22" y="-188.07" font-family="Times New Roman,serif" font-size="14.00">997</text>
</g>
<!-- 20&#45;&gt;23 -->
<g id="edge38" class="edge">
<title>20&#45;&gt;23</title>
<path fill="none" stroke="black" d="M395.61,-351.06C388.91,-339.08 379.78,-322.77 372.09,-309.04"/>
<polygon fill="black" stroke="black" points="375.24,-307.49 367.3,-300.48 369.13,-310.91 375.24,-307.49"/>
<text text-anchor="middle" x="395.22" y="-319.7" font-family="Times New Roman,serif" font-size="14.00">104</text>
</g>
<!-- 21&#45;&gt;16 -->
<g id="edge40" class="edge">
<title>21&#45;&gt;16</title>
<path fill="none" stroke="black" d="M150.42,-262.79C149.8,-241.96 149.36,-206.11 152.1,-175.5 155.68,-135.45 159.65,-125.27 174.1,-87.75 180.06,-72.26 178.59,-65.96 190.1,-54 196.77,-47.07 205.11,-41.23 213.62,-36.44"/>
<polygon fill="black" stroke="black" points="214.98,-39.68 222.26,-31.98 211.77,-33.46 214.98,-39.68"/>
<text text-anchor="middle" x="166.22" y="-144.2" font-family="Times New Roman,serif" font-size="14.00">741</text>
</g>
<!-- 24 -->
<g id="node25" class="node">
<title>24</title>
<ellipse fill="none" stroke="black" cx="205.1" cy="-193.5" rx="44.08" ry="18"/>
<text text-anchor="middle" x="205.1" y="-188.07" font-family="Times New Roman,serif" font-size="14.00">(87, 105)</text>
</g>
<!-- 21&#45;&gt;24 -->
<g id="edge41" class="edge">
<title>21&#45;&gt;24</title>
<path fill="none" stroke="black" d="M161.76,-263.31C169.38,-251.21 179.78,-234.7 188.48,-220.89"/>
<polygon fill="black" stroke="black" points="191.28,-223.01 193.64,-212.69 185.35,-219.28 191.28,-223.01"/>
<text text-anchor="middle" x="192.22" y="-231.95" font-family="Times New Roman,serif" font-size="14.00">214</text>
</g>
<!-- 22&#45;&gt;24 -->
<g id="edge42" class="edge">
<title>22&#45;&gt;24</title>
<path fill="none" stroke="black" d="M244.42,-263.31C237.57,-251.33 228.25,-235.02 220.41,-221.29"/>
<polygon fill="black" stroke="black" points="223.51,-219.67 215.51,-212.72 217.43,-223.14 223.51,-219.67"/>
<text text-anchor="middle" x="239.85" y="-231.95" font-family="Times New Roman,serif" font-size="14.00">74</text>
</g>
<!-- 25 -->
<g id="node26" class="node">
<title>25</title>
<ellipse fill="none" stroke="black" cx="311.1" cy="-193.5" rx="44.08" ry="18"/>
<text text-anchor="middle" x="311.1" y="-188.07" font-family="Times New Roman,serif" font-size="14.00">(103, 77)</text>
</g>
<!-- 22&#45;&gt;25 -->
<g id="edge43" class="edge">
<title>22&#45;&gt;25</title>
<path fill="none" stroke="black" d="M265.09,-263.72C273.16,-251.58 284.28,-234.84 293.57,-220.86"/>
<polygon fill="black" stroke="black" points="296.49,-222.8 299.11,-212.54 290.66,-218.93 296.49,-222.8"/>
<text text-anchor="middle" x="297.22" y="-231.95" font-family="Times New Roman,serif" font-size="14.00">150</text>
</g>
<!-- 23&#45;&gt;16 -->
<g id="edge45" class="edge">
<title>23&#45;&gt;16</title>
<path fill="none" stroke="black" d="M359.34,-263.05C361.03,-249.17 363.2,-229.11 364.1,-211.5 366.94,-155.55 366.8,-137 340.1,-87.75 329.26,-67.76 310.01,-51.26 292.78,-39.44"/>
<polygon fill="black" stroke="black" points="295.03,-36.73 284.75,-34.19 291.2,-42.59 295.03,-36.73"/>
<text text-anchor="middle" x="374.22" y="-144.2" font-family="Times New Roman,serif" font-size="14.00">725</text>
</g>
<!-- 23&#45;&gt;25 -->
<g id="edge44" class="edge">
<title>23&#45;&gt;25</title>
<path fill="none" stroke="black" d="M348.01,-263.31C341.58,-251.33 332.83,-235.02 325.47,-221.29"/>
<polygon fill="black" stroke="black" points="328.69,-219.9 320.88,-212.74 322.52,-223.21 328.69,-219.9"/>
<text text-anchor="middle" x="344.85" y="-231.95" font-family="Times New Roman,serif" font-size="14.00">82</text>
</g>
<!-- 24&#45;&gt;16 -->
<g id="edge46" class="edge">
<title>24&#45;&gt;16</title>
<path fill="none" stroke="black" d="M195.64,-175.53C185.12,-154.26 171.17,-117.04 183.85,-87.75 192.05,-68.8 208.34,-52.67 223.48,-40.8"/>
<polygon fill="black" stroke="black" points="225.51,-43.65 231.46,-34.88 221.34,-38.03 225.51,-43.65"/>
<text text-anchor="middle" x="193.22" y="-100.33" font-family="Times New Roman,serif" font-size="14.00">523</text>
</g>
<!-- 26 -->
<g id="node27" class="node">
<title>26</title>
<ellipse fill="none" stroke="black" cx="257.1" cy="-105.75" rx="44.08" ry="18"/>
<text text-anchor="middle" x="257.1" y="-100.33" font-family="Times New Roman,serif" font-size="14.00">(109, 99)</text>
</g>
<!-- 24&#45;&gt;26 -->
<g id="edge47" class="edge">
<title>24&#45;&gt;26</title>
<path fill="none" stroke="black" d="M215.37,-175.56C222.71,-163.46 232.72,-146.95 241.09,-133.14"/>
<polygon fill="black" stroke="black" points="243.87,-135.32 246.06,-124.95 237.88,-131.69 243.87,-135.32"/>
<text text-anchor="middle" x="245.22" y="-144.2" font-family="Times New Roman,serif" font-size="14.00">108</text>
</g>
<!-- 25&#45;&gt;16 -->
<g id="edge49" class="edge">
<title>25&#45;&gt;16</title>
<path fill="none" stroke="black" d="M314.34,-175.2C317.56,-153.91 320.67,-117 310.1,-87.75 304.16,-71.33 292.74,-55.69 282.01,-43.48"/>
<polygon fill="black" stroke="black" points="284.79,-41.34 275.44,-36.36 279.65,-46.08 284.79,-41.34"/>
<text text-anchor="middle" x="326.22" y="-100.33" font-family="Times New Roman,serif" font-size="14.00">611</text>
</g>
<!-- 25&#45;&gt;26 -->
<g id="edge48" class="edge">
<title>25&#45;&gt;26</title>
<path fill="none" stroke="black" d="M300.43,-175.56C292.81,-163.46 282.41,-146.95 273.71,-133.14"/>
<polygon fill="black" stroke="black" points="276.84,-131.53 268.55,-124.94 270.92,-135.26 276.84,-131.53"/>
<text text-anchor="middle" x="298.22" y="-144.2" font-family="Times New Roman,serif" font-size="14.00">104</text>
</g>
<!-- 26&#45;&gt;16 -->
<g id="edge50" class="edge">
<title>26&#45;&gt;16</title>
<path fill="none" stroke="black" d="M257.1,-87.4C257.1,-76.01 257.1,-60.84 257.1,-47.68"/>
<polygon fill="black" stroke="black" points="260.6,-47.84 257.1,-37.84 253.6,-47.84 260.6,-47.84"/>
<text text-anchor="middle" x="267.22" y="-56.45" font-family="Times New Roman,serif" font-size="14.00">415</text>
</g>
</g>
</svg>
