<?xml version="1.0" encoding="UTF-8" standalone="no"?>
<!DOCTYPE svg PUBLIC "-//W3C//DTD SVG 1.1//EN"
 "http://www.w3.org/Graphics/SVG/1.1/DTD/svg11.dtd">
<!-- Generated by graphviz version 9.0.0 (20230911.1827)
 -->
<!-- Pages: 1 -->
<svg width="504pt" height="535pt"
 viewBox="0.00 0.00 503.82 534.63" xmlns="http://www.w3.org/2000/svg" xmlns:xlink="http://www.w3.org/1999/xlink">
<g id="graph0" class="graph" transform="scale(1 1) rotate(0) translate(4 530.63)">
<polygon fill="white" stroke="none" points="-4,4 -4,-530.63 499.82,-530.63 499.82,4 -4,4"/>
<!-- 0 -->
<g id="node1" class="node">
<title>0</title>
<ellipse fill="none" stroke="black" cx="71.18" cy="-99.99" rx="27" ry="18"/>
<text text-anchor="middle" x="71.18" y="-94.57" font-family="Times New Roman,serif" font-size="14.00">0</text>
</g>
<!-- 1 -->
<g id="node2" class="node">
<title>1</title>
<ellipse fill="none" stroke="black" cx="99.55" cy="-166.84" rx="27" ry="18"/>
<text text-anchor="middle" x="99.55" y="-161.41" font-family="Times New Roman,serif" font-size="14.00">1</text>
</g>
<!-- 0&#45;&gt;1 -->
<g id="edge63" class="edge">
<title>0&#45;&gt;1</title>
<path fill="none" stroke="black" d="M72.53,-118.11C74.67,-125.13 77.82,-133.29 81.27,-140.9"/>
<polygon fill="black" stroke="black" points="78.07,-142.32 85.61,-149.76 84.36,-139.24 78.07,-142.32"/>
<text text-anchor="middle" x="66.77" y="-131.96" font-family="Times New Roman,serif" font-size="14.00">168</text>
</g>
<!-- 22 -->
<g id="node23" class="node">
<title>22</title>
<ellipse fill="none" stroke="black" cx="154.72" cy="-70.12" rx="27" ry="18"/>
<text text-anchor="middle" x="154.72" y="-64.7" font-family="Times New Roman,serif" font-size="14.00">22</text>
</g>
<!-- 0&#45;&gt;22 -->
<g id="edge65" class="edge">
<title>0&#45;&gt;22</title>
<path fill="none" stroke="black" d="M95.34,-91.35C103.05,-88.6 111.73,-85.49 120.03,-82.52"/>
<polygon fill="black" stroke="black" points="120.94,-85.91 129.18,-79.25 118.59,-79.32 120.94,-85.91"/>
<text text-anchor="middle" x="117.81" y="-89.39" font-family="Times New Roman,serif" font-size="14.00">208</text>
</g>
<!-- 1&#45;&gt;0 -->
<g id="edge64" class="edge">
<title>1&#45;&gt;0</title>
<path fill="none" stroke="black" d="M98.2,-148.72C96.05,-141.7 92.9,-133.55 89.45,-125.93"/>
<polygon fill="black" stroke="black" points="92.65,-124.51 85.11,-117.07 86.36,-127.59 92.65,-124.51"/>
<text text-anchor="middle" x="103.95" y="-124.02" font-family="Times New Roman,serif" font-size="14.00">168</text>
</g>
<!-- 11 -->
<g id="node12" class="node">
<title>11</title>
<ellipse fill="none" stroke="black" cx="27" cy="-167.17" rx="27" ry="18"/>
<text text-anchor="middle" x="27" y="-161.74" font-family="Times New Roman,serif" font-size="14.00">11</text>
</g>
<!-- 1&#45;&gt;11 -->
<g id="edge46" class="edge">
<title>1&#45;&gt;11</title>
<path fill="none" stroke="black" d="M73.74,-160.46C70.53,-160.32 67.2,-160.25 63.87,-160.25"/>
<polygon fill="black" stroke="black" points="64.08,-156.74 54.18,-160.52 64.28,-163.74 64.08,-156.74"/>
<text text-anchor="middle" x="63.74" y="-147.06" font-family="Times New Roman,serif" font-size="14.00">246</text>
</g>
<!-- 12 -->
<g id="node13" class="node">
<title>12</title>
<ellipse fill="none" stroke="black" cx="113.81" cy="-249.49" rx="27" ry="18"/>
<text text-anchor="middle" x="113.81" y="-244.07" font-family="Times New Roman,serif" font-size="14.00">12</text>
</g>
<!-- 1&#45;&gt;12 -->
<g id="edge48" class="edge">
<title>1&#45;&gt;12</title>
<path fill="none" stroke="black" d="M96.99,-184.92C97.67,-195.57 99.73,-209.28 102.36,-221.33"/>
<polygon fill="black" stroke="black" points="98.89,-221.86 104.67,-230.74 105.69,-220.2 98.89,-221.86"/>
<text text-anchor="middle" x="92.93" y="-205.57" font-family="Times New Roman,serif" font-size="14.00">88</text>
</g>
<!-- 23 -->
<g id="node24" class="node">
<title>23</title>
<ellipse fill="none" stroke="black" cx="181.01" cy="-146.58" rx="27" ry="18"/>
<text text-anchor="middle" x="181.01" y="-141.15" font-family="Times New Roman,serif" font-size="14.00">23</text>
</g>
<!-- 1&#45;&gt;23 -->
<g id="edge67" class="edge">
<title>1&#45;&gt;23</title>
<path fill="none" stroke="black" d="M126.85,-166.57C133.86,-165.25 141.47,-163.47 148.71,-161.48"/>
<polygon fill="black" stroke="black" points="149.61,-164.86 158.19,-158.65 147.6,-158.16 149.61,-164.86"/>
<text text-anchor="middle" x="144.53" y="-166.47" font-family="Times New Roman,serif" font-size="14.00">36</text>
</g>
<!-- 2 -->
<g id="node3" class="node">
<title>2</title>
<ellipse fill="none" stroke="black" cx="64.21" cy="-427.64" rx="27" ry="18"/>
<text text-anchor="middle" x="64.21" y="-422.22" font-family="Times New Roman,serif" font-size="14.00">2</text>
</g>
<!-- 4 -->
<g id="node5" class="node">
<title>4</title>
<ellipse fill="none" stroke="black" cx="46.92" cy="-342.63" rx="27" ry="18"/>
<text text-anchor="middle" x="46.92" y="-337.2" font-family="Times New Roman,serif" font-size="14.00">4</text>
</g>
<!-- 2&#45;&gt;4 -->
<g id="edge7" class="edge">
<title>2&#45;&gt;4</title>
<path fill="none" stroke="black" d="M60.54,-409.61C58.33,-398.75 55.47,-384.66 52.94,-372.21"/>
<polygon fill="black" stroke="black" points="56.37,-371.51 50.95,-362.41 49.51,-372.91 56.37,-371.51"/>
<text text-anchor="middle" x="46.61" y="-393.36" font-family="Times New Roman,serif" font-size="14.00">180</text>
</g>
<!-- 5 -->
<g id="node6" class="node">
<title>5</title>
<ellipse fill="none" stroke="black" cx="147.45" cy="-417.11" rx="27" ry="18"/>
<text text-anchor="middle" x="147.45" y="-411.68" font-family="Times New Roman,serif" font-size="14.00">5</text>
</g>
<!-- 2&#45;&gt;5 -->
<g id="edge9" class="edge">
<title>2&#45;&gt;5</title>
<path fill="none" stroke="black" d="M91.34,-430.59C98.12,-430.12 105.49,-429.31 112.59,-428.26"/>
<polygon fill="black" stroke="black" points="112.99,-431.74 122.27,-426.62 111.82,-424.84 112.99,-431.74"/>
<text text-anchor="middle" x="107.03" y="-416.13" font-family="Times New Roman,serif" font-size="14.00">104</text>
</g>
<!-- 3 -->
<g id="node4" class="node">
<title>3</title>
<ellipse fill="none" stroke="black" cx="169.88" cy="-497.68" rx="27" ry="18"/>
<text text-anchor="middle" x="169.88" y="-492.26" font-family="Times New Roman,serif" font-size="14.00">3</text>
</g>
<!-- 3&#45;&gt;5 -->
<g id="edge11" class="edge">
<title>3&#45;&gt;5</title>
<path fill="none" stroke="black" d="M170.62,-479.49C168.92,-469.23 165.62,-456.22 161.91,-444.74"/>
<polygon fill="black" stroke="black" points="165.23,-443.62 158.62,-435.35 158.63,-445.94 165.23,-443.62"/>
<text text-anchor="middle" x="156.14" y="-464.56" font-family="Times New Roman,serif" font-size="14.00">244</text>
</g>
<!-- 6 -->
<g id="node7" class="node">
<title>6</title>
<ellipse fill="none" stroke="black" cx="255.19" cy="-480.11" rx="27" ry="18"/>
<text text-anchor="middle" x="255.19" y="-474.68" font-family="Times New Roman,serif" font-size="14.00">6</text>
</g>
<!-- 3&#45;&gt;6 -->
<g id="edge13" class="edge">
<title>3&#45;&gt;6</title>
<path fill="none" stroke="black" d="M195.94,-492.31C202.82,-490.9 210.39,-489.34 217.74,-487.82"/>
<polygon fill="black" stroke="black" points="218.43,-491.25 227.51,-485.81 217.01,-484.4 218.43,-491.25"/>
<text text-anchor="middle" x="216.97" y="-492.52" font-family="Times New Roman,serif" font-size="14.00">204</text>
</g>
<!-- 7 -->
<g id="node8" class="node">
<title>7</title>
<ellipse fill="none" stroke="black" cx="33.14" cy="-255.73" rx="27" ry="18"/>
<text text-anchor="middle" x="33.14" y="-250.31" font-family="Times New Roman,serif" font-size="14.00">7</text>
</g>
<!-- 4&#45;&gt;7 -->
<g id="edge15" class="edge">
<title>4&#45;&gt;7</title>
<path fill="none" stroke="black" d="M44.07,-324.62C42.27,-313.28 39.9,-298.37 37.83,-285.32"/>
<polygon fill="black" stroke="black" points="41.3,-284.84 36.27,-275.51 34.39,-285.93 41.3,-284.84"/>
<text text-anchor="middle" x="30.82" y="-307.42" font-family="Times New Roman,serif" font-size="14.00">148</text>
</g>
<!-- 8 -->
<g id="node9" class="node">
<title>8</title>
<ellipse fill="none" stroke="black" cx="129.64" cy="-333.33" rx="27" ry="18"/>
<text text-anchor="middle" x="129.64" y="-327.9" font-family="Times New Roman,serif" font-size="14.00">8</text>
</g>
<!-- 4&#45;&gt;8 -->
<g id="edge17" class="edge">
<title>4&#45;&gt;8</title>
<path fill="none" stroke="black" d="M73.8,-345.97C80.4,-345.61 87.55,-344.93 94.47,-344.02"/>
<polygon fill="black" stroke="black" points="94.9,-347.5 104.25,-342.51 93.83,-340.58 94.9,-347.5"/>
<text text-anchor="middle" x="89.2" y="-331.7" font-family="Times New Roman,serif" font-size="14.00">118</text>
</g>
<!-- 5&#45;&gt;2 -->
<g id="edge10" class="edge">
<title>5&#45;&gt;2</title>
<path fill="none" stroke="black" d="M120.31,-414.16C113.53,-414.63 106.16,-415.44 99.07,-416.49"/>
<polygon fill="black" stroke="black" points="98.66,-413.01 89.39,-418.13 99.83,-419.91 98.66,-413.01"/>
<text text-anchor="middle" x="109.69" y="-402.03" font-family="Times New Roman,serif" font-size="14.00">104</text>
</g>
<!-- 5&#45;&gt;3 -->
<g id="edge12" class="edge">
<title>5&#45;&gt;3</title>
<path fill="none" stroke="black" d="M146.71,-435.3C148.41,-445.56 151.71,-458.57 155.42,-470.05"/>
<polygon fill="black" stroke="black" points="152.1,-471.17 158.71,-479.44 158.7,-468.85 152.1,-471.17"/>
<text text-anchor="middle" x="140.94" y="-439.38" font-family="Times New Roman,serif" font-size="14.00">244</text>
</g>
<!-- 5&#45;&gt;8 -->
<g id="edge19" class="edge">
<title>5&#45;&gt;8</title>
<path fill="none" stroke="black" d="M149.27,-399C148.14,-387.99 145.42,-373.71 142.2,-361.28"/>
<polygon fill="black" stroke="black" points="145.65,-360.63 139.54,-351.98 138.92,-362.56 145.65,-360.63"/>
<text text-anchor="middle" x="138.98" y="-382.59" font-family="Times New Roman,serif" font-size="14.00">90</text>
</g>
<!-- 9 -->
<g id="node10" class="node">
<title>9</title>
<ellipse fill="none" stroke="black" cx="231.63" cy="-400.5" rx="27" ry="18"/>
<text text-anchor="middle" x="231.63" y="-395.08" font-family="Times New Roman,serif" font-size="14.00">9</text>
</g>
<!-- 5&#45;&gt;9 -->
<g id="edge21" class="edge">
<title>5&#45;&gt;9</title>
<path fill="none" stroke="black" d="M174.84,-418.13C182.32,-417.1 190.5,-415.6 198.27,-413.87"/>
<polygon fill="black" stroke="black" points="198.88,-417.32 207.76,-411.54 197.21,-410.52 198.88,-417.32"/>
<text text-anchor="middle" x="193.31" y="-418.45" font-family="Times New Roman,serif" font-size="14.00">56</text>
</g>
<!-- 6&#45;&gt;9 -->
<g id="edge23" class="edge">
<title>6&#45;&gt;9</title>
<path fill="none" stroke="black" d="M255.6,-461.62C253.74,-451.6 250.34,-439.03 246.55,-427.89"/>
<polygon fill="black" stroke="black" points="249.94,-426.98 243.2,-418.8 243.37,-429.4 249.94,-426.98"/>
<text text-anchor="middle" x="240.95" y="-447.21" font-family="Times New Roman,serif" font-size="14.00">236</text>
</g>
<!-- 18 -->
<g id="node19" class="node">
<title>18</title>
<ellipse fill="none" stroke="black" cx="340.71" cy="-458.16" rx="27" ry="18"/>
<text text-anchor="middle" x="340.71" y="-452.73" font-family="Times New Roman,serif" font-size="14.00">18</text>
</g>
<!-- 6&#45;&gt;18 -->
<g id="edge25" class="edge">
<title>6&#45;&gt;18</title>
<path fill="none" stroke="black" d="M280.85,-473.52C288.12,-471.65 296.19,-469.58 303.98,-467.59"/>
<polygon fill="black" stroke="black" points="304.79,-470.99 313.61,-465.11 303.05,-464.21 304.79,-470.99"/>
<text text-anchor="middle" x="302.54" y="-473" font-family="Times New Roman,serif" font-size="14.00">148</text>
</g>
<!-- 7&#45;&gt;11 -->
<g id="edge27" class="edge">
<title>7&#45;&gt;11</title>
<path fill="none" stroke="black" d="M31.87,-237.38C31.05,-225.63 29.98,-210.11 29.04,-196.65"/>
<polygon fill="black" stroke="black" points="32.56,-196.74 28.37,-187 25.57,-197.22 32.56,-196.74"/>
<text text-anchor="middle" x="20.33" y="-219.46" font-family="Times New Roman,serif" font-size="14.00">112</text>
</g>
<!-- 7&#45;&gt;12 -->
<g id="edge29" class="edge">
<title>7&#45;&gt;12</title>
<path fill="none" stroke="black" d="M59.6,-260.06C65.55,-259.94 71.97,-259.56 78.23,-258.98"/>
<polygon fill="black" stroke="black" points="78.16,-262.51 87.69,-257.89 77.36,-255.56 78.16,-262.51"/>
<text text-anchor="middle" x="73.97" y="-246.22" font-family="Times New Roman,serif" font-size="14.00">238</text>
</g>
<!-- 8&#45;&gt;4 -->
<g id="edge18" class="edge">
<title>8&#45;&gt;4</title>
<path fill="none" stroke="black" d="M102.76,-329.98C96.17,-330.34 89.02,-331.02 82.1,-331.93"/>
<polygon fill="black" stroke="black" points="81.67,-328.46 72.32,-333.44 82.73,-335.38 81.67,-328.46"/>
<text text-anchor="middle" x="92.43" y="-317.66" font-family="Times New Roman,serif" font-size="14.00">118</text>
</g>
<!-- 8&#45;&gt;5 -->
<g id="edge20" class="edge">
<title>8&#45;&gt;5</title>
<path fill="none" stroke="black" d="M127.82,-351.43C128.94,-362.44 131.66,-376.72 134.89,-389.16"/>
<polygon fill="black" stroke="black" points="131.43,-389.8 137.55,-398.46 138.17,-387.88 131.43,-389.8"/>
<text text-anchor="middle" x="124.6" y="-372.75" font-family="Times New Roman,serif" font-size="14.00">90</text>
</g>
<!-- 8&#45;&gt;12 -->
<g id="edge31" class="edge">
<title>8&#45;&gt;12</title>
<path fill="none" stroke="black" d="M131.86,-314.92C130.97,-304.09 128.65,-290.18 125.79,-277.97"/>
<polygon fill="black" stroke="black" points="129.2,-277.2 123.3,-268.41 122.43,-278.97 129.2,-277.2"/>
<text text-anchor="middle" x="118.7" y="-298.89" font-family="Times New Roman,serif" font-size="14.00">104</text>
</g>
<!-- 13 -->
<g id="node14" class="node">
<title>13</title>
<ellipse fill="none" stroke="black" cx="214.29" cy="-315.93" rx="27" ry="18"/>
<text text-anchor="middle" x="214.29" y="-310.5" font-family="Times New Roman,serif" font-size="14.00">13</text>
</g>
<!-- 8&#45;&gt;13 -->
<g id="edge33" class="edge">
<title>8&#45;&gt;13</title>
<path fill="none" stroke="black" d="M156.76,-334.16C164.52,-333.04 173.07,-331.41 181.14,-329.52"/>
<polygon fill="black" stroke="black" points="181.83,-332.96 190.65,-327.1 180.1,-326.18 181.83,-332.96"/>
<text text-anchor="middle" x="174.01" y="-318.54" font-family="Times New Roman,serif" font-size="14.00">124</text>
</g>
<!-- 9&#45;&gt;5 -->
<g id="edge22" class="edge">
<title>9&#45;&gt;5</title>
<path fill="none" stroke="black" d="M204.23,-399.49C196.76,-400.52 188.57,-402.01 180.8,-403.75"/>
<polygon fill="black" stroke="black" points="180.19,-400.29 171.32,-406.08 181.86,-407.09 180.19,-400.29"/>
<text text-anchor="middle" x="185.77" y="-388.32" font-family="Times New Roman,serif" font-size="14.00">56</text>
</g>
<!-- 9&#45;&gt;6 -->
<g id="edge24" class="edge">
<title>9&#45;&gt;6</title>
<path fill="none" stroke="black" d="M231.22,-418.99C233.07,-429.01 236.48,-441.58 240.27,-452.72"/>
<polygon fill="black" stroke="black" points="236.88,-453.63 243.61,-461.81 243.44,-451.22 236.88,-453.63"/>
<text text-anchor="middle" x="225.62" y="-422.55" font-family="Times New Roman,serif" font-size="14.00">236</text>
</g>
<!-- 9&#45;&gt;13 -->
<g id="edge35" class="edge">
<title>9&#45;&gt;13</title>
<path fill="none" stroke="black" d="M233.55,-382.27C232.48,-371.1 229.81,-356.56 226.63,-343.95"/>
<polygon fill="black" stroke="black" points="230.05,-343.2 223.99,-334.51 223.31,-345.08 230.05,-343.2"/>
<text text-anchor="middle" x="219.96" y="-365.56" font-family="Times New Roman,serif" font-size="14.00">158</text>
</g>
<!-- 14 -->
<g id="node15" class="node">
<title>14</title>
<ellipse fill="none" stroke="black" cx="314.96" cy="-381.67" rx="27" ry="18"/>
<text text-anchor="middle" x="314.96" y="-376.25" font-family="Times New Roman,serif" font-size="14.00">14</text>
</g>
<!-- 9&#45;&gt;14 -->
<g id="edge37" class="edge">
<title>9&#45;&gt;14</title>
<path fill="none" stroke="black" d="M258.93,-400.8C266.41,-399.56 274.59,-397.83 282.34,-395.86"/>
<polygon fill="black" stroke="black" points="283.08,-399.29 291.78,-393.25 281.21,-392.54 283.08,-399.29"/>
<text text-anchor="middle" x="275.7" y="-385.03" font-family="Times New Roman,serif" font-size="14.00">124</text>
</g>
<!-- 10 -->
<g id="node11" class="node">
<title>10</title>
<ellipse fill="none" stroke="black" cx="197.95" cy="-231.02" rx="27" ry="18"/>
<text text-anchor="middle" x="197.95" y="-225.59" font-family="Times New Roman,serif" font-size="14.00">10</text>
</g>
<!-- 10&#45;&gt;12 -->
<g id="edge50" class="edge">
<title>10&#45;&gt;12</title>
<path fill="none" stroke="black" d="M170.9,-230.53C163.18,-231.75 154.69,-233.49 146.66,-235.47"/>
<polygon fill="black" stroke="black" points="145.96,-232.04 137.21,-238.02 147.78,-238.8 145.96,-232.04"/>
<text text-anchor="middle" x="158.78" y="-219.7" font-family="Times New Roman,serif" font-size="14.00">104</text>
</g>
<!-- 10&#45;&gt;13 -->
<g id="edge52" class="edge">
<title>10&#45;&gt;13</title>
<path fill="none" stroke="black" d="M195.81,-249.25C196.75,-260.45 199.25,-275.04 202.28,-287.72"/>
<polygon fill="black" stroke="black" points="198.85,-288.44 204.8,-297.2 205.62,-286.64 198.85,-288.44"/>
<text text-anchor="middle" x="192.3" y="-270.93" font-family="Times New Roman,serif" font-size="14.00">76</text>
</g>
<!-- 10&#45;&gt;23 -->
<g id="edge69" class="edge">
<title>10&#45;&gt;23</title>
<path fill="none" stroke="black" d="M199.96,-212.84C198.95,-201.76 196.38,-187.37 193.28,-174.83"/>
<polygon fill="black" stroke="black" points="196.73,-174.17 190.71,-165.44 189.97,-176.01 196.73,-174.17"/>
<text text-anchor="middle" x="186.5" y="-196.28" font-family="Times New Roman,serif" font-size="14.00">112</text>
</g>
<!-- 24 -->
<g id="node25" class="node">
<title>24</title>
<ellipse fill="none" stroke="black" cx="282.36" cy="-212.17" rx="27" ry="18"/>
<text text-anchor="middle" x="282.36" y="-206.75" font-family="Times New Roman,serif" font-size="14.00">24</text>
</g>
<!-- 10&#45;&gt;24 -->
<g id="edge71" class="edge">
<title>10&#45;&gt;24</title>
<path fill="none" stroke="black" d="M225.1,-231.38C232.92,-230.12 241.52,-228.32 249.63,-226.28"/>
<polygon fill="black" stroke="black" points="250.46,-229.68 259.18,-223.66 248.61,-222.93 250.46,-229.68"/>
<text text-anchor="middle" x="242.43" y="-215.53" font-family="Times New Roman,serif" font-size="14.00">144</text>
</g>
<!-- 11&#45;&gt;0 -->
<g id="edge43" class="edge">
<title>11&#45;&gt;0</title>
<path fill="none" stroke="black" d="M37.92,-150.56C42.72,-143.27 48.47,-134.53 53.82,-126.38"/>
<polygon fill="black" stroke="black" points="56.67,-128.42 59.25,-118.14 50.83,-124.57 56.67,-128.42"/>
<text text-anchor="middle" x="35.75" y="-125.17" font-family="Times New Roman,serif" font-size="14.00">422</text>
</g>
<!-- 11&#45;&gt;1 -->
<g id="edge45" class="edge">
<title>11&#45;&gt;1</title>
<path fill="none" stroke="black" d="M52.81,-173.54C56.02,-173.69 59.35,-173.76 62.68,-173.75"/>
<polygon fill="black" stroke="black" points="62.46,-177.26 72.36,-173.49 62.27,-170.26 62.46,-177.26"/>
<text text-anchor="middle" x="67.87" y="-176.1" font-family="Times New Roman,serif" font-size="14.00">246</text>
</g>
<!-- 12&#45;&gt;1 -->
<g id="edge47" class="edge">
<title>12&#45;&gt;1</title>
<path fill="none" stroke="black" d="M116.36,-231.41C115.68,-220.76 113.62,-207.05 110.99,-195"/>
<polygon fill="black" stroke="black" points="114.46,-194.47 108.68,-185.59 107.66,-196.13 114.46,-194.47"/>
<text text-anchor="middle" x="106.93" y="-215.66" font-family="Times New Roman,serif" font-size="14.00">88</text>
</g>
<!-- 12&#45;&gt;7 -->
<g id="edge30" class="edge">
<title>12&#45;&gt;7</title>
<path fill="none" stroke="black" d="M87.35,-245.17C81.39,-245.29 74.98,-245.66 68.71,-246.24"/>
<polygon fill="black" stroke="black" points="68.78,-242.71 59.25,-247.34 69.58,-249.67 68.78,-242.71"/>
<text text-anchor="middle" x="72.97" y="-232.4" font-family="Times New Roman,serif" font-size="14.00">238</text>
</g>
<!-- 12&#45;&gt;8 -->
<g id="edge32" class="edge">
<title>12&#45;&gt;8</title>
<path fill="none" stroke="black" d="M111.59,-267.9C112.48,-278.72 114.8,-292.63 117.66,-304.84"/>
<polygon fill="black" stroke="black" points="114.24,-305.61 120.15,-314.41 121.02,-303.85 114.24,-305.61"/>
<text text-anchor="middle" x="104.5" y="-273.07" font-family="Times New Roman,serif" font-size="14.00">104</text>
</g>
<!-- 12&#45;&gt;10 -->
<g id="edge49" class="edge">
<title>12&#45;&gt;10</title>
<path fill="none" stroke="black" d="M140.86,-249.97C148.58,-248.76 157.07,-247.02 165.1,-245.03"/>
<polygon fill="black" stroke="black" points="165.8,-248.47 174.54,-242.48 163.98,-241.71 165.8,-248.47"/>
<text text-anchor="middle" x="163.1" y="-249.95" font-family="Times New Roman,serif" font-size="14.00">104</text>
</g>
<!-- 13&#45;&gt;8 -->
<g id="edge34" class="edge">
<title>13&#45;&gt;8</title>
<path fill="none" stroke="black" d="M187.17,-315.1C179.41,-316.22 170.86,-317.85 162.78,-319.73"/>
<polygon fill="black" stroke="black" points="162.1,-316.29 153.27,-322.16 163.83,-323.07 162.1,-316.29"/>
<text text-anchor="middle" x="169.91" y="-304.11" font-family="Times New Roman,serif" font-size="14.00">124</text>
</g>
<!-- 13&#45;&gt;9 -->
<g id="edge36" class="edge">
<title>13&#45;&gt;9</title>
<path fill="none" stroke="black" d="M212.36,-334.16C213.43,-345.34 216.1,-359.87 219.29,-372.49"/>
<polygon fill="black" stroke="black" points="215.86,-373.23 221.92,-381.92 222.61,-371.35 215.86,-373.23"/>
<text text-anchor="middle" x="205.7" y="-340.02" font-family="Times New Roman,serif" font-size="14.00">158</text>
</g>
<!-- 13&#45;&gt;10 -->
<g id="edge51" class="edge">
<title>13&#45;&gt;10</title>
<path fill="none" stroke="black" d="M216.43,-297.7C215.49,-286.49 212.99,-271.9 209.96,-259.23"/>
<polygon fill="black" stroke="black" points="213.39,-258.51 207.44,-249.74 206.62,-260.3 213.39,-258.51"/>
<text text-anchor="middle" x="206.44" y="-280.91" font-family="Times New Roman,serif" font-size="14.00">76</text>
</g>
<!-- 19 -->
<g id="node20" class="node">
<title>19</title>
<ellipse fill="none" stroke="black" cx="298.72" cy="-297.1" rx="27" ry="18"/>
<text text-anchor="middle" x="298.72" y="-291.67" font-family="Times New Roman,serif" font-size="14.00">19</text>
</g>
<!-- 13&#45;&gt;19 -->
<g id="edge53" class="edge">
<title>13&#45;&gt;19</title>
<path fill="none" stroke="black" d="M241.44,-316.3C249.26,-315.04 257.86,-313.24 265.98,-311.2"/>
<polygon fill="black" stroke="black" points="266.81,-314.6 275.53,-308.58 264.96,-307.85 266.81,-314.6"/>
<text text-anchor="middle" x="260.46" y="-316.2" font-family="Times New Roman,serif" font-size="14.00">48</text>
</g>
<!-- 14&#45;&gt;9 -->
<g id="edge38" class="edge">
<title>14&#45;&gt;9</title>
<path fill="none" stroke="black" d="M287.66,-381.38C280.18,-382.62 272,-384.35 264.25,-386.32"/>
<polygon fill="black" stroke="black" points="263.52,-382.89 254.81,-388.93 265.38,-389.63 263.52,-382.89"/>
<text text-anchor="middle" x="270.9" y="-370.55" font-family="Times New Roman,serif" font-size="14.00">124</text>
</g>
<!-- 14&#45;&gt;18 -->
<g id="edge40" class="edge">
<title>14&#45;&gt;18</title>
<path fill="none" stroke="black" d="M315.17,-400.08C317.24,-409.37 320.77,-420.8 324.65,-431.07"/>
<polygon fill="black" stroke="black" points="321.35,-432.25 328.37,-440.19 327.84,-429.61 321.35,-432.25"/>
<text text-anchor="middle" x="309.79" y="-418.03" font-family="Times New Roman,serif" font-size="14.00">144</text>
</g>
<!-- 14&#45;&gt;19 -->
<g id="edge55" class="edge">
<title>14&#45;&gt;19</title>
<path fill="none" stroke="black" d="M317.13,-363.51C316.2,-352.35 313.72,-337.82 310.69,-325.19"/>
<polygon fill="black" stroke="black" points="314.13,-324.52 308.18,-315.75 307.37,-326.31 314.13,-324.52"/>
<text text-anchor="middle" x="303.78" y="-346.8" font-family="Times New Roman,serif" font-size="14.00">158</text>
</g>
<!-- 20 -->
<g id="node21" class="node">
<title>20</title>
<ellipse fill="none" stroke="black" cx="396.41" cy="-361.23" rx="27" ry="18"/>
<text text-anchor="middle" x="396.41" y="-355.81" font-family="Times New Roman,serif" font-size="14.00">20</text>
</g>
<!-- 14&#45;&gt;20 -->
<g id="edge57" class="edge">
<title>14&#45;&gt;20</title>
<path fill="none" stroke="black" d="M342.28,-381.34C349.35,-379.99 357.03,-378.18 364.32,-376.15"/>
<polygon fill="black" stroke="black" points="365.31,-379.51 373.87,-373.27 363.29,-372.81 365.31,-379.51"/>
<text text-anchor="middle" x="358.36" y="-365.45" font-family="Times New Roman,serif" font-size="14.00">242</text>
</g>
<!-- 15 -->
<g id="node16" class="node">
<title>15</title>
<ellipse fill="none" stroke="black" cx="424.45" cy="-428.04" rx="27" ry="18"/>
<text text-anchor="middle" x="424.45" y="-422.62" font-family="Times New Roman,serif" font-size="14.00">15</text>
</g>
<!-- 15&#45;&gt;20 -->
<g id="edge59" class="edge">
<title>15&#45;&gt;20</title>
<path fill="none" stroke="black" d="M423.08,-409.6C421.01,-402.78 418.01,-394.92 414.71,-387.54"/>
<polygon fill="black" stroke="black" points="417.91,-386.1 410.41,-378.62 411.6,-389.14 417.91,-386.1"/>
<text text-anchor="middle" x="429.02" y="-385.27" font-family="Times New Roman,serif" font-size="14.00">272</text>
</g>
<!-- 21 -->
<g id="node22" class="node">
<title>21</title>
<ellipse fill="none" stroke="black" cx="468.82" cy="-360.57" rx="27" ry="18"/>
<text text-anchor="middle" x="468.82" y="-355.15" font-family="Times New Roman,serif" font-size="14.00">21</text>
</g>
<!-- 15&#45;&gt;21 -->
<g id="edge61" class="edge">
<title>15&#45;&gt;21</title>
<path fill="none" stroke="black" d="M435.42,-411.37C440.36,-403.85 446.31,-394.8 451.81,-386.43"/>
<polygon fill="black" stroke="black" points="454.58,-388.6 457.15,-378.32 448.73,-384.76 454.58,-388.6"/>
<text text-anchor="middle" x="453.74" y="-385.6" font-family="Times New Roman,serif" font-size="14.00">458</text>
</g>
<!-- 16 -->
<g id="node17" class="node">
<title>16</title>
<ellipse fill="none" stroke="black" cx="431.08" cy="-99.03" rx="27" ry="18"/>
<text text-anchor="middle" x="431.08" y="-93.61" font-family="Times New Roman,serif" font-size="14.00">16</text>
</g>
<!-- 17 -->
<g id="node18" class="node">
<title>17</title>
<ellipse fill="none" stroke="black" cx="348.27" cy="-110.75" rx="27" ry="18"/>
<text text-anchor="middle" x="348.27" y="-105.32" font-family="Times New Roman,serif" font-size="14.00">17</text>
</g>
<!-- 16&#45;&gt;17 -->
<g id="edge1" class="edge">
<title>16&#45;&gt;17</title>
<path fill="none" stroke="black" d="M404,-96.47C397.24,-97.04 389.91,-97.95 382.85,-99.1"/>
<polygon fill="black" stroke="black" points="382.43,-95.62 373.23,-100.88 383.7,-102.5 382.43,-95.62"/>
<text text-anchor="middle" x="386.67" y="-84.49" font-family="Times New Roman,serif" font-size="14.00">86</text>
</g>
<!-- 33 -->
<g id="node34" class="node">
<title>33</title>
<ellipse fill="none" stroke="black" cx="407.75" cy="-18" rx="27" ry="18"/>
<text text-anchor="middle" x="407.75" y="-12.57" font-family="Times New Roman,serif" font-size="14.00">33</text>
</g>
<!-- 16&#45;&gt;33 -->
<g id="edge4" class="edge">
<title>16&#45;&gt;33</title>
<path fill="none" stroke="black" d="M425.91,-81.05C423.01,-70.98 419.32,-58.18 416.03,-46.75"/>
<polygon fill="black" stroke="black" points="419.46,-46.03 413.33,-37.39 412.74,-47.97 419.46,-46.03"/>
<text text-anchor="middle" x="410.84" y="-66.35" font-family="Times New Roman,serif" font-size="14.00">329</text>
</g>
<!-- 17&#45;&gt;16 -->
<g id="edge2" class="edge">
<title>17&#45;&gt;16</title>
<path fill="none" stroke="black" d="M375.36,-113.31C382.11,-112.74 389.44,-111.83 396.5,-110.68"/>
<polygon fill="black" stroke="black" points="396.93,-114.16 406.12,-108.9 395.65,-107.28 396.93,-114.16"/>
<text text-anchor="middle" x="392.68" y="-114.44" font-family="Times New Roman,serif" font-size="14.00">86</text>
</g>
<!-- 28 -->
<g id="node29" class="node">
<title>28</title>
<ellipse fill="none" stroke="black" cx="264.26" cy="-127.7" rx="27" ry="18"/>
<text text-anchor="middle" x="264.26" y="-122.27" font-family="Times New Roman,serif" font-size="14.00">28</text>
</g>
<!-- 17&#45;&gt;28 -->
<g id="edge26" class="edge">
<title>17&#45;&gt;28</title>
<path fill="none" stroke="black" d="M320.9,-109.84C313.44,-110.9 305.27,-112.43 297.52,-114.2"/>
<polygon fill="black" stroke="black" points="296.9,-110.74 288.05,-116.57 298.6,-117.53 296.9,-110.74"/>
<text text-anchor="middle" x="309.21" y="-98.72" font-family="Times New Roman,serif" font-size="14.00">108</text>
</g>
<!-- 29 -->
<g id="node30" class="node">
<title>29</title>
<ellipse fill="none" stroke="black" cx="366.9" cy="-194.48" rx="27" ry="18"/>
<text text-anchor="middle" x="366.9" y="-189.05" font-family="Times New Roman,serif" font-size="14.00">29</text>
</g>
<!-- 17&#45;&gt;29 -->
<g id="edge62" class="edge">
<title>17&#45;&gt;29</title>
<path fill="none" stroke="black" d="M346.62,-128.9C347.86,-139.91 350.72,-154.18 354.07,-166.6"/>
<polygon fill="black" stroke="black" points="350.62,-167.3 356.82,-175.89 357.34,-165.31 350.62,-167.3"/>
<text text-anchor="middle" x="340.22" y="-150.2" font-family="Times New Roman,serif" font-size="14.00">104</text>
</g>
<!-- 31 -->
<g id="node32" class="node">
<title>31</title>
<ellipse fill="none" stroke="black" cx="324.77" cy="-30.21" rx="27" ry="18"/>
<text text-anchor="middle" x="324.77" y="-24.78" font-family="Times New Roman,serif" font-size="14.00">31</text>
</g>
<!-- 17&#45;&gt;31 -->
<g id="edge8" class="edge">
<title>17&#45;&gt;31</title>
<path fill="none" stroke="black" d="M348.77,-92.49C346.93,-82.23 343.46,-69.22 339.61,-57.75"/>
<polygon fill="black" stroke="black" points="342.9,-56.56 336.18,-48.36 336.32,-58.96 342.9,-56.56"/>
<text text-anchor="middle" x="334.06" y="-77.57" font-family="Times New Roman,serif" font-size="14.00">292</text>
</g>
<!-- 18&#45;&gt;14 -->
<g id="edge39" class="edge">
<title>18&#45;&gt;14</title>
<path fill="none" stroke="black" d="M340.51,-439.75C338.44,-430.46 334.9,-419.03 331.03,-408.76"/>
<polygon fill="black" stroke="black" points="334.32,-407.58 327.31,-399.64 327.84,-410.22 334.32,-407.58"/>
<text text-anchor="middle" x="345.89" y="-426.71" font-family="Times New Roman,serif" font-size="14.00">144</text>
</g>
<!-- 18&#45;&gt;15 -->
<g id="edge41" class="edge">
<title>18&#45;&gt;15</title>
<path fill="none" stroke="black" d="M364.93,-449.45C372.66,-446.67 381.36,-443.54 389.68,-440.55"/>
<polygon fill="black" stroke="black" points="390.64,-443.92 398.86,-437.25 388.27,-437.34 390.64,-443.92"/>
<text text-anchor="middle" x="387.43" y="-447.45" font-family="Times New Roman,serif" font-size="14.00">122</text>
</g>
<!-- 19&#45;&gt;13 -->
<g id="edge54" class="edge">
<title>19&#45;&gt;13</title>
<path fill="none" stroke="black" d="M271.56,-296.73C263.75,-297.99 255.14,-299.78 247.02,-301.82"/>
<polygon fill="black" stroke="black" points="246.19,-298.42 237.47,-304.44 248.04,-305.17 246.19,-298.42"/>
<text text-anchor="middle" x="252.54" y="-285.97" font-family="Times New Roman,serif" font-size="14.00">48</text>
</g>
<!-- 19&#45;&gt;14 -->
<g id="edge56" class="edge">
<title>19&#45;&gt;14</title>
<path fill="none" stroke="black" d="M296.56,-315.26C297.48,-326.42 299.97,-340.95 302.99,-353.58"/>
<polygon fill="black" stroke="black" points="299.55,-354.26 305.5,-363.02 306.31,-352.46 299.55,-354.26"/>
<text text-anchor="middle" x="289.65" y="-321.12" font-family="Times New Roman,serif" font-size="14.00">158</text>
</g>
<!-- 19&#45;&gt;24 -->
<g id="edge73" class="edge">
<title>19&#45;&gt;24</title>
<path fill="none" stroke="black" d="M300.86,-278.86C299.91,-267.65 297.41,-253.06 294.37,-240.39"/>
<polygon fill="black" stroke="black" points="297.8,-239.66 291.85,-230.9 291.04,-241.46 297.8,-239.66"/>
<text text-anchor="middle" x="287.49" y="-262.07" font-family="Times New Roman,serif" font-size="14.00">108</text>
</g>
<!-- 25 -->
<g id="node26" class="node">
<title>25</title>
<ellipse fill="none" stroke="black" cx="382.81" cy="-278.39" rx="27" ry="18"/>
<text text-anchor="middle" x="382.81" y="-272.97" font-family="Times New Roman,serif" font-size="14.00">25</text>
</g>
<!-- 19&#45;&gt;25 -->
<g id="edge75" class="edge">
<title>19&#45;&gt;25</title>
<path fill="none" stroke="black" d="M325.77,-297.51C333.48,-296.27 341.98,-294.51 350,-292.5"/>
<polygon fill="black" stroke="black" points="350.71,-295.93 359.43,-289.92 348.86,-289.18 350.71,-295.93"/>
<text text-anchor="middle" x="342.94" y="-281.7" font-family="Times New Roman,serif" font-size="14.00">248</text>
</g>
<!-- 20&#45;&gt;14 -->
<g id="edge58" class="edge">
<title>20&#45;&gt;14</title>
<path fill="none" stroke="black" d="M369.1,-361.56C362.03,-362.91 354.35,-364.73 347.06,-366.75"/>
<polygon fill="black" stroke="black" points="346.06,-363.4 337.5,-369.64 348.09,-370.1 346.06,-363.4"/>
<text text-anchor="middle" x="353.02" y="-350.86" font-family="Times New Roman,serif" font-size="14.00">242</text>
</g>
<!-- 20&#45;&gt;15 -->
<g id="edge60" class="edge">
<title>20&#45;&gt;15</title>
<path fill="none" stroke="black" d="M397.78,-379.68C399.85,-386.5 402.86,-394.36 406.15,-401.73"/>
<polygon fill="black" stroke="black" points="402.96,-403.17 410.45,-410.66 409.26,-400.13 402.96,-403.17"/>
<text text-anchor="middle" x="391.84" y="-393.16" font-family="Times New Roman,serif" font-size="14.00">272</text>
</g>
<!-- 20&#45;&gt;21 -->
<g id="edge79" class="edge">
<title>20&#45;&gt;21</title>
<path fill="none" stroke="black" d="M422.2,-367.49C425.3,-367.62 428.51,-367.67 431.72,-367.66"/>
<polygon fill="black" stroke="black" points="431.83,-371.16 441.72,-367.34 431.61,-364.16 431.83,-371.16"/>
<text text-anchor="middle" x="432.03" y="-354.27" font-family="Times New Roman,serif" font-size="14.00">154</text>
</g>
<!-- 20&#45;&gt;25 -->
<g id="edge77" class="edge">
<title>20&#45;&gt;25</title>
<path fill="none" stroke="black" d="M399.11,-343.16C398.51,-332.49 396.56,-318.75 394.03,-306.67"/>
<polygon fill="black" stroke="black" points="397.5,-306.16 391.8,-297.23 390.69,-307.77 397.5,-306.16"/>
<text text-anchor="middle" x="386.45" y="-327.37" font-family="Times New Roman,serif" font-size="14.00">104</text>
</g>
<!-- 21&#45;&gt;20 -->
<g id="edge80" class="edge">
<title>21&#45;&gt;20</title>
<path fill="none" stroke="black" d="M443.03,-354.31C439.93,-354.19 436.73,-354.13 433.51,-354.15"/>
<polygon fill="black" stroke="black" points="433.4,-350.65 423.52,-354.46 433.62,-357.64 433.4,-350.65"/>
<text text-anchor="middle" x="428.14" y="-340.93" font-family="Times New Roman,serif" font-size="14.00">154</text>
</g>
<!-- 26 -->
<g id="node27" class="node">
<title>26</title>
<ellipse fill="none" stroke="black" cx="463.19" cy="-271.64" rx="27" ry="18"/>
<text text-anchor="middle" x="463.19" y="-266.22" font-family="Times New Roman,serif" font-size="14.00">26</text>
</g>
<!-- 21&#45;&gt;26 -->
<g id="edge81" class="edge">
<title>21&#45;&gt;26</title>
<path fill="none" stroke="black" d="M467.65,-342.15C466.91,-330.34 465.92,-314.76 465.06,-301.24"/>
<polygon fill="black" stroke="black" points="468.57,-301.32 464.45,-291.56 461.59,-301.76 468.57,-301.32"/>
<text text-anchor="middle" x="456.23" y="-324.14" font-family="Times New Roman,serif" font-size="14.00">200</text>
</g>
<!-- 22&#45;&gt;23 -->
<g id="edge83" class="edge">
<title>22&#45;&gt;23</title>
<path fill="none" stroke="black" d="M155.05,-88.56C157.19,-97.85 160.8,-109.28 164.75,-119.54"/>
<polygon fill="black" stroke="black" points="161.47,-120.76 168.54,-128.66 167.94,-118.08 161.47,-120.76"/>
<text text-anchor="middle" x="149.78" y="-106.5" font-family="Times New Roman,serif" font-size="14.00">104</text>
</g>
<!-- 27 -->
<g id="node28" class="node">
<title>27</title>
<ellipse fill="none" stroke="black" cx="239.91" cy="-48.12" rx="27" ry="18"/>
<text text-anchor="middle" x="239.91" y="-42.7" font-family="Times New Roman,serif" font-size="14.00">27</text>
</g>
<!-- 22&#45;&gt;27 -->
<g id="edge85" class="edge">
<title>22&#45;&gt;27</title>
<path fill="none" stroke="black" d="M180.28,-63.52C187.52,-61.65 195.55,-59.58 203.31,-57.57"/>
<polygon fill="black" stroke="black" points="204.1,-60.99 212.9,-55.1 202.34,-54.21 204.1,-60.99"/>
<text text-anchor="middle" x="201.92" y="-63" font-family="Times New Roman,serif" font-size="14.00">214</text>
</g>
<!-- 23&#45;&gt;1 -->
<g id="edge68" class="edge">
<title>23&#45;&gt;1</title>
<path fill="none" stroke="black" d="M153.71,-146.85C146.69,-148.17 139.09,-149.95 131.85,-151.94"/>
<polygon fill="black" stroke="black" points="130.95,-148.55 122.37,-154.77 132.95,-155.26 130.95,-148.55"/>
<text text-anchor="middle" x="136.03" y="-136.09" font-family="Times New Roman,serif" font-size="14.00">36</text>
</g>
<!-- 23&#45;&gt;10 -->
<g id="edge70" class="edge">
<title>23&#45;&gt;10</title>
<path fill="none" stroke="black" d="M179,-164.76C180.01,-175.84 182.58,-190.22 185.68,-202.76"/>
<polygon fill="black" stroke="black" points="182.24,-203.43 188.25,-212.15 188.99,-201.58 182.24,-203.43"/>
<text text-anchor="middle" x="172.22" y="-170.46" font-family="Times New Roman,serif" font-size="14.00">112</text>
</g>
<!-- 23&#45;&gt;22 -->
<g id="edge84" class="edge">
<title>23&#45;&gt;22</title>
<path fill="none" stroke="black" d="M180.67,-128.14C178.54,-118.85 174.92,-107.42 170.97,-97.16"/>
<polygon fill="black" stroke="black" points="174.25,-95.94 167.19,-88.04 167.79,-98.62 174.25,-95.94"/>
<text text-anchor="middle" x="185.95" y="-115.1" font-family="Times New Roman,serif" font-size="14.00">104</text>
</g>
<!-- 23&#45;&gt;28 -->
<g id="edge87" class="edge">
<title>23&#45;&gt;28</title>
<path fill="none" stroke="black" d="M208.29,-146.85C215.76,-145.61 223.94,-143.87 231.67,-141.91"/>
<polygon fill="black" stroke="black" points="232.41,-145.33 241.11,-139.29 230.53,-138.59 232.41,-145.33"/>
<text text-anchor="middle" x="225.04" y="-131.08" font-family="Times New Roman,serif" font-size="14.00">214</text>
</g>
<!-- 24&#45;&gt;10 -->
<g id="edge72" class="edge">
<title>24&#45;&gt;10</title>
<path fill="none" stroke="black" d="M255.21,-211.8C247.4,-213.07 238.79,-214.86 230.68,-216.9"/>
<polygon fill="black" stroke="black" points="229.85,-213.5 221.13,-219.53 231.7,-220.25 229.85,-213.5"/>
<text text-anchor="middle" x="237.88" y="-201.05" font-family="Times New Roman,serif" font-size="14.00">144</text>
</g>
<!-- 24&#45;&gt;19 -->
<g id="edge74" class="edge">
<title>24&#45;&gt;19</title>
<path fill="none" stroke="black" d="M280.22,-230.41C281.17,-241.62 283.67,-256.2 286.71,-268.88"/>
<polygon fill="black" stroke="black" points="283.28,-269.61 289.23,-278.37 290.04,-267.81 283.28,-269.61"/>
<text text-anchor="middle" x="273.34" y="-236.34" font-family="Times New Roman,serif" font-size="14.00">108</text>
</g>
<!-- 24&#45;&gt;28 -->
<g id="edge89" class="edge">
<title>24&#45;&gt;28</title>
<path fill="none" stroke="black" d="M284.12,-193.91C282.96,-182.81 280.19,-168.41 276.92,-155.88"/>
<polygon fill="black" stroke="black" points="280.34,-155.14 274.22,-146.49 273.62,-157.07 280.34,-155.14"/>
<text text-anchor="middle" x="273.77" y="-177.35" font-family="Times New Roman,serif" font-size="14.00">74</text>
</g>
<!-- 24&#45;&gt;29 -->
<g id="edge91" class="edge">
<title>24&#45;&gt;29</title>
<path fill="none" stroke="black" d="M309.47,-212.91C317.22,-211.76 325.76,-210.1 333.82,-208.19"/>
<polygon fill="black" stroke="black" points="334.52,-211.63 343.32,-205.73 332.76,-204.85 334.52,-211.63"/>
<text text-anchor="middle" x="326.71" y="-197.25" font-family="Times New Roman,serif" font-size="14.00">150</text>
</g>
<!-- 25&#45;&gt;19 -->
<g id="edge76" class="edge">
<title>25&#45;&gt;19</title>
<path fill="none" stroke="black" d="M355.76,-277.98C348.04,-279.22 339.55,-280.98 331.53,-282.99"/>
<polygon fill="black" stroke="black" points="330.82,-279.55 322.09,-285.56 332.66,-286.31 330.82,-279.55"/>
<text text-anchor="middle" x="338.58" y="-267.19" font-family="Times New Roman,serif" font-size="14.00">248</text>
</g>
<!-- 25&#45;&gt;20 -->
<g id="edge78" class="edge">
<title>25&#45;&gt;20</title>
<path fill="none" stroke="black" d="M380.11,-296.46C380.71,-307.13 382.66,-320.87 385.19,-332.95"/>
<polygon fill="black" stroke="black" points="381.72,-333.47 387.43,-342.39 388.53,-331.86 381.72,-333.47"/>
<text text-anchor="middle" x="372.53" y="-301.41" font-family="Times New Roman,serif" font-size="14.00">104</text>
</g>
<!-- 25&#45;&gt;26 -->
<g id="edge95" class="edge">
<title>25&#45;&gt;26</title>
<path fill="none" stroke="black" d="M409.21,-282.55C415,-282.4 421.23,-282 427.32,-281.4"/>
<polygon fill="black" stroke="black" points="427.7,-284.88 437.21,-280.2 426.86,-277.93 427.7,-284.88"/>
<text text-anchor="middle" x="425.02" y="-284.43" font-family="Times New Roman,serif" font-size="14.00">82</text>
</g>
<!-- 25&#45;&gt;29 -->
<g id="edge93" class="edge">
<title>25&#45;&gt;29</title>
<path fill="none" stroke="black" d="M385.01,-259.96C384.11,-249.05 381.74,-235.01 378.85,-222.73"/>
<polygon fill="black" stroke="black" points="382.25,-221.9 376.32,-213.12 375.48,-223.68 382.25,-221.9"/>
<text text-anchor="middle" x="375.18" y="-243.8" font-family="Times New Roman,serif" font-size="14.00">82</text>
</g>
<!-- 26&#45;&gt;25 -->
<g id="edge96" class="edge">
<title>26&#45;&gt;25</title>
<path fill="none" stroke="black" d="M436.78,-267.48C430.99,-267.64 424.77,-268.04 418.68,-268.63"/>
<polygon fill="black" stroke="black" points="418.29,-265.15 408.79,-269.83 419.14,-272.1 418.29,-265.15"/>
<text text-anchor="middle" x="420.98" y="-254.76" font-family="Times New Roman,serif" font-size="14.00">82</text>
</g>
<!-- 30 -->
<g id="node31" class="node">
<title>30</title>
<ellipse fill="none" stroke="black" cx="449.25" cy="-184.32" rx="27" ry="18"/>
<text text-anchor="middle" x="449.25" y="-178.9" font-family="Times New Roman,serif" font-size="14.00">30</text>
</g>
<!-- 26&#45;&gt;30 -->
<g id="edge97" class="edge">
<title>26&#45;&gt;30</title>
<path fill="none" stroke="black" d="M460.3,-253.55C458.48,-242.15 456.09,-227.17 454,-214.05"/>
<polygon fill="black" stroke="black" points="457.46,-213.51 452.42,-204.19 450.54,-214.61 457.46,-213.51"/>
<text text-anchor="middle" x="447.02" y="-236.25" font-family="Times New Roman,serif" font-size="14.00">118</text>
</g>
<!-- 27&#45;&gt;28 -->
<g id="edge28" class="edge">
<title>27&#45;&gt;28</title>
<path fill="none" stroke="black" d="M239.61,-66.25C241.54,-76.33 245.11,-89.08 249.06,-100.35"/>
<polygon fill="black" stroke="black" points="245.73,-101.45 252.55,-109.56 252.28,-98.97 245.73,-101.45"/>
<text text-anchor="middle" x="234.21" y="-85.75" font-family="Times New Roman,serif" font-size="14.00">100</text>
</g>
<!-- 27&#45;&gt;31 -->
<g id="edge82" class="edge">
<title>27&#45;&gt;31</title>
<path fill="none" stroke="black" d="M265.83,-42.65C272.68,-41.2 280.2,-39.62 287.52,-38.07"/>
<polygon fill="black" stroke="black" points="288.18,-41.51 297.24,-36.02 286.73,-34.66 288.18,-41.51"/>
<text text-anchor="middle" x="286.8" y="-42.81" font-family="Times New Roman,serif" font-size="14.00">120</text>
</g>
<!-- 28&#45;&gt;17 -->
<g id="edge42" class="edge">
<title>28&#45;&gt;17</title>
<path fill="none" stroke="black" d="M291.63,-128.6C299.09,-127.54 307.26,-126.01 315.01,-124.25"/>
<polygon fill="black" stroke="black" points="315.63,-127.7 324.48,-121.88 313.93,-120.91 315.63,-127.7"/>
<text text-anchor="middle" x="313.44" y="-128.87" font-family="Times New Roman,serif" font-size="14.00">108</text>
</g>
<!-- 28&#45;&gt;23 -->
<g id="edge88" class="edge">
<title>28&#45;&gt;23</title>
<path fill="none" stroke="black" d="M236.98,-127.42C229.51,-128.67 221.33,-130.4 213.59,-132.37"/>
<polygon fill="black" stroke="black" points="212.86,-128.94 204.16,-134.98 214.73,-135.68 212.86,-128.94"/>
<text text-anchor="middle" x="220.23" y="-116.6" font-family="Times New Roman,serif" font-size="14.00">214</text>
</g>
<!-- 28&#45;&gt;24 -->
<g id="edge90" class="edge">
<title>28&#45;&gt;24</title>
<path fill="none" stroke="black" d="M262.5,-145.95C263.66,-157.05 266.43,-171.45 269.7,-183.99"/>
<polygon fill="black" stroke="black" points="266.28,-184.73 272.4,-193.37 273,-182.8 266.28,-184.73"/>
<text text-anchor="middle" x="259.35" y="-167.42" font-family="Times New Roman,serif" font-size="14.00">74</text>
</g>
<!-- 28&#45;&gt;27 -->
<g id="edge98" class="edge">
<title>28&#45;&gt;27</title>
<path fill="none" stroke="black" d="M264.56,-109.57C262.63,-99.48 259.06,-86.74 255.11,-75.47"/>
<polygon fill="black" stroke="black" points="258.44,-74.37 251.62,-66.25 251.89,-76.85 258.44,-74.37"/>
<text text-anchor="middle" x="269.96" y="-94.97" font-family="Times New Roman,serif" font-size="14.00">100</text>
</g>
<!-- 29&#45;&gt;17 -->
<g id="edge14" class="edge">
<title>29&#45;&gt;17</title>
<path fill="none" stroke="black" d="M368.55,-176.33C367.31,-165.31 364.45,-151.04 361.1,-138.62"/>
<polygon fill="black" stroke="black" points="364.55,-137.93 358.35,-129.33 357.83,-139.91 364.55,-137.93"/>
<text text-anchor="middle" x="374.95" y="-159.92" font-family="Times New Roman,serif" font-size="14.00">104</text>
</g>
<!-- 29&#45;&gt;24 -->
<g id="edge92" class="edge">
<title>29&#45;&gt;24</title>
<path fill="none" stroke="black" d="M339.79,-193.74C332.04,-194.89 323.5,-196.55 315.44,-198.46"/>
<polygon fill="black" stroke="black" points="314.74,-195.02 305.94,-200.92 316.5,-201.8 314.74,-195.02"/>
<text text-anchor="middle" x="322.55" y="-182.8" font-family="Times New Roman,serif" font-size="14.00">150</text>
</g>
<!-- 29&#45;&gt;25 -->
<g id="edge94" class="edge">
<title>29&#45;&gt;25</title>
<path fill="none" stroke="black" d="M364.7,-212.91C365.6,-223.82 367.96,-237.86 370.86,-250.14"/>
<polygon fill="black" stroke="black" points="367.46,-250.97 373.38,-259.75 374.23,-249.19 367.46,-250.97"/>
<text text-anchor="middle" x="361.03" y="-233.97" font-family="Times New Roman,serif" font-size="14.00">82</text>
</g>
<!-- 29&#45;&gt;30 -->
<g id="edge86" class="edge">
<title>29&#45;&gt;30</title>
<path fill="none" stroke="black" d="M393.73,-197.55C400.3,-197.12 407.42,-196.36 414.31,-195.38"/>
<polygon fill="black" stroke="black" points="414.74,-198.86 424.04,-193.77 413.6,-191.95 414.74,-198.86"/>
<text text-anchor="middle" x="410.77" y="-198.91" font-family="Times New Roman,serif" font-size="14.00">86</text>
</g>
<!-- 30&#45;&gt;16 -->
<g id="edge44" class="edge">
<title>30&#45;&gt;16</title>
<path fill="none" stroke="black" d="M445.4,-166.23C443.04,-155.15 439.96,-140.71 437.27,-128.06"/>
<polygon fill="black" stroke="black" points="440.75,-127.63 435.25,-118.57 433.91,-129.08 440.75,-127.63"/>
<text text-anchor="middle" x="431.21" y="-149.6" font-family="Times New Roman,serif" font-size="14.00">196</text>
</g>
<!-- 30&#45;&gt;29 -->
<g id="edge66" class="edge">
<title>30&#45;&gt;29</title>
<path fill="none" stroke="black" d="M422.42,-181.26C415.85,-181.68 408.73,-182.44 401.85,-183.42"/>
<polygon fill="black" stroke="black" points="401.41,-179.94 392.12,-185.03 402.55,-186.85 401.41,-179.94"/>
<text text-anchor="middle" x="405.38" y="-169.04" font-family="Times New Roman,serif" font-size="14.00">86</text>
</g>
<!-- 31&#45;&gt;17 -->
<g id="edge16" class="edge">
<title>31&#45;&gt;17</title>
<path fill="none" stroke="black" d="M324.27,-48.46C326.11,-58.72 329.58,-71.73 333.44,-83.21"/>
<polygon fill="black" stroke="black" points="330.15,-84.39 336.86,-92.59 336.72,-82 330.15,-84.39"/>
<text text-anchor="middle" x="318.73" y="-52.53" font-family="Times New Roman,serif" font-size="14.00">292</text>
</g>
<!-- 31&#45;&gt;33 -->
<g id="edge6" class="edge">
<title>31&#45;&gt;33</title>
<path fill="none" stroke="black" d="M351.49,-26.28C357.41,-25.41 363.79,-24.47 370.06,-23.55"/>
<polygon fill="black" stroke="black" points="370.21,-27.06 379.59,-22.14 369.19,-20.14 370.21,-27.06"/>
<text text-anchor="middle" x="365.83" y="-11.61" font-family="Times New Roman,serif" font-size="14.00">303</text>
</g>
<!-- 32 -->
<g id="node33" class="node">
<title>32</title>
<ellipse fill="none" stroke="black" cx="86.31" cy="-508.63" rx="27" ry="18"/>
<text text-anchor="middle" x="86.31" y="-503.2" font-family="Times New Roman,serif" font-size="14.00">32</text>
</g>
<!-- 32&#45;&gt;2 -->
<g id="edge3" class="edge">
<title>32&#45;&gt;2</title>
<path fill="none" stroke="black" d="M81.41,-490.65C78.66,-480.59 75.17,-467.8 72.05,-456.38"/>
<polygon fill="black" stroke="black" points="75.51,-455.75 69.5,-447.03 68.75,-457.59 75.51,-455.75"/>
<text text-anchor="middle" x="66.6" y="-475.97" font-family="Times New Roman,serif" font-size="14.00">475</text>
</g>
<!-- 32&#45;&gt;3 -->
<g id="edge5" class="edge">
<title>32&#45;&gt;3</title>
<path fill="none" stroke="black" d="M113.21,-505.1C119.18,-504.32 125.61,-503.48 131.92,-502.65"/>
<polygon fill="black" stroke="black" points="132.07,-506.16 141.53,-501.39 131.16,-499.22 132.07,-506.16"/>
<text text-anchor="middle" x="132.69" y="-506.33" font-family="Times New Roman,serif" font-size="14.00">163</text>
</g>
</g>
</svg>
